<svg width="23" height="22" viewBox="0 0 23 22" fill="none" xmlns="http://www.w3.org/2000/svg">
<path fill-rule="evenodd" clip-rule="evenodd" d="M10.6 10.8C13.251 10.8 15.4 8.65097 15.4 6C15.4 3.34903 13.251 1.2 10.6 1.2C7.94903 1.2 5.8 3.34903 5.8 6C5.8 8.65097 7.94903 10.8 10.6 10.8ZM10.6 12C13.9137 12 16.6 9.31371 16.6 6C16.6 2.68629 13.9137 0 10.6 0C7.28629 0 4.6 2.68629 4.6 6C4.6 9.31371 7.28629 12 10.6 12Z" fill="#292929"/>
<path fill-rule="evenodd" clip-rule="evenodd" d="M11.1 12.6C5.60446 12.6 1.2 16.8358 1.2 22H0C0 16.1185 4.99756 11.4 11.1 11.4C17.2024 11.4 22.2 16.1185 22.2 22H21C21 16.8358 16.5955 12.6 11.1 12.6Z" fill="#292929"/>
</svg>
