<svg width="18" height="13" viewBox="0 0 18 13" fill="none" xmlns="http://www.w3.org/2000/svg">
<g clip-path="url(#clip0_920_6834)">
<path fill-rule="evenodd" clip-rule="evenodd" d="M8.80109 0.300029C8.80109 0.311029 8.78587 0.320029 8.76725 0.320029C8.71581 0.320029 8.59843 0.457649 8.52279 0.606669C8.48557 0.680009 8.44745 0.740029 8.43809 0.740029C8.42875 0.740029 8.42109 0.758029 8.42109 0.780029C8.42109 0.802029 8.41209 0.820029 8.40109 0.820029C8.39009 0.820029 8.38109 0.838029 8.38109 0.860029C8.38109 0.882029 8.37319 0.900029 8.36351 0.900029C8.35385 0.900029 8.33475 0.927029 8.32109 0.960029C8.30743 0.993029 8.28833 1.02003 8.27867 1.02003C8.26899 1.02003 8.26109 1.03803 8.26109 1.06003C8.26109 1.08203 8.25209 1.10003 8.24109 1.10003C8.23009 1.10003 8.22109 1.11391 8.22109 1.13087C8.22109 1.14783 8.20309 1.18103 8.18109 1.20463C8.15909 1.22825 8.14109 1.25937 8.14109 1.27381C8.14109 1.28823 8.13209 1.30003 8.12109 1.30003C8.11009 1.30003 8.10109 1.31803 8.10109 1.34003C8.10109 1.36203 8.09209 1.38003 8.08109 1.38003C8.07009 1.38003 8.06109 1.39353 8.06109 1.41003C8.06109 1.42653 8.05209 1.44003 8.04109 1.44003C8.03009 1.44003 8.02109 1.45803 8.02109 1.48003C8.02109 1.50203 8.01209 1.52003 8.00109 1.52003C7.99009 1.52003 7.98109 1.53605 7.98109 1.55561C7.98109 1.57519 7.96309 1.60417 7.94109 1.62003C7.91909 1.63589 7.90109 1.66487 7.90109 1.68445C7.90109 1.70401 7.89209 1.72003 7.88109 1.72003C7.87009 1.72003 7.86109 1.73803 7.86109 1.76003C7.86109 1.78203 7.85209 1.80003 7.84109 1.80003C7.83009 1.80003 7.82109 1.81605 7.82109 1.83561C7.82109 1.85519 7.80309 1.88417 7.78109 1.90003C7.75909 1.91589 7.74109 1.94487 7.74109 1.96445C7.74109 1.98401 7.73209 2.00003 7.72109 2.00003C7.71009 2.00003 7.70109 2.01243 7.70109 2.02759C7.70109 2.04273 7.68907 2.06511 7.67437 2.07731C7.65969 2.08949 7.62605 2.14235 7.59965 2.19475C7.57323 2.24715 7.54679 2.29453 7.54087 2.30003C7.53495 2.30553 7.50785 2.35279 7.48063 2.40503C7.45343 2.45727 7.42439 2.50003 7.41613 2.50003C7.40785 2.50003 7.40109 2.51727 7.40109 2.53837C7.40109 2.55945 7.39435 2.57969 7.38609 2.58337C7.36731 2.59171 7.30237 2.69823 7.28753 2.74503C7.28141 2.76429 7.26847 2.78003 7.25875 2.78003C7.24905 2.78003 7.24109 2.79803 7.24109 2.82003C7.24109 2.84203 7.23209 2.86003 7.22109 2.86003C7.21009 2.86003 7.20109 2.87353 7.20109 2.89003C7.20109 2.90653 7.19377 2.92003 7.18483 2.92003C7.17587 2.92003 7.15619 2.95153 7.14109 2.99003C7.12599 3.02853 7.10631 3.06003 7.09735 3.06003C7.08841 3.06003 7.08109 3.07353 7.08109 3.09003C7.08109 3.10653 7.07209 3.12003 7.06109 3.12003C7.05009 3.12003 7.04109 3.13803 7.04109 3.16003C7.04109 3.18203 7.03209 3.20003 7.02109 3.20003C7.01009 3.20003 7.00109 3.21803 7.00109 3.24003C7.00109 3.26203 6.99209 3.28003 6.98109 3.28003C6.97009 3.28003 6.96109 3.29605 6.96109 3.31561C6.96109 3.33519 6.94309 3.36417 6.92109 3.38003C6.89909 3.39589 6.88109 3.42487 6.88109 3.44445C6.88109 3.46401 6.87209 3.48003 6.86109 3.48003C6.85009 3.48003 6.84109 3.49803 6.84109 3.52003C6.84109 3.54203 6.83209 3.56003 6.82109 3.56003C6.81009 3.56003 6.80109 3.57353 6.80109 3.59003C6.80109 3.60653 6.79209 3.62003 6.78109 3.62003C6.77009 3.62003 6.76109 3.63353 6.76109 3.65003C6.76109 3.66653 6.75209 3.68003 6.74109 3.68003C6.73009 3.68003 6.72109 3.69803 6.72109 3.72003C6.72109 3.74203 6.71209 3.76003 6.70109 3.76003C6.69009 3.76003 6.68109 3.76793 6.68109 3.77761C6.68109 3.79601 6.55615 4.01385 6.52361 4.05221C6.51325 4.06441 6.48473 4.11391 6.46025 4.16221C6.43575 4.21051 6.41017 4.25453 6.40341 4.26003C6.39265 4.26875 6.36849 4.31123 6.27255 4.49003C6.26075 4.51203 6.24587 4.53453 6.23949 4.54003C6.23311 4.54553 6.21515 4.57929 6.19961 4.61503C6.18405 4.65079 6.16453 4.68003 6.15621 4.68003C6.14789 4.68003 6.14109 4.69803 6.14109 4.72003C6.14109 4.74203 6.13319 4.76003 6.12351 4.76003C6.11385 4.76003 6.09475 4.78703 6.08109 4.82003C6.06743 4.85303 6.04833 4.88003 6.03867 4.88003C6.02899 4.88003 6.02109 4.89803 6.02109 4.92003C6.02109 4.94203 6.01209 4.96003 6.00109 4.96003C5.99009 4.96003 5.98109 4.97391 5.98109 4.99087C5.98109 5.00783 5.96309 5.04103 5.94109 5.06463C5.91909 5.08825 5.90109 5.11937 5.90109 5.13381C5.90109 5.14823 5.89209 5.16003 5.88109 5.16003C5.87009 5.16003 5.86109 5.17803 5.86109 5.20003C5.86109 5.22203 5.85209 5.24003 5.84109 5.24003C5.83009 5.24003 5.82109 5.25353 5.82109 5.27003C5.82109 5.28653 5.81209 5.30003 5.80109 5.30003C5.79009 5.30003 5.78109 5.31803 5.78109 5.34003C5.78109 5.36203 5.77377 5.38003 5.76483 5.38003C5.75587 5.38003 5.73619 5.41153 5.72109 5.45003C5.70599 5.48853 5.68631 5.52003 5.67735 5.52003C5.66841 5.52003 5.66109 5.53353 5.66109 5.55003C5.66109 5.56653 5.65209 5.58003 5.64109 5.58003C5.63009 5.58003 5.62109 5.59803 5.62109 5.62003C5.62109 5.64203 5.61209 5.66003 5.60109 5.66003C5.59009 5.66003 5.58109 5.67393 5.58109 5.69093C5.58109 5.70793 5.55859 5.74435 5.53109 5.77185C5.50359 5.79935 5.48109 5.83139 5.48109 5.84305C5.48109 5.85471 5.45497 5.83631 5.42307 5.80215C5.39115 5.76799 5.35263 5.74003 5.33749 5.74003C5.32233 5.74003 5.29695 5.72203 5.28109 5.70003C5.26523 5.67803 5.24535 5.66003 5.23691 5.66003C5.22845 5.66003 5.20269 5.64429 5.17963 5.62503C5.09163 5.55153 5.06037 5.52767 4.95053 5.45003C4.88829 5.40603 4.81345 5.34979 4.78423 5.32505C4.75499 5.30031 4.72183 5.28007 4.71051 5.28005C4.69919 5.28005 4.67695 5.26203 4.66109 5.24003C4.64523 5.21803 4.61985 5.20003 4.60469 5.20003C4.58955 5.20003 4.55191 5.17303 4.52109 5.14003C4.49027 5.10703 4.45263 5.08003 4.43749 5.08003C4.42233 5.08003 4.39695 5.06203 4.38109 5.04003C4.36523 5.01803 4.34209 5.00003 4.32965 5.00003C4.31721 5.00003 4.27877 4.97303 4.24423 4.94003C4.20971 4.90703 4.17149 4.88003 4.15929 4.88003C4.14711 4.88003 4.11191 4.85303 4.08109 4.82003C4.05027 4.78703 4.02013 4.76003 4.01413 4.76003C4.00471 4.76003 3.90501 4.68763 3.67409 4.51311C3.64273 4.48941 3.59365 4.45653 3.56503 4.44003C3.53641 4.42353 3.49189 4.38979 3.46613 4.36503C3.44035 4.34029 3.41109 4.32003 3.40109 4.32003C3.39109 4.32003 3.36041 4.29753 3.33291 4.27003C3.30541 4.24253 3.27261 4.22003 3.26003 4.22003C3.24743 4.22003 3.21191 4.19303 3.18109 4.16003C3.15027 4.12703 3.11263 4.10003 3.09749 4.10003C3.08233 4.10003 3.05695 4.08203 3.04109 4.06003C3.02523 4.03803 3.00535 4.02003 2.99691 4.02003C2.98845 4.02003 2.96269 4.00427 2.93963 3.98503C2.85163 3.91153 2.82037 3.88767 2.71053 3.81003C2.64829 3.76603 2.57345 3.70979 2.54423 3.68505C2.51499 3.66031 2.48183 3.64007 2.47051 3.64005C2.45919 3.64005 2.43695 3.62203 2.42109 3.60003C2.40523 3.57803 2.37985 3.56003 2.36469 3.56003C2.34955 3.56003 2.31191 3.53303 2.28109 3.50003C2.25027 3.46703 2.21263 3.44003 2.19749 3.44003C2.18233 3.44003 2.15695 3.42203 2.14109 3.40003C2.12523 3.37803 2.10209 3.36003 2.08965 3.36003C2.07721 3.36003 2.03877 3.33303 2.00423 3.30003C1.96971 3.26703 1.93149 3.24003 1.91929 3.24003C1.90711 3.24003 1.87191 3.21303 1.84109 3.18003C1.81027 3.14703 1.78013 3.12003 1.77413 3.12003C1.76813 3.12003 1.70199 3.07417 1.62715 3.01811C1.55231 2.96205 1.46491 2.89681 1.43293 2.87311C1.40093 2.84941 1.36333 2.81879 1.34935 2.80503C1.33537 2.79129 1.31389 2.78003 1.30161 2.78003C1.28933 2.78003 1.25677 2.75753 1.22927 2.73003C1.20177 2.70253 1.17109 2.68003 1.16109 2.68003C1.15109 2.68003 1.12041 2.65753 1.09291 2.63003C1.06541 2.60253 1.03261 2.58003 1.02003 2.58003C1.00743 2.58003 0.971914 2.55303 0.941094 2.52003C0.910274 2.48703 0.873954 2.46003 0.860414 2.46003C0.846874 2.46003 0.821234 2.44331 0.803434 2.42289C0.785654 2.40245 0.719774 2.35295 0.657054 2.31289C0.474114 2.19601 0.349914 2.21223 0.186094 2.37437C0.124294 2.43553 0.121094 2.44607 0.121094 2.58819C0.121094 2.67041 0.130094 2.74323 0.141094 2.75003C0.152094 2.75683 0.161094 2.78435 0.161094 2.81121C0.161094 2.83807 0.170094 2.86003 0.181094 2.86003C0.192094 2.86003 0.201094 2.88253 0.201094 2.91003C0.201094 2.93753 0.210094 2.96003 0.221094 2.96003C0.232094 2.96003 0.241094 2.98703 0.241094 3.02003C0.241094 3.05303 0.250094 3.08003 0.261094 3.08003C0.272094 3.08003 0.281094 3.09803 0.281094 3.12003C0.281094 3.14203 0.290094 3.16003 0.301094 3.16003C0.312094 3.16003 0.321094 3.18703 0.321094 3.22003C0.321094 3.25303 0.330094 3.28003 0.341094 3.28003C0.352094 3.28003 0.361094 3.29749 0.361094 3.31885C0.361094 3.34021 0.370094 3.36323 0.381094 3.37003C0.392094 3.37683 0.401094 3.40435 0.401094 3.43121C0.401094 3.45807 0.410094 3.48003 0.421094 3.48003C0.432094 3.48003 0.441094 3.50199 0.441094 3.52885C0.441094 3.55571 0.450094 3.58323 0.461094 3.59003C0.472094 3.59683 0.481094 3.62435 0.481094 3.65121C0.481094 3.67807 0.488474 3.70003 0.497474 3.70003C0.506494 3.70003 0.526114 3.74503 0.541094 3.80003C0.556074 3.85503 0.575694 3.90003 0.584714 3.90003C0.593714 3.90003 0.601094 3.92703 0.601094 3.96003C0.601094 3.99303 0.610094 4.02003 0.621094 4.02003C0.632094 4.02003 0.641094 4.03803 0.641094 4.06003C0.641094 4.08203 0.650094 4.10003 0.661094 4.10003C0.672094 4.10003 0.681094 4.12703 0.681094 4.16003C0.681094 4.19303 0.688134 4.22003 0.696734 4.22003C0.705334 4.22003 0.724634 4.26279 0.739634 4.31503C0.754634 4.36729 0.772754 4.41903 0.779914 4.43003C0.787054 4.44103 0.813394 4.50403 0.838414 4.57003C0.863434 4.63603 0.905334 4.73953 0.931514 4.80003C0.957674 4.86053 0.990374 4.94603 1.00417 4.99003C1.01797 5.03403 1.03641 5.07857 1.04517 5.08903C1.05393 5.09947 1.06109 5.12423 1.06109 5.14403C1.06109 5.16383 1.07009 5.18003 1.08109 5.18003C1.09209 5.18003 1.10109 5.20253 1.10109 5.23003C1.10109 5.25753 1.11009 5.28003 1.12109 5.28003C1.13209 5.28003 1.14109 5.30253 1.14109 5.33003C1.14109 5.35753 1.15009 5.38003 1.16109 5.38003C1.17209 5.38003 1.18109 5.40703 1.18109 5.44003C1.18109 5.47303 1.19009 5.50003 1.20109 5.50003C1.21209 5.50003 1.22109 5.51803 1.22109 5.54003C1.22109 5.56203 1.23009 5.58003 1.24109 5.58003C1.25209 5.58003 1.26109 5.60703 1.26109 5.64003C1.26109 5.67303 1.27009 5.70003 1.28109 5.70003C1.29209 5.70003 1.30109 5.72199 1.30109 5.74885C1.30109 5.77571 1.31009 5.80323 1.32109 5.81003C1.33209 5.81683 1.34109 5.83985 1.34109 5.86121C1.34109 5.88257 1.35009 5.90003 1.36109 5.90003C1.37209 5.90003 1.38109 5.92703 1.38109 5.96003C1.38109 5.99303 1.39009 6.02003 1.40109 6.02003C1.41209 6.02003 1.42109 6.04253 1.42109 6.07003C1.42109 6.09753 1.43009 6.12003 1.44109 6.12003C1.45209 6.12003 1.46109 6.14199 1.46109 6.16885C1.46109 6.19571 1.47009 6.22323 1.48109 6.23003C1.49209 6.23683 1.50109 6.25985 1.50109 6.28121C1.50109 6.30257 1.51009 6.32003 1.52109 6.32003C1.53209 6.32003 1.54109 6.34703 1.54109 6.38003C1.54109 6.41303 1.54847 6.44003 1.55747 6.44003C1.56649 6.44003 1.58611 6.48503 1.60109 6.54003C1.61607 6.59503 1.63569 6.64003 1.64471 6.64003C1.65371 6.64003 1.66109 6.65815 1.66109 6.68031C1.66109 6.70245 1.67009 6.73845 1.68109 6.76031C1.69209 6.78215 1.71009 6.81791 1.72109 6.83975C1.73209 6.86161 1.74109 6.89707 1.74109 6.91857C1.74109 6.94007 1.75009 6.96323 1.76109 6.97003C1.77209 6.97683 1.78109 6.99985 1.78109 7.02121C1.78109 7.04257 1.79009 7.06003 1.80109 7.06003C1.81209 7.06003 1.82109 7.08199 1.82109 7.10885C1.82109 7.13571 1.83009 7.16323 1.84109 7.17003C1.85209 7.17683 1.86109 7.19985 1.86109 7.22121C1.86109 7.24257 1.86813 7.26003 1.87673 7.26003C1.88533 7.26003 1.90493 7.30279 1.92029 7.35503C1.94955 7.45461 2.01853 7.63447 2.07941 7.77003C2.09917 7.81403 2.12115 7.87415 2.12825 7.90363C2.13535 7.93311 2.15463 7.97071 2.17113 7.98721C2.18761 8.00369 2.20109 8.04031 2.20109 8.06861C2.20109 8.09689 2.21009 8.12003 2.22109 8.12003C2.23209 8.12003 2.24109 8.14703 2.24109 8.18003C2.24109 8.21303 2.25009 8.24003 2.26109 8.24003C2.27209 8.24003 2.28109 8.26253 2.28109 8.29003C2.28109 8.31753 2.29009 8.34003 2.30109 8.34003C2.31209 8.34003 2.32109 8.36253 2.32109 8.39003C2.32109 8.41753 2.33009 8.44003 2.34109 8.44003C2.35209 8.44003 2.36109 8.46253 2.36109 8.49003C2.36109 8.51753 2.37009 8.54003 2.38109 8.54003C2.39209 8.54003 2.40109 8.56703 2.40109 8.60003C2.40109 8.63303 2.41009 8.66003 2.42109 8.66003C2.43209 8.66003 2.44109 8.67803 2.44109 8.70003C2.44109 8.72203 2.45009 8.74003 2.46109 8.74003C2.47209 8.74003 2.48109 8.76703 2.48109 8.80003C2.48109 8.83303 2.49009 8.86003 2.50109 8.86003C2.51209 8.86003 2.52109 8.88703 2.52109 8.92003C2.52109 8.95303 2.53009 8.98003 2.54109 8.98003C2.55209 8.98003 2.56109 8.99803 2.56109 9.02003C2.56109 9.04203 2.57009 9.06003 2.58109 9.06003C2.59209 9.06003 2.60109 9.08703 2.60109 9.12003C2.60109 9.15303 2.61009 9.18003 2.62109 9.18003C2.63209 9.18003 2.64109 9.20253 2.64109 9.23003C2.64109 9.25753 2.65009 9.28003 2.66109 9.28003C2.67209 9.28003 2.68109 9.30199 2.68109 9.32885C2.68109 9.35571 2.69009 9.38323 2.70109 9.39003C2.71209 9.39683 2.72109 9.41985 2.72109 9.44121C2.72109 9.46257 2.73009 9.48003 2.74109 9.48003C2.75209 9.48003 2.76109 9.50703 2.76109 9.54003C2.76109 9.57303 2.76847 9.60003 2.77747 9.60003C2.78649 9.60003 2.80611 9.64503 2.82109 9.70003C2.83607 9.75503 2.85373 9.80003 2.86033 9.80003C2.86695 9.80003 2.88463 9.84279 2.89963 9.89503C2.91463 9.94729 2.93297 9.99903 2.94039 10.01C2.94781 10.021 2.96637 10.0705 2.98165 10.12C2.99691 10.1695 3.01433 10.2145 3.02035 10.22C3.02637 10.2255 3.04295 10.266 3.05719 10.31C3.07143 10.354 3.10443 10.4395 3.13053 10.5C3.15661 10.5605 3.20739 10.6865 3.24335 10.78C3.27931 10.8735 3.31601 10.953 3.32491 10.9567C3.33381 10.9604 3.34109 10.9896 3.34109 11.0217C3.34109 11.0538 3.35009 11.08 3.36109 11.08C3.37209 11.08 3.38109 11.1025 3.38109 11.13C3.38109 11.1575 3.39009 11.18 3.40109 11.18C3.41209 11.18 3.42109 11.1983 3.42109 11.2207C3.42109 11.2614 3.54297 11.4 3.57875 11.4C3.58921 11.4 3.60151 11.4113 3.60609 11.425C3.61273 11.4449 4.69353 11.45 8.92109 11.45C13.1487 11.45 14.2295 11.4449 14.2361 11.425C14.2407 11.4113 14.253 11.4 14.2634 11.4C14.2938 11.4 14.4211 11.2643 14.4211 11.2319C14.4211 11.2156 14.4301 11.1968 14.4411 11.19C14.4521 11.1832 14.4611 11.1557 14.4611 11.1288C14.4611 11.102 14.4701 11.08 14.4811 11.08C14.4921 11.08 14.5011 11.053 14.5011 11.02C14.5011 10.987 14.5101 10.96 14.5211 10.96C14.5321 10.96 14.5411 10.9375 14.5411 10.91C14.5411 10.8825 14.5501 10.86 14.5611 10.86C14.5721 10.86 14.5811 10.8375 14.5811 10.81C14.5811 10.7825 14.5901 10.76 14.6011 10.76C14.6121 10.76 14.6211 10.7375 14.6211 10.71C14.6211 10.6825 14.6301 10.66 14.6411 10.66C14.6521 10.66 14.6611 10.633 14.6611 10.6C14.6611 10.567 14.6701 10.54 14.6811 10.54C14.6921 10.54 14.7011 10.522 14.7011 10.5C14.7011 10.478 14.7101 10.46 14.7211 10.46C14.7321 10.46 14.7411 10.4419 14.7411 10.4197C14.7411 10.3976 14.749 10.3638 14.7588 10.3447C14.7685 10.3256 14.7877 10.283 14.8016 10.25C14.8439 10.149 14.8759 10.0724 14.8977 10.02C14.9091 9.99253 14.9303 9.93403 14.9447 9.89003C14.9591 9.84603 14.9755 9.80553 14.9811 9.80003C14.9867 9.79453 15.0031 9.75403 15.0175 9.71003C15.0319 9.66603 15.0521 9.60979 15.0624 9.58503C15.0727 9.56027 15.0912 9.51527 15.1034 9.48503C15.1157 9.45479 15.1337 9.41441 15.1434 9.39531C15.1532 9.37621 15.1611 9.34245 15.1611 9.32031C15.1611 9.29815 15.1701 9.28003 15.1811 9.28003C15.1921 9.28003 15.2011 9.25807 15.2011 9.23121C15.2011 9.20435 15.2101 9.17683 15.2211 9.17003C15.2321 9.16323 15.2411 9.13571 15.2411 9.10885C15.2411 9.08199 15.2485 9.06003 15.2575 9.06003C15.2665 9.06003 15.2861 9.01503 15.3011 8.96003C15.3161 8.90503 15.3357 8.86003 15.3447 8.86003C15.3537 8.86003 15.3611 8.83807 15.3611 8.81121C15.3611 8.78435 15.3701 8.75683 15.3811 8.75003C15.3921 8.74323 15.4011 8.72021 15.4011 8.69885C15.4011 8.67749 15.4101 8.66003 15.4211 8.66003C15.4321 8.66003 15.4411 8.63303 15.4411 8.60003C15.4411 8.56703 15.4501 8.54003 15.4611 8.54003C15.4721 8.54003 15.4811 8.51753 15.4811 8.49003C15.4811 8.46253 15.4901 8.44003 15.5011 8.44003C15.5121 8.44003 15.5211 8.41807 15.5211 8.39121C15.5211 8.36435 15.5301 8.33683 15.5411 8.33003C15.5521 8.32323 15.5611 8.30021 15.5611 8.27885C15.5611 8.25749 15.5701 8.24003 15.5811 8.24003C15.5921 8.24003 15.6011 8.21303 15.6011 8.18003C15.6011 8.14703 15.6101 8.12003 15.6211 8.12003C15.6321 8.12003 15.6411 8.09807 15.6411 8.07121C15.6411 8.04435 15.6501 8.01683 15.6611 8.01003C15.6721 8.00323 15.6811 7.98021 15.6811 7.95885C15.6811 7.93749 15.6901 7.92003 15.7011 7.92003C15.7121 7.92003 15.7211 7.89303 15.7211 7.86003C15.7211 7.82703 15.7301 7.80003 15.7411 7.80003C15.7521 7.80003 15.7611 7.78203 15.7611 7.76003C15.7611 7.73803 15.7701 7.72003 15.7811 7.72003C15.7921 7.72003 15.8011 7.69303 15.8011 7.66003C15.8011 7.62703 15.8101 7.60003 15.8211 7.60003C15.8321 7.60003 15.8411 7.58257 15.8411 7.56121C15.8411 7.53985 15.8483 7.51793 15.8571 7.51247C15.866 7.50703 15.8856 7.45699 15.9008 7.40129C15.9159 7.34561 15.9357 7.30003 15.9447 7.30003C15.9537 7.30003 15.9611 7.28683 15.9611 7.27071C15.9611 7.24231 15.9706 7.21753 16.0595 7.01525C16.0824 6.96311 16.1011 6.90739 16.1011 6.89143C16.1011 6.87545 16.1083 6.85793 16.1171 6.85247C16.126 6.84703 16.1456 6.79699 16.1608 6.74129C16.1759 6.68561 16.1941 6.64003 16.2011 6.64003C16.2081 6.64003 16.2261 6.59503 16.2411 6.54003C16.2561 6.48503 16.2757 6.44003 16.2847 6.44003C16.2937 6.44003 16.3011 6.41303 16.3011 6.38003C16.3011 6.34703 16.3101 6.32003 16.3211 6.32003C16.3321 6.32003 16.3411 6.30257 16.3411 6.28121C16.3411 6.25985 16.3501 6.23683 16.3611 6.23003C16.3721 6.22323 16.3811 6.19571 16.3811 6.16885C16.3811 6.14199 16.3901 6.12003 16.4011 6.12003C16.4121 6.12003 16.4211 6.09753 16.4211 6.07003C16.4211 6.04253 16.4301 6.02003 16.4411 6.02003C16.4521 6.02003 16.4611 5.99303 16.4611 5.96003C16.4611 5.92703 16.4701 5.90003 16.4811 5.90003C16.4921 5.90003 16.5011 5.88257 16.5011 5.86121C16.5011 5.83985 16.5101 5.81683 16.5211 5.81003C16.5321 5.80323 16.5411 5.77571 16.5411 5.74885C16.5411 5.72199 16.5501 5.70003 16.5611 5.70003C16.5721 5.70003 16.5811 5.67303 16.5811 5.64003C16.5811 5.60703 16.5901 5.58003 16.6011 5.58003C16.6121 5.58003 16.6211 5.56203 16.6211 5.54003C16.6211 5.51803 16.6301 5.50003 16.6411 5.50003C16.6521 5.50003 16.6611 5.47303 16.6611 5.44003C16.6611 5.40703 16.6701 5.38003 16.6811 5.38003C16.6921 5.38003 16.7011 5.35753 16.7011 5.33003C16.7011 5.30253 16.7101 5.28003 16.7211 5.28003C16.7321 5.28003 16.7411 5.25753 16.7411 5.23003C16.7411 5.20253 16.7501 5.18003 16.7611 5.18003C16.7721 5.18003 16.7811 5.15753 16.7811 5.13003C16.7811 5.10253 16.7901 5.08003 16.8011 5.08003C16.8121 5.08003 16.8211 5.05303 16.8211 5.02003C16.8211 4.98703 16.8301 4.96003 16.8411 4.96003C16.8521 4.96003 16.8611 4.93303 16.8611 4.90003C16.8611 4.86703 16.8701 4.84003 16.8811 4.84003C16.8921 4.84003 16.9011 4.82203 16.9011 4.80003C16.9011 4.77803 16.9101 4.76003 16.9211 4.76003C16.9321 4.76003 16.9411 4.73303 16.9411 4.70003C16.9411 4.66703 16.9479 4.64003 16.9562 4.64003C16.9715 4.64003 16.9961 4.58749 17.0403 4.46003C17.0537 4.42153 17.0761 4.36753 17.09 4.34003C17.104 4.31253 17.1276 4.24729 17.1426 4.19503C17.1576 4.14277 17.1752 4.10003 17.1819 4.10003C17.1885 4.10003 17.2061 4.05503 17.2211 4.00003C17.2361 3.94503 17.2537 3.90003 17.2603 3.90003C17.267 3.90003 17.2848 3.85729 17.3001 3.80503C17.3267 3.71383 17.3369 3.68813 17.3811 3.60031C17.3921 3.57845 17.4011 3.54245 17.4011 3.52031C17.4011 3.49815 17.4101 3.48003 17.4211 3.48003C17.4321 3.48003 17.4411 3.45807 17.4411 3.43121C17.4411 3.40435 17.4501 3.37683 17.4611 3.37003C17.4721 3.36323 17.4811 3.34021 17.4811 3.31885C17.4811 3.29749 17.4901 3.28003 17.5011 3.28003C17.5121 3.28003 17.5211 3.25303 17.5211 3.22003C17.5211 3.18703 17.5301 3.16003 17.5411 3.16003C17.5521 3.16003 17.5611 3.14257 17.5611 3.12121C17.5611 3.09985 17.5701 3.07683 17.5811 3.07003C17.5921 3.06323 17.6011 3.03571 17.6011 3.00885C17.6011 2.98199 17.6101 2.96003 17.6211 2.96003C17.6321 2.96003 17.6411 2.94191 17.6411 2.91975C17.6411 2.89761 17.6501 2.86161 17.6611 2.83975C17.6721 2.81791 17.6901 2.78215 17.7011 2.76031C17.7282 2.70647 17.7265 2.48743 17.6985 2.43525C17.6377 2.32151 17.5092 2.24003 17.3908 2.24003C17.3196 2.24003 17.2738 2.25627 17.1851 2.31289C17.1224 2.35295 17.0565 2.40245 17.0388 2.42289C17.021 2.44331 16.9953 2.46003 16.9818 2.46003C16.9682 2.46003 16.9319 2.48703 16.9011 2.52003C16.8703 2.55303 16.8326 2.58003 16.8175 2.58003C16.8023 2.58003 16.777 2.59803 16.7611 2.62003C16.7452 2.64203 16.7208 2.66003 16.7067 2.66003C16.6926 2.66003 16.6811 2.66903 16.6811 2.68003C16.6811 2.69103 16.6676 2.70003 16.6511 2.70003C16.6346 2.70003 16.6211 2.70903 16.6211 2.72003C16.6211 2.73103 16.6076 2.74003 16.5911 2.74003C16.5746 2.74003 16.5611 2.74691 16.5611 2.75531C16.5611 2.76371 16.5251 2.79283 16.4811 2.82003C16.4371 2.84723 16.4011 2.87575 16.4011 2.88341C16.4011 2.89107 16.3853 2.90235 16.3661 2.90847C16.3469 2.91459 16.3086 2.93993 16.2811 2.96481C16.2536 2.98969 16.1906 3.03703 16.1411 3.07001C16.0916 3.10301 16.0272 3.15475 15.9981 3.18501C15.9689 3.21527 15.9343 3.24003 15.9211 3.24003C15.9079 3.24003 15.8719 3.26703 15.8411 3.30003C15.8103 3.33303 15.7726 3.36003 15.7575 3.36003C15.7423 3.36003 15.717 3.37803 15.7011 3.40003C15.6852 3.42203 15.6582 3.44003 15.6411 3.44003C15.624 3.44003 15.597 3.45803 15.5811 3.48003C15.5652 3.50203 15.5408 3.52003 15.5267 3.52003C15.5126 3.52003 15.5011 3.52903 15.5011 3.54003C15.5011 3.55103 15.4922 3.56003 15.4813 3.56003C15.4628 3.56003 15.4104 3.59801 15.3503 3.65503C15.3358 3.66877 15.3166 3.68005 15.3075 3.68007C15.2985 3.68011 15.2596 3.70725 15.2211 3.74041C15.1826 3.77359 15.1151 3.82531 15.0711 3.85535C15.0271 3.88541 14.9672 3.93475 14.9381 3.96501C14.9089 3.99527 14.8726 4.02003 14.8575 4.02003C14.8423 4.02003 14.817 4.03803 14.8011 4.06003C14.7852 4.08203 14.7599 4.10003 14.7447 4.10003C14.7296 4.10003 14.6919 4.12703 14.6611 4.16003C14.6303 4.19303 14.5926 4.22003 14.5775 4.22003C14.5623 4.22003 14.537 4.23803 14.5211 4.26003C14.5052 4.28203 14.4808 4.30003 14.4667 4.30003C14.4526 4.30003 14.4411 4.30903 14.4411 4.32003C14.4411 4.33103 14.4276 4.34003 14.4111 4.34003C14.3946 4.34003 14.3811 4.34903 14.3811 4.36003C14.3811 4.37103 14.3676 4.38003 14.3511 4.38003C14.3346 4.38003 14.3211 4.38691 14.3211 4.39531C14.3211 4.40371 14.2851 4.43283 14.2411 4.46003C14.1971 4.48723 14.1611 4.51575 14.1611 4.52341C14.1611 4.53107 14.1453 4.54235 14.1261 4.54847C14.1069 4.55459 14.0686 4.57993 14.0411 4.60481C14.0136 4.62969 13.953 4.67587 13.9065 4.70745C13.86 4.73903 13.7949 4.79077 13.7617 4.82245C13.7286 4.85411 13.6915 4.88003 13.6793 4.88003C13.6671 4.88003 13.6319 4.90703 13.6011 4.94003C13.5703 4.97303 13.534 5.00003 13.5204 5.00003C13.5069 5.00003 13.4812 5.01585 13.4634 5.03517C13.4457 5.05449 13.4064 5.08301 13.3761 5.09855C13.3458 5.11407 13.3211 5.13427 13.3211 5.14341C13.3211 5.15255 13.3076 5.16003 13.2911 5.16003C13.2746 5.16003 13.2611 5.16903 13.2611 5.18003C13.2611 5.19103 13.2522 5.20003 13.2413 5.20003C13.2228 5.20003 13.1704 5.23801 13.1103 5.29503C13.0958 5.30879 13.0766 5.32005 13.0675 5.32007C13.0585 5.32011 13.0196 5.34725 12.9811 5.38041C12.9426 5.41359 12.8751 5.46531 12.8311 5.49535C12.7871 5.52541 12.7272 5.57475 12.6981 5.60501C12.6689 5.63527 12.6326 5.66003 12.6175 5.66003C12.6023 5.66003 12.577 5.67803 12.5611 5.70003C12.5452 5.72203 12.5199 5.74003 12.5047 5.74003C12.4896 5.74003 12.4519 5.76703 12.4211 5.80003C12.3564 5.86925 12.3411 5.87393 12.3411 5.82445C12.3411 5.80487 12.3231 5.77589 12.3011 5.76003C12.2791 5.74417 12.2611 5.71519 12.2611 5.69561C12.2611 5.67605 12.2521 5.66003 12.2411 5.66003C12.2301 5.66003 12.2211 5.64203 12.2211 5.62003C12.2211 5.59803 12.2121 5.58003 12.2011 5.58003C12.1901 5.58003 12.1811 5.56653 12.1811 5.55003C12.1811 5.53353 12.1744 5.51999 12.1661 5.51995C12.1578 5.51991 12.1286 5.47045 12.1011 5.41003C12.0736 5.34961 12.0444 5.30015 12.0361 5.30011C12.0278 5.30007 12.0211 5.28653 12.0211 5.27003C12.0211 5.25353 12.0121 5.24003 12.0011 5.24003C11.9901 5.24003 11.9811 5.22203 11.9811 5.20003C11.9811 5.17803 11.9721 5.16003 11.9611 5.16003C11.9501 5.16003 11.9411 5.14401 11.9411 5.12445C11.9411 5.10487 11.9231 5.07589 11.9011 5.06003C11.8791 5.04417 11.8611 5.01519 11.8611 4.99561C11.8611 4.97605 11.8521 4.96003 11.8411 4.96003C11.8301 4.96003 11.8211 4.94203 11.8211 4.92003C11.8211 4.89803 11.8143 4.88003 11.8061 4.88003C11.7978 4.88003 11.7688 4.83729 11.7416 4.78503C11.7143 4.73277 11.6874 4.68553 11.6816 4.68003C11.6701 4.66911 11.6454 4.62655 11.5548 4.46163C11.4934 4.34975 11.4169 4.22817 11.3814 4.18587C11.3702 4.17259 11.3611 4.14983 11.3611 4.13529C11.3611 4.12075 11.3431 4.09589 11.3211 4.08003C11.2991 4.06417 11.2811 4.03519 11.2811 4.01561C11.2811 3.99605 11.2721 3.98003 11.2611 3.98003C11.2501 3.98003 11.2411 3.96203 11.2411 3.94003C11.2411 3.91803 11.2321 3.90003 11.2211 3.90003C11.2101 3.90003 11.2011 3.88203 11.2011 3.86003C11.2011 3.83803 11.1921 3.82003 11.1811 3.82003C11.1701 3.82003 11.1611 3.80653 11.1611 3.79003C11.1611 3.77353 11.1521 3.76003 11.1411 3.76003C11.1301 3.76003 11.1211 3.74203 11.1211 3.72003C11.1211 3.69803 11.1121 3.68003 11.1011 3.68003C11.0901 3.68003 11.0811 3.66653 11.0811 3.65003C11.0811 3.63353 11.0721 3.62003 11.0611 3.62003C11.0501 3.62003 11.0411 3.60653 11.0411 3.59003C11.0411 3.57353 11.0321 3.56003 11.0211 3.56003C11.0101 3.56003 11.0011 3.54203 11.0011 3.52003C11.0011 3.49803 10.9921 3.48003 10.9811 3.48003C10.9701 3.48003 10.9611 3.46615 10.9611 3.44919C10.9611 3.43223 10.9431 3.39903 10.9211 3.37543C10.8991 3.35181 10.8811 3.32069 10.8811 3.30625C10.8811 3.29183 10.8721 3.28003 10.8611 3.28003C10.8501 3.28003 10.8411 3.26203 10.8411 3.24003C10.8411 3.21803 10.8344 3.19995 10.8261 3.19987C10.8178 3.19979 10.8012 3.17953 10.7891 3.15487C10.7475 3.07027 10.6711 2.93003 10.6611 2.92003C10.6556 2.91453 10.6376 2.88303 10.6211 2.85003C10.6046 2.81703 10.5866 2.78553 10.5811 2.78003C10.5756 2.77453 10.5493 2.72953 10.5226 2.68003C10.4959 2.63053 10.4678 2.58553 10.4602 2.58003C10.4526 2.57453 10.4224 2.52503 10.3931 2.47003C10.3638 2.41503 10.3138 2.32953 10.282 2.28003C10.2502 2.23053 10.2235 2.17879 10.2227 2.16503C10.2218 2.15129 10.2121 2.14003 10.2011 2.14003C10.1901 2.14003 10.1811 2.12653 10.1811 2.11003C10.1811 2.09353 10.1721 2.08003 10.1611 2.08003C10.1501 2.08003 10.1411 2.06203 10.1411 2.04003C10.1411 2.01803 10.1321 2.00003 10.1211 2.00003C10.1101 2.00003 10.1011 1.98401 10.1011 1.96445C10.1011 1.94487 10.0831 1.91589 10.0611 1.90003C10.0391 1.88417 10.0211 1.85519 10.0211 1.83561C10.0211 1.81605 10.0121 1.80003 10.0011 1.80003C9.99009 1.80003 9.98109 1.78203 9.98109 1.76003C9.98109 1.73803 9.97209 1.72003 9.96109 1.72003C9.95009 1.72003 9.94109 1.70401 9.94109 1.68445C9.94109 1.66487 9.92309 1.63589 9.90109 1.62003C9.87909 1.60417 9.86109 1.57519 9.86109 1.55561C9.86109 1.53605 9.85209 1.52003 9.84109 1.52003C9.83009 1.52003 9.82109 1.50203 9.82109 1.48003C9.82109 1.45803 9.81209 1.44003 9.80109 1.44003C9.79009 1.44003 9.78109 1.42653 9.78109 1.41003C9.78109 1.39353 9.77209 1.38003 9.76109 1.38003C9.75009 1.38003 9.74109 1.36203 9.74109 1.34003C9.74109 1.31803 9.73313 1.30003 9.72343 1.30003C9.71371 1.30003 9.70077 1.28429 9.69465 1.26503C9.67981 1.21823 9.61487 1.11171 9.59609 1.10337C9.58783 1.09969 9.58109 1.07945 9.58109 1.05837C9.58109 1.03727 9.57319 1.02003 9.56351 1.02003C9.55385 1.02003 9.53475 0.993029 9.52109 0.960029C9.50743 0.927029 9.48833 0.900029 9.47867 0.900029C9.46899 0.900029 9.46109 0.886149 9.46109 0.869189C9.46109 0.852229 9.45161 0.827469 9.44003 0.814189C9.42845 0.800909 9.37779 0.716269 9.32747 0.626129C9.22603 0.444469 9.12275 0.320029 9.07339 0.320029C9.05563 0.320029 9.04109 0.311029 9.04109 0.300029C9.04109 0.288909 8.98775 0.280029 8.92109 0.280029C8.85443 0.280029 8.80109 0.288909 8.80109 0.300029ZM8.88109 1.37003C8.88109 1.38653 8.87209 1.40003 8.86109 1.40003C8.85009 1.40003 8.84109 1.41803 8.84109 1.44003C8.84109 1.46203 8.83209 1.48003 8.82109 1.48003C8.81009 1.48003 8.80109 1.49803 8.80109 1.52003C8.80109 1.54203 8.79319 1.56003 8.78351 1.56003C8.77385 1.56003 8.75475 1.58703 8.74109 1.62003C8.72743 1.65303 8.70833 1.68003 8.69867 1.68003C8.68899 1.68003 8.68109 1.69803 8.68109 1.72003C8.68109 1.74203 8.67429 1.76003 8.66597 1.76003C8.65765 1.76003 8.63813 1.78929 8.62257 1.82503C8.60703 1.86077 8.58895 1.89453 8.58243 1.90003C8.57589 1.90553 8.54901 1.95279 8.52267 2.00503C8.49635 2.05727 8.46721 2.10003 8.45795 2.10003C8.44867 2.10003 8.44109 2.11803 8.44109 2.14003C8.44109 2.16203 8.43209 2.18003 8.42109 2.18003C8.41009 2.18003 8.40109 2.19803 8.40109 2.22003C8.40109 2.24203 8.39319 2.26003 8.38351 2.26003C8.37385 2.26003 8.35475 2.28703 8.34109 2.32003C8.32743 2.35303 8.30833 2.38003 8.29867 2.38003C8.28899 2.38003 8.28109 2.39727 8.28109 2.41837C8.28109 2.43945 8.27361 2.45969 8.26449 2.46337C8.25535 2.46703 8.21359 2.53303 8.17171 2.61003C8.12981 2.68703 8.08981 2.75453 8.08281 2.76003C8.07583 2.76553 8.04785 2.81277 8.02063 2.86503C7.99343 2.91729 7.96439 2.96003 7.95613 2.96003C7.94785 2.96003 7.94109 2.97605 7.94109 2.99561C7.94109 3.01519 7.92309 3.04417 7.90109 3.06003C7.87909 3.07589 7.86109 3.10487 7.86109 3.12445C7.86109 3.14401 7.85209 3.16003 7.84109 3.16003C7.83009 3.16003 7.82109 3.17803 7.82109 3.20003C7.82109 3.22203 7.81209 3.24003 7.80109 3.24003C7.79009 3.24003 7.78109 3.25605 7.78109 3.27561C7.78109 3.29519 7.76309 3.32417 7.74109 3.34003C7.71909 3.35589 7.70109 3.38487 7.70109 3.40445C7.70109 3.42401 7.69209 3.44003 7.68109 3.44003C7.67009 3.44003 7.66109 3.45803 7.66109 3.48003C7.66109 3.50203 7.65209 3.52003 7.64109 3.52003C7.63009 3.52003 7.62109 3.53353 7.62109 3.55003C7.62109 3.56653 7.61209 3.58003 7.60109 3.58003C7.59009 3.58003 7.58109 3.59803 7.58109 3.62003C7.58109 3.64203 7.57209 3.66003 7.56109 3.66003C7.55009 3.66003 7.54109 3.67391 7.54109 3.69087C7.54109 3.70783 7.52309 3.74103 7.50109 3.76463C7.47909 3.78825 7.46109 3.81937 7.46109 3.83381C7.46109 3.84823 7.45209 3.86003 7.44109 3.86003C7.43009 3.86003 7.42109 3.87803 7.42109 3.90003C7.42109 3.92203 7.41319 3.94003 7.40351 3.94003C7.39385 3.94003 7.37475 3.96703 7.36109 4.00003C7.34743 4.03303 7.32833 4.06003 7.31867 4.06003C7.30899 4.06003 7.30109 4.07803 7.30109 4.10003C7.30109 4.12203 7.29209 4.14003 7.28109 4.14003C7.27009 4.14003 7.26109 4.15729 7.26109 4.17837C7.26109 4.19945 7.25359 4.21969 7.24445 4.22337C7.23529 4.22703 7.20079 4.27953 7.16781 4.34003C7.07709 4.50635 7.05219 4.54907 7.03959 4.56003C7.03325 4.56553 7.01075 4.60153 6.98959 4.64003C6.96841 4.67853 6.94637 4.71453 6.94061 4.72003C6.93483 4.72553 6.90785 4.77277 6.88063 4.82503C6.85343 4.87729 6.82439 4.92003 6.81613 4.92003C6.80785 4.92003 6.80109 4.93803 6.80109 4.96003C6.80109 4.98203 6.79209 5.00003 6.78109 5.00003C6.77009 5.00003 6.76109 5.01353 6.76109 5.03003C6.76109 5.04653 6.75209 5.06003 6.74109 5.06003C6.73009 5.06003 6.72109 5.07353 6.72109 5.09003C6.72109 5.10653 6.71209 5.12003 6.70109 5.12003C6.69009 5.12003 6.68109 5.13803 6.68109 5.16003C6.68109 5.18203 6.67209 5.20003 6.66109 5.20003C6.65009 5.20003 6.64109 5.21353 6.64109 5.23003C6.64109 5.24653 6.63209 5.26003 6.62109 5.26003C6.61009 5.26003 6.60109 5.27803 6.60109 5.30003C6.60109 5.32203 6.59209 5.34003 6.58109 5.34003C6.57009 5.34003 6.56109 5.35803 6.56109 5.38003C6.56109 5.40203 6.55209 5.42003 6.54109 5.42003C6.53009 5.42003 6.52109 5.43183 6.52109 5.44625C6.52109 5.46069 6.50309 5.49181 6.48109 5.51543C6.45909 5.53903 6.44109 5.57223 6.44109 5.58919C6.44109 5.60615 6.43209 5.62003 6.42109 5.62003C6.41009 5.62003 6.40109 5.63605 6.40109 5.65561C6.40109 5.67519 6.38309 5.70417 6.36109 5.72003C6.33909 5.73589 6.32109 5.76487 6.32109 5.78445C6.32109 5.80401 6.31209 5.82003 6.30109 5.82003C6.29009 5.82003 6.28109 5.83803 6.28109 5.86003C6.28109 5.88203 6.27429 5.90003 6.26597 5.90003C6.25765 5.90003 6.23813 5.92927 6.22257 5.96503C6.20703 6.00079 6.18885 6.03453 6.18221 6.04003C6.17555 6.04553 6.14785 6.09277 6.12063 6.14503C6.09343 6.19729 6.06439 6.24003 6.05613 6.24003C6.04785 6.24003 6.04109 6.25803 6.04109 6.28003C6.04109 6.30203 6.03389 6.32003 6.02507 6.32003C6.01627 6.32003 5.98913 6.36107 5.96477 6.41121C5.94039 6.46135 5.91143 6.51311 5.90041 6.52621C5.82789 6.61233 5.80435 6.63377 5.74801 6.66503C5.71107 6.68553 5.64271 6.70003 5.58305 6.70003C5.49747 6.70003 5.46439 6.68807 5.37613 6.62529C5.31837 6.58417 5.26809 6.54367 5.26443 6.53529C5.26075 6.52689 5.24501 6.52003 5.22943 6.52003C5.21383 6.52003 5.20109 6.51103 5.20109 6.50003C5.20109 6.48903 5.18759 6.48003 5.17109 6.48003C5.15459 6.48003 5.14109 6.47103 5.14109 6.46003C5.14109 6.44903 5.12957 6.44003 5.11551 6.44003C5.10143 6.44003 5.07695 6.42203 5.06109 6.40003C5.04523 6.37803 5.02209 6.36003 5.00965 6.36003C4.99721 6.36003 4.95877 6.33303 4.92423 6.30003C4.88971 6.26703 4.85463 6.24001 4.84627 6.23999C4.83793 6.23995 4.79959 6.21297 4.76109 6.18003C4.72259 6.14709 4.68393 6.12011 4.67519 6.12007C4.66643 6.12005 4.63677 6.09753 4.60927 6.07003C4.58177 6.04253 4.55109 6.02003 4.54109 6.02003C4.53109 6.02003 4.50041 5.99753 4.47291 5.97003C4.44541 5.94253 4.41575 5.92001 4.40699 5.92001C4.39095 5.91999 4.30857 5.85639 4.22681 5.78091C4.20245 5.75843 4.17319 5.74003 4.16181 5.74003C4.15041 5.74003 4.14109 5.73103 4.14109 5.72003C4.14109 5.70903 4.12759 5.70003 4.11109 5.70003C4.09459 5.70003 4.08109 5.69103 4.08109 5.68003C4.08109 5.66903 4.06957 5.66003 4.05551 5.66003C4.04143 5.66003 4.01695 5.64203 4.00109 5.62003C3.98523 5.59803 3.96299 5.58001 3.95167 5.57999C3.94035 5.57995 3.89959 5.55297 3.86109 5.52003C3.82259 5.48709 3.78183 5.46011 3.77051 5.46007C3.75919 5.46005 3.73695 5.44203 3.72109 5.42003C3.70523 5.39803 3.68209 5.38003 3.66965 5.38003C3.65721 5.38003 3.61877 5.35303 3.58423 5.32003C3.54971 5.28703 3.51463 5.26001 3.50627 5.26001C3.49793 5.25999 3.46409 5.23767 3.43109 5.21039C3.34835 5.14203 3.33801 5.13421 3.28109 5.09717C3.25359 5.07929 3.21159 5.04785 3.18777 5.02733C3.08381 4.93779 3.05949 4.92003 3.04087 4.92003C3.02999 4.92003 3.02109 4.91103 3.02109 4.90003C3.02109 4.88903 3.00759 4.88003 2.99109 4.88003C2.97459 4.88003 2.96109 4.87103 2.96109 4.86003C2.96109 4.84903 2.94759 4.84003 2.93109 4.84003C2.91459 4.84003 2.90109 4.83103 2.90109 4.82003C2.90109 4.80903 2.88957 4.80003 2.87551 4.80003C2.86143 4.80003 2.83695 4.78203 2.82109 4.76003C2.80523 4.73803 2.78209 4.72003 2.76965 4.72003C2.75721 4.72003 2.71877 4.69303 2.68423 4.66003C2.64971 4.62703 2.61463 4.60001 2.60627 4.59999C2.59793 4.59995 2.55959 4.57297 2.52109 4.54003C2.48259 4.50709 2.44393 4.48011 2.43519 4.48007C2.42643 4.48005 2.39677 4.45753 2.36927 4.43003C2.34177 4.40253 2.31109 4.38003 2.30109 4.38003C2.29109 4.38003 2.26041 4.35753 2.23291 4.33003C2.20541 4.30253 2.17575 4.28001 2.16699 4.28001C2.15095 4.27999 2.06857 4.21639 1.98681 4.14091C1.96245 4.11843 1.93319 4.10003 1.92181 4.10003C1.91041 4.10003 1.90109 4.09103 1.90109 4.08003C1.90109 4.06903 1.88759 4.06003 1.87109 4.06003C1.85459 4.06003 1.84109 4.05103 1.84109 4.04003C1.84109 4.02903 1.82957 4.02003 1.81551 4.02003C1.80143 4.02003 1.77695 4.00203 1.76109 3.98003C1.74523 3.95803 1.72299 3.94001 1.71167 3.93999C1.70035 3.93995 1.65959 3.91297 1.62109 3.88003C1.58259 3.84709 1.54183 3.82011 1.53051 3.82007C1.51919 3.82005 1.49695 3.80203 1.48109 3.78003C1.46523 3.75803 1.44209 3.74003 1.42965 3.74003C1.41721 3.74003 1.37877 3.71303 1.34423 3.68003C1.30971 3.64703 1.26787 3.62003 1.25127 3.62003C1.21625 3.62003 1.21451 3.62789 1.23909 3.67531C1.24899 3.69441 1.28125 3.77303 1.31079 3.85003C1.34031 3.92703 1.38123 4.03053 1.40169 4.08003C1.42215 4.12953 1.45059 4.20603 1.46489 4.25003C1.47919 4.29403 1.49547 4.33453 1.50109 4.34003C1.50671 4.34553 1.52311 4.38603 1.53751 4.43003C1.56541 4.51511 1.59459 4.58807 1.62343 4.64475C1.63315 4.66385 1.64109 4.69761 1.64109 4.71975C1.64109 4.74191 1.64847 4.76003 1.65747 4.76003C1.66649 4.76003 1.68611 4.80503 1.70109 4.86003C1.71607 4.91503 1.73569 4.96003 1.74471 4.96003C1.75371 4.96003 1.76109 4.98703 1.76109 5.02003C1.76109 5.05303 1.77009 5.08003 1.78109 5.08003C1.79209 5.08003 1.80109 5.09749 1.80109 5.11885C1.80109 5.14021 1.81009 5.16323 1.82109 5.17003C1.83209 5.17683 1.84109 5.20435 1.84109 5.23121C1.84109 5.25807 1.85009 5.28003 1.86109 5.28003C1.87209 5.28003 1.88109 5.30253 1.88109 5.33003C1.88109 5.35753 1.89009 5.38003 1.90109 5.38003C1.91209 5.38003 1.92109 5.40199 1.92109 5.42885C1.92109 5.45571 1.93009 5.48323 1.94109 5.49003C1.95209 5.49683 1.96109 5.51985 1.96109 5.54121C1.96109 5.56257 1.97009 5.58003 1.98109 5.58003C1.99209 5.58003 2.00109 5.60703 2.00109 5.64003C2.00109 5.67303 2.01009 5.70003 2.02109 5.70003C2.03209 5.70003 2.04109 5.72199 2.04109 5.74885C2.04109 5.77571 2.05009 5.80323 2.06109 5.81003C2.07209 5.81683 2.08109 5.83985 2.08109 5.86121C2.08109 5.88257 2.09009 5.90003 2.10109 5.90003C2.11209 5.90003 2.12109 5.92703 2.12109 5.96003C2.12109 5.99303 2.13009 6.02003 2.14109 6.02003C2.15209 6.02003 2.16109 6.04253 2.16109 6.07003C2.16109 6.09753 2.17009 6.12003 2.18109 6.12003C2.19209 6.12003 2.20109 6.14253 2.20109 6.17003C2.20109 6.19753 2.21009 6.22003 2.22109 6.22003C2.23209 6.22003 2.24109 6.24253 2.24109 6.27003C2.24109 6.29753 2.25009 6.32003 2.26109 6.32003C2.27209 6.32003 2.28109 6.34703 2.28109 6.38003C2.28109 6.41303 2.29009 6.44003 2.30109 6.44003C2.31209 6.44003 2.32109 6.45803 2.32109 6.48003C2.32109 6.50203 2.32813 6.52003 2.33673 6.52003C2.34533 6.52003 2.36459 6.56277 2.37955 6.61503C2.39449 6.66729 2.42703 6.75503 2.45185 6.81003C2.52133 6.96395 2.58109 7.12243 2.58109 7.15269C2.58109 7.16773 2.58793 7.18003 2.59627 7.18003C2.60461 7.18003 2.63379 7.25203 2.66109 7.34003C2.68839 7.42803 2.71593 7.50003 2.72229 7.50003C2.72865 7.50003 2.74611 7.54503 2.76109 7.60003C2.77607 7.65503 2.79569 7.70003 2.80471 7.70003C2.81371 7.70003 2.82109 7.72199 2.82109 7.74885C2.82109 7.77571 2.83009 7.80323 2.84109 7.81003C2.85209 7.81683 2.86109 7.84435 2.86109 7.87121C2.86109 7.89807 2.86847 7.92003 2.87747 7.92003C2.88649 7.92003 2.90611 7.96503 2.92109 8.02003C2.93607 8.07503 2.95569 8.12003 2.96471 8.12003C2.97371 8.12003 2.98109 8.14703 2.98109 8.18003C2.98109 8.21303 2.99009 8.24003 3.00109 8.24003C3.01209 8.24003 3.02109 8.25803 3.02109 8.28003C3.02109 8.30203 3.03009 8.32003 3.04109 8.32003C3.05209 8.32003 3.06109 8.34703 3.06109 8.38003C3.06109 8.41303 3.07009 8.44003 3.08109 8.44003C3.09209 8.44003 3.10109 8.46253 3.10109 8.49003C3.10109 8.51753 3.11009 8.54003 3.12109 8.54003C3.13209 8.54003 3.14109 8.56253 3.14109 8.59003C3.14109 8.61753 3.15009 8.64003 3.16109 8.64003C3.17209 8.64003 3.18109 8.66199 3.18109 8.68885C3.18109 8.71571 3.19009 8.74323 3.20109 8.75003C3.21209 8.75683 3.22109 8.78435 3.22109 8.81121C3.22109 8.83807 3.23009 8.86003 3.24109 8.86003C3.25209 8.86003 3.26109 8.88703 3.26109 8.92003C3.26109 8.95303 3.27009 8.98003 3.28109 8.98003C3.29209 8.98003 3.30109 8.99803 3.30109 9.02003C3.30109 9.04203 3.31009 9.06003 3.32109 9.06003C3.33209 9.06003 3.34109 9.08703 3.34109 9.12003C3.34109 9.15303 3.35009 9.18003 3.36109 9.18003C3.37209 9.18003 3.38109 9.19803 3.38109 9.22003C3.38109 9.24203 3.39009 9.26003 3.40109 9.26003C3.41209 9.26003 3.42109 9.28703 3.42109 9.32003C3.42109 9.35303 3.43009 9.38003 3.44109 9.38003C3.45209 9.38003 3.46109 9.39623 3.46109 9.41603C3.46109 9.43583 3.46825 9.46057 3.47701 9.47103C3.48577 9.48147 3.50421 9.52603 3.51801 9.57003C3.53181 9.61403 3.56451 9.69953 3.59067 9.76003C3.61685 9.82053 3.65875 9.92403 3.68377 9.99003C3.70879 10.056 3.73513 10.119 3.74227 10.13C3.74943 10.141 3.76755 10.1928 3.78255 10.245C3.79755 10.2973 3.81685 10.34 3.82545 10.34C3.83405 10.34 3.84109 10.362 3.84109 10.3888C3.84109 10.4157 3.85009 10.4432 3.86109 10.45C3.87209 10.4568 3.88109 10.4798 3.88109 10.5012C3.88109 10.5226 3.89009 10.54 3.90109 10.54C3.91209 10.54 3.92109 10.567 3.92109 10.6C3.92109 10.633 3.93009 10.66 3.94109 10.66C3.95209 10.66 3.96109 10.678 3.96109 10.7C3.96109 10.7399 3.97443 10.74 8.92109 10.74C13.8678 10.74 13.8811 10.7399 13.8811 10.7C13.8811 10.678 13.8901 10.66 13.9011 10.66C13.9121 10.66 13.9211 10.633 13.9211 10.6C13.9211 10.567 13.9301 10.54 13.9411 10.54C13.9521 10.54 13.9611 10.5226 13.9611 10.5012C13.9611 10.4798 13.9701 10.4568 13.9811 10.45C13.9921 10.4432 14.0011 10.4157 14.0011 10.3888C14.0011 10.362 14.0101 10.34 14.0211 10.34C14.0321 10.34 14.0411 10.3219 14.0411 10.2997C14.0411 10.2776 14.049 10.2438 14.0588 10.2247C14.0876 10.1681 14.1168 10.0951 14.1447 10.01C14.1591 9.96603 14.1758 9.92553 14.1818 9.92003C14.1879 9.91453 14.2055 9.86953 14.2211 9.82003C14.2367 9.77053 14.2545 9.72553 14.2606 9.72003C14.2667 9.71453 14.2924 9.64873 14.3177 9.57381C14.3429 9.49889 14.3825 9.39539 14.4057 9.34381C14.4289 9.29223 14.4682 9.19171 14.4932 9.12043C14.5182 9.04917 14.5482 8.98767 14.5599 8.98377C14.5715 8.97989 14.5811 8.95045 14.5811 8.91837C14.5811 8.88629 14.5901 8.86003 14.6011 8.86003C14.6121 8.86003 14.6211 8.83753 14.6211 8.81003C14.6211 8.78253 14.6301 8.76003 14.6411 8.76003C14.6521 8.76003 14.6611 8.73303 14.6611 8.70003C14.6611 8.66703 14.6701 8.64003 14.6811 8.64003C14.6921 8.64003 14.7011 8.61753 14.7011 8.59003C14.7011 8.56253 14.7101 8.54003 14.7211 8.54003C14.7321 8.54003 14.7411 8.51753 14.7411 8.49003C14.7411 8.46253 14.7501 8.44003 14.7611 8.44003C14.7721 8.44003 14.7811 8.41303 14.7811 8.38003C14.7811 8.34703 14.7901 8.32003 14.8011 8.32003C14.8121 8.32003 14.8211 8.30203 14.8211 8.28003C14.8211 8.25803 14.8301 8.24003 14.8411 8.24003C14.8521 8.24003 14.8611 8.21303 14.8611 8.18003C14.8611 8.14703 14.8701 8.12003 14.8811 8.12003C14.8921 8.12003 14.9011 8.09753 14.9011 8.07003C14.9011 8.04253 14.9101 8.02003 14.9211 8.02003C14.9321 8.02003 14.9411 7.99753 14.9411 7.97003C14.9411 7.94253 14.9501 7.92003 14.9611 7.92003C14.9721 7.92003 14.9811 7.89807 14.9811 7.87121C14.9811 7.84435 14.9901 7.81683 15.0011 7.81003C15.0121 7.80323 15.0211 7.77571 15.0211 7.74885C15.0211 7.72199 15.0301 7.70003 15.0411 7.70003C15.0521 7.70003 15.0611 7.67807 15.0611 7.65121C15.0611 7.62435 15.0701 7.59683 15.0811 7.59003C15.0921 7.58323 15.1011 7.56021 15.1011 7.53885C15.1011 7.51749 15.1101 7.50003 15.1211 7.50003C15.1321 7.50003 15.1411 7.47303 15.1411 7.44003C15.1411 7.40703 15.1501 7.38003 15.1611 7.38003C15.1721 7.38003 15.1811 7.36203 15.1811 7.34003C15.1811 7.31803 15.1901 7.30003 15.2011 7.30003C15.2121 7.30003 15.2211 7.27303 15.2211 7.24003C15.2211 7.20703 15.2281 7.18003 15.2367 7.18003C15.2453 7.18003 15.2646 7.13729 15.2796 7.08503C15.2946 7.03277 15.3133 6.98103 15.3211 6.97003C15.3289 6.95903 15.3476 6.90729 15.3626 6.85503C15.3776 6.80279 15.3952 6.76003 15.4019 6.76003C15.4085 6.76003 15.4261 6.71503 15.4411 6.66003C15.4561 6.60503 15.4757 6.56003 15.4847 6.56003C15.4937 6.56003 15.5011 6.54683 15.5011 6.53071C15.5011 6.51459 15.5158 6.46733 15.5339 6.42571C15.5735 6.33409 15.5849 6.30539 15.6444 6.14503C15.67 6.07627 15.6977 6.02003 15.706 6.02003C15.7143 6.02003 15.7211 5.99303 15.7211 5.96003C15.7211 5.92703 15.7301 5.90003 15.7411 5.90003C15.7521 5.90003 15.7611 5.88203 15.7611 5.86003C15.7611 5.83803 15.7701 5.82003 15.7811 5.82003C15.7921 5.82003 15.8011 5.79303 15.8011 5.76003C15.8011 5.72703 15.8101 5.70003 15.8211 5.70003C15.8321 5.70003 15.8411 5.67303 15.8411 5.64003C15.8411 5.60703 15.8501 5.58003 15.8611 5.58003C15.8721 5.58003 15.8811 5.56257 15.8811 5.54121C15.8811 5.51985 15.8901 5.49683 15.9011 5.49003C15.9121 5.48323 15.9211 5.45571 15.9211 5.42885C15.9211 5.40199 15.9301 5.38003 15.9411 5.38003C15.9521 5.38003 15.9611 5.35753 15.9611 5.33003C15.9611 5.30253 15.9701 5.28003 15.9811 5.28003C15.9921 5.28003 16.0011 5.25303 16.0011 5.22003C16.0011 5.18703 16.0101 5.16003 16.0211 5.16003C16.0321 5.16003 16.0411 5.14203 16.0411 5.12003C16.0411 5.09803 16.0501 5.08003 16.0611 5.08003C16.0721 5.08003 16.0811 5.05303 16.0811 5.02003C16.0811 4.98703 16.0885 4.96003 16.0975 4.96003C16.1065 4.96003 16.1261 4.91503 16.1411 4.86003C16.1561 4.80503 16.1757 4.76003 16.1847 4.76003C16.1937 4.76003 16.2011 4.73303 16.2011 4.70003C16.2011 4.66703 16.2101 4.64003 16.2211 4.64003C16.2321 4.64003 16.2411 4.62257 16.2411 4.60121C16.2411 4.57985 16.2501 4.55683 16.2611 4.55003C16.2721 4.54323 16.2811 4.51623 16.2811 4.49003C16.2811 4.46383 16.2901 4.43683 16.3011 4.43003C16.3121 4.42323 16.3211 4.40021 16.3211 4.37885C16.3211 4.35749 16.3301 4.34003 16.3411 4.34003C16.3521 4.34003 16.3611 4.31303 16.3611 4.28003C16.3611 4.24703 16.3685 4.22003 16.3775 4.22003C16.3865 4.22003 16.4061 4.17503 16.4211 4.12003C16.4361 4.06503 16.4537 4.02003 16.4603 4.02003C16.467 4.02003 16.4846 3.97729 16.4996 3.92503C16.5146 3.87277 16.5323 3.82103 16.5388 3.81003C16.5546 3.78367 16.6004 3.65419 16.6008 3.63503C16.6014 3.60349 16.5583 3.62235 16.498 3.68003C16.4634 3.71303 16.425 3.74003 16.4125 3.74003C16.4001 3.74003 16.377 3.75803 16.3611 3.78003C16.3452 3.80203 16.3208 3.82003 16.3067 3.82003C16.2926 3.82003 16.2811 3.82903 16.2811 3.84003C16.2811 3.85103 16.2676 3.86003 16.2511 3.86003C16.2346 3.86003 16.2211 3.86903 16.2211 3.88003C16.2211 3.89103 16.2076 3.90003 16.1911 3.90003C16.1746 3.90003 16.1611 3.90903 16.1611 3.92003C16.1611 3.93103 16.1496 3.94003 16.1355 3.94003C16.1214 3.94003 16.097 3.95803 16.0811 3.98003C16.0652 4.00203 16.0408 4.02003 16.0267 4.02003C16.0126 4.02003 16.0011 4.02903 16.0011 4.04003C16.0011 4.05103 15.9876 4.06003 15.9711 4.06003C15.9546 4.06003 15.9411 4.06903 15.9411 4.08003C15.9411 4.09103 15.9317 4.10003 15.9202 4.10003C15.9087 4.10003 15.8776 4.12029 15.8512 4.14503C15.7795 4.21205 15.7534 4.23203 15.7014 4.25989C15.6754 4.27379 15.6328 4.30649 15.6067 4.33259C15.5806 4.35869 15.5511 4.38003 15.5411 4.38003C15.5311 4.38003 15.5004 4.40253 15.4729 4.43003C15.4454 4.45753 15.4158 4.48005 15.407 4.48007C15.3983 4.48011 15.3596 4.50709 15.3211 4.54003C15.2826 4.57297 15.2418 4.59995 15.2305 4.59999C15.2192 4.60001 15.197 4.61803 15.1811 4.64003C15.1652 4.66203 15.1408 4.68003 15.1267 4.68003C15.1126 4.68003 15.1011 4.68903 15.1011 4.70003C15.1011 4.71103 15.0896 4.72003 15.0755 4.72003C15.0614 4.72003 15.037 4.73803 15.0211 4.76003C15.0052 4.78203 14.9808 4.80003 14.9667 4.80003C14.9526 4.80003 14.9411 4.80903 14.9411 4.82003C14.9411 4.83103 14.9276 4.84003 14.9111 4.84003C14.8946 4.84003 14.8811 4.84903 14.8811 4.86003C14.8811 4.87103 14.8676 4.88003 14.8511 4.88003C14.8346 4.88003 14.8211 4.88903 14.8211 4.90003C14.8211 4.91103 14.8115 4.92003 14.7997 4.92003C14.7879 4.92003 14.7669 4.93127 14.753 4.94503C14.7391 4.95879 14.703 4.98803 14.6728 5.01003C14.6426 5.03203 14.6014 5.06353 14.5813 5.08003C14.5613 5.09653 14.5252 5.12353 14.5011 5.14003C14.4771 5.15653 14.4335 5.19027 14.4042 5.21501C14.375 5.23975 14.3443 5.25999 14.3359 5.26001C14.3276 5.26001 14.2925 5.28703 14.258 5.32003C14.2234 5.35303 14.185 5.38003 14.1725 5.38003C14.1601 5.38003 14.137 5.39803 14.1211 5.42003C14.1052 5.44203 14.0808 5.46003 14.0667 5.46003C14.0526 5.46003 14.0411 5.46903 14.0411 5.48003C14.0411 5.49103 14.0276 5.50003 14.0111 5.50003C13.9946 5.50003 13.9811 5.50903 13.9811 5.52003C13.9811 5.53103 13.9676 5.54003 13.9511 5.54003C13.9346 5.54003 13.9211 5.54903 13.9211 5.56003C13.9211 5.57103 13.9096 5.58003 13.8955 5.58003C13.8814 5.58003 13.857 5.59803 13.8411 5.62003C13.8252 5.64203 13.8008 5.66003 13.7867 5.66003C13.7726 5.66003 13.7611 5.66903 13.7611 5.68003C13.7611 5.69103 13.7476 5.70003 13.7311 5.70003C13.7146 5.70003 13.7011 5.70903 13.7011 5.72003C13.7011 5.73103 13.6917 5.74003 13.6802 5.74003C13.6687 5.74003 13.6376 5.76027 13.6112 5.78503C13.5395 5.85205 13.5134 5.87203 13.4614 5.89989C13.4354 5.91379 13.3928 5.94649 13.3667 5.97259C13.3406 5.99869 13.3116 6.02003 13.3023 6.02003C13.293 6.02003 13.2564 6.04703 13.2211 6.08003C13.1858 6.11303 13.1502 6.14003 13.1421 6.14003C13.134 6.14003 13.1012 6.16251 13.0692 6.19001C13.0372 6.21749 13.0018 6.23999 12.9905 6.24001C12.9792 6.24001 12.957 6.25803 12.9411 6.28003C12.9252 6.30203 12.9008 6.32003 12.8867 6.32003C12.8726 6.32003 12.8611 6.32903 12.8611 6.34003C12.8611 6.35103 12.8496 6.36003 12.8355 6.36003C12.8214 6.36003 12.797 6.37803 12.7811 6.40003C12.7652 6.42203 12.7408 6.44003 12.7267 6.44003C12.7126 6.44003 12.7011 6.44903 12.7011 6.46003C12.7011 6.47103 12.6876 6.48003 12.6711 6.48003C12.6546 6.48003 12.6411 6.48903 12.6411 6.50003C12.6411 6.51103 12.6276 6.52003 12.6111 6.52003C12.5946 6.52003 12.5811 6.52717 12.5811 6.53589C12.5811 6.54463 12.5363 6.57837 12.4815 6.61089C12.4267 6.64341 12.3817 6.67677 12.3815 6.68503C12.3813 6.69329 12.3294 6.69963 12.2661 6.69917C12.1421 6.69823 12.0131 6.64143 11.9727 6.56999C11.9608 6.54895 11.9404 6.52003 11.9274 6.50575C11.9144 6.49147 11.898 6.46185 11.8911 6.43991C11.8841 6.41797 11.87 6.40003 11.8598 6.40003C11.8495 6.40003 11.8411 6.38203 11.8411 6.36003C11.8411 6.33803 11.8321 6.32003 11.8211 6.32003C11.8101 6.32003 11.8011 6.30615 11.8011 6.28919C11.8011 6.27223 11.7831 6.23903 11.7611 6.21543C11.7391 6.19181 11.7211 6.16069 11.7211 6.14625C11.7211 6.13183 11.7121 6.12003 11.7011 6.12003C11.6901 6.12003 11.6811 6.10203 11.6811 6.08003C11.6811 6.05803 11.6738 6.04003 11.6648 6.04003C11.6559 6.04003 11.6362 6.00853 11.6211 5.97003C11.606 5.93153 11.5863 5.90003 11.5774 5.90003C11.5684 5.90003 11.5611 5.88203 11.5611 5.86003C11.5611 5.83803 11.5521 5.82003 11.5411 5.82003C11.5301 5.82003 11.5211 5.80401 11.5211 5.78445C11.5211 5.76487 11.5031 5.73589 11.4811 5.72003C11.4591 5.70417 11.4411 5.67519 11.4411 5.65561C11.4411 5.63605 11.4321 5.62003 11.4211 5.62003C11.4101 5.62003 11.4011 5.60401 11.4011 5.58445C11.4011 5.56487 11.3831 5.53589 11.3611 5.52003C11.3391 5.50417 11.3211 5.47519 11.3211 5.45561C11.3211 5.43605 11.3121 5.42003 11.3011 5.42003C11.2901 5.42003 11.2811 5.40203 11.2811 5.38003C11.2811 5.35803 11.2721 5.34003 11.2611 5.34003C11.2501 5.34003 11.2411 5.32203 11.2411 5.30003C11.2411 5.27803 11.2321 5.26003 11.2211 5.26003C11.2101 5.26003 11.2011 5.24653 11.2011 5.23003C11.2011 5.21353 11.1939 5.20003 11.185 5.20003C11.1762 5.20003 11.147 5.15517 11.12 5.10035C11.0931 5.04551 11.0657 5.00051 11.0591 5.00035C11.0526 5.00017 11.0309 4.96403 11.0111 4.92003C10.9913 4.87603 10.9674 4.84003 10.9581 4.84003C10.9487 4.84003 10.9411 4.82203 10.9411 4.80003C10.9411 4.77803 10.9332 4.76003 10.9235 4.76003C10.9139 4.76003 10.8948 4.73303 10.8811 4.70003C10.8674 4.66703 10.8483 4.64003 10.8387 4.64003C10.829 4.64003 10.8211 4.62203 10.8211 4.60003C10.8211 4.57803 10.8144 4.55995 10.8061 4.55987C10.7978 4.55979 10.7812 4.53953 10.7691 4.51487C10.71 4.39451 10.6496 4.28935 10.6361 4.28337C10.6278 4.27969 10.6211 4.26395 10.6211 4.24837C10.6211 4.23277 10.6121 4.22003 10.6011 4.22003C10.5901 4.22003 10.5811 4.20203 10.5811 4.18003C10.5811 4.15803 10.5721 4.14003 10.5611 4.14003C10.5501 4.14003 10.5411 4.12401 10.5411 4.10445C10.5411 4.08487 10.5231 4.05589 10.5011 4.04003C10.4791 4.02417 10.4611 3.99519 10.4611 3.97561C10.4611 3.95605 10.4521 3.94003 10.4411 3.94003C10.4301 3.94003 10.4211 3.92203 10.4211 3.90003C10.4211 3.87803 10.4121 3.86003 10.4011 3.86003C10.3901 3.86003 10.3811 3.84823 10.3811 3.83381C10.3811 3.81937 10.3631 3.78825 10.3411 3.76463C10.3191 3.74103 10.3011 3.70783 10.3011 3.69087C10.3011 3.67391 10.2921 3.66003 10.2811 3.66003C10.2701 3.66003 10.2611 3.64203 10.2611 3.62003C10.2611 3.59803 10.2521 3.58003 10.2411 3.58003C10.2301 3.58003 10.2211 3.56653 10.2211 3.55003C10.2211 3.53353 10.2121 3.52003 10.2011 3.52003C10.1901 3.52003 10.1811 3.50203 10.1811 3.48003C10.1811 3.45803 10.1721 3.44003 10.1611 3.44003C10.1501 3.44003 10.1411 3.42401 10.1411 3.40445C10.1411 3.38487 10.1231 3.35589 10.1011 3.34003C10.0791 3.32417 10.0611 3.29519 10.0611 3.27561C10.0611 3.25605 10.0539 3.24003 10.0451 3.24003C10.0363 3.24003 10.0091 3.19899 9.98477 3.14885C9.96039 3.09871 9.93131 3.04695 9.92011 3.03385C9.88141 2.98859 9.68215 2.64539 9.61315 2.50519C9.60103 2.48053 9.58435 2.46027 9.57609 2.46019C9.56783 2.46011 9.56109 2.44203 9.56109 2.42003C9.56109 2.39803 9.55319 2.38003 9.54351 2.38003C9.53385 2.38003 9.51475 2.35303 9.50109 2.32003C9.48743 2.28703 9.46833 2.26003 9.45867 2.26003C9.44899 2.26003 9.44109 2.24203 9.44109 2.22003C9.44109 2.19803 9.43209 2.18003 9.42109 2.18003C9.41009 2.18003 9.40109 2.16615 9.40109 2.14919C9.40109 2.13223 9.38309 2.09903 9.36109 2.07543C9.33909 2.05181 9.32109 2.02069 9.32109 2.00625C9.32109 1.99183 9.31209 1.98003 9.30109 1.98003C9.29009 1.98003 9.28109 1.96203 9.28109 1.94003C9.28109 1.91803 9.27209 1.90003 9.26109 1.90003C9.25009 1.90003 9.24109 1.88653 9.24109 1.87003C9.24109 1.85353 9.23209 1.84003 9.22109 1.84003C9.21009 1.84003 9.20109 1.82203 9.20109 1.80003C9.20109 1.77803 9.19209 1.76003 9.18109 1.76003C9.17009 1.76003 9.16109 1.74203 9.16109 1.72003C9.16109 1.69803 9.15209 1.68003 9.14109 1.68003C9.13009 1.68003 9.12109 1.66401 9.12109 1.64445C9.12109 1.62487 9.10309 1.59589 9.08109 1.58003C9.05909 1.56417 9.04109 1.53519 9.04109 1.51561C9.04109 1.49605 9.03209 1.48003 9.02109 1.48003C9.01009 1.48003 9.00109 1.46203 9.00109 1.44003C9.00109 1.41803 8.99209 1.40003 8.98109 1.40003C8.97009 1.40003 8.96109 1.38653 8.96109 1.37003C8.96109 1.35337 8.94331 1.34003 8.92109 1.34003C8.89887 1.34003 8.88109 1.35337 8.88109 1.37003ZM3.67109 12.0785C3.55359 12.107 3.46109 12.1731 3.46109 12.2286C3.46109 12.2459 3.45209 12.26 3.44109 12.26C3.43009 12.26 3.42109 12.287 3.42109 12.32C3.42109 12.353 3.41209 12.38 3.40109 12.38C3.39009 12.38 3.38109 12.398 3.38109 12.42C3.38109 12.442 3.39009 12.46 3.40109 12.46C3.41209 12.46 3.42109 12.4873 3.42109 12.5207C3.42109 12.5827 3.50819 12.6903 3.59683 12.7377C3.66081 12.772 14.1855 12.7693 14.2451 12.735C14.3324 12.6848 14.4211 12.5817 14.4211 12.5304C14.4211 12.5024 14.4323 12.4604 14.4461 12.4371C14.4661 12.4033 14.4661 12.393 14.4461 12.3857C14.4323 12.3808 14.4211 12.3504 14.4211 12.3184C14.4211 12.2863 14.4121 12.26 14.4011 12.26C14.3901 12.26 14.3811 12.2459 14.3811 12.2286C14.3811 12.1871 14.3481 12.1569 14.2511 12.1093C14.1723 12.0706 14.0938 12.07 8.95109 12.067C6.08009 12.0653 3.70409 12.0705 3.67109 12.0785Z" fill="#040404"/>
</g>
<defs>
<clipPath id="clip0_920_6834">
<rect width="18" height="13" fill="white"/>
</clipPath>
</defs>
</svg>
