<svg xmlns="http://www.w3.org/2000/svg" width="600" height="600" viewBox="0 0 600 600" version="1.1"><path d="" stroke="none" fill="#080404" fill-rule="evenodd"/><path d="M 529.500 72.805 C 527.300 73.833, 522.350 75.707, 518.500 76.970 C 514.650 78.233, 511.050 79.599, 510.500 80.006 C 509.950 80.413, 505.675 82.129, 501 83.820 C 496.325 85.511, 488.225 88.539, 483 90.548 C 477.775 92.558, 469.900 95.523, 465.500 97.136 C 461.100 98.750, 456.150 100.676, 454.500 101.417 C 452.850 102.158, 449.700 103.329, 447.500 104.019 C 445.300 104.710, 441.700 106.105, 439.500 107.121 C 437.300 108.136, 432.350 110.073, 428.500 111.425 C 424.650 112.778, 417.225 115.534, 412 117.550 C 406.775 119.566, 398.450 122.712, 393.500 124.540 C 388.550 126.369, 379.775 129.723, 374 131.993 C 368.225 134.264, 360.125 137.290, 356 138.717 C 351.875 140.144, 348.275 141.579, 348 141.906 C 347.725 142.233, 344.125 143.693, 340 145.152 C 326.876 149.793, 315.564 154.003, 313.500 155.015 C 312.400 155.555, 307.900 157.321, 303.500 158.940 C 299.100 160.559, 291.225 163.503, 286 165.482 C 280.775 167.460, 272.675 170.477, 268 172.185 C 263.325 173.892, 259.050 175.615, 258.500 176.012 C 257.950 176.409, 254.350 177.753, 250.500 178.998 C 246.650 180.244, 242.375 181.870, 241 182.611 C 239.625 183.353, 235.350 185.067, 231.500 186.420 C 227.650 187.774, 220.225 190.531, 215 192.548 C 209.775 194.565, 201.450 197.722, 196.500 199.563 C 191.550 201.404, 183.225 204.551, 178 206.556 C 172.775 208.562, 164.900 211.515, 160.500 213.118 C 156.100 214.722, 151.600 216.466, 150.500 216.994 C 148.469 217.969, 140.943 220.835, 126.500 226.135 C 122.100 227.749, 117.082 229.729, 115.349 230.535 C 113.616 231.341, 111.872 232, 111.473 232 C 111.074 232, 106.867 233.536, 102.124 235.414 C 97.381 237.292, 87.200 241.169, 79.500 244.030 C 71.800 246.891, 64.150 249.835, 62.500 250.573 C 60.850 251.310, 57.025 252.844, 54 253.983 C 47.353 256.484, 44.173 259.058, 40.387 265 C 37.890 268.920, 37.519 270.467, 37.510 277 C 37.501 283.847, 37.792 284.940, 40.855 289.552 C 46.239 297.661, 46.461 297.774, 77.500 308.067 C 87.400 311.350, 96.400 314.439, 97.500 314.931 C 98.600 315.422, 108.050 318.584, 118.500 321.957 C 128.950 325.330, 138.400 328.513, 139.500 329.031 C 140.600 329.549, 144.836 330.998, 148.913 332.252 L 156.327 334.532 158.109 340.516 C 159.089 343.807, 162.205 353.025, 165.034 361 C 172.763 382.793, 175.799 391.585, 179.019 401.500 C 180.627 406.450, 182.368 411.222, 182.889 412.104 C 183.409 412.986, 184.971 417.261, 186.359 421.604 C 187.748 425.947, 190.732 434.675, 192.992 441 C 195.251 447.325, 198.405 456.325, 200.001 461 C 201.597 465.675, 204.440 474, 206.319 479.500 C 211.641 495.078, 214.279 500.265, 218.608 503.659 C 224.922 508.610, 227.096 509.397, 234.533 509.421 C 243.310 509.450, 245.889 508.014, 262.596 493.795 C 269.248 488.133, 276.876 481.700, 279.547 479.500 C 284.297 475.587, 296.870 464.942, 304.164 458.657 C 306.179 456.921, 309.554 454.077, 311.664 452.338 C 313.774 450.598, 318.476 446.661, 322.113 443.588 C 325.750 440.514, 329.030 438, 329.402 438 C 329.773 438, 334.731 441.713, 340.419 446.250 C 346.107 450.788, 357.367 459.675, 365.442 466 C 373.518 472.325, 381.163 478.400, 382.432 479.500 C 383.701 480.600, 387.104 483.300, 389.995 485.500 C 392.885 487.700, 399.189 492.650, 404.002 496.500 C 408.816 500.350, 414.470 504.850, 416.567 506.500 C 418.664 508.150, 422.042 510.850, 424.072 512.500 C 440.456 525.812, 446.142 529, 453.500 529 C 460.176 529, 468.280 524.864, 472.609 519.248 C 476.596 514.075, 479.065 504.080, 489.094 452.500 C 490.698 444.250, 492.426 436.375, 492.933 435 C 493.440 433.625, 494.819 426.875, 495.996 420 C 497.174 413.125, 498.547 406.600, 499.048 405.500 C 499.548 404.400, 501.137 396.975, 502.578 389 C 504.019 381.025, 505.395 374.179, 505.635 373.786 C 506.036 373.133, 509.647 355.783, 514.957 329 C 516.102 323.225, 518.134 313.550, 519.474 307.500 C 521.824 296.884, 524.155 285.630, 529.932 257 C 531.430 249.575, 532.944 242.825, 533.296 242 C 533.648 241.175, 535.272 233.525, 536.905 225 C 538.537 216.475, 541.438 202.075, 543.350 193 C 550.881 157.265, 554.269 140.904, 557.017 127 C 558.593 119.025, 560.631 109.605, 561.546 106.067 C 565.119 92.250, 561.527 81.053, 551.500 74.752 C 545.084 70.721, 535.733 69.893, 529.500 72.805 M 530.935 94.004 C 512.460 100.763, 490.107 109.225, 486 111.014 C 480.940 113.219, 470.938 116.966, 460.500 120.567 C 456.650 121.896, 452.684 123.458, 451.687 124.039 C 450.689 124.621, 446.189 126.446, 441.687 128.096 C 430.211 132.300, 417.128 137.225, 406 141.528 C 400.775 143.549, 392.675 146.551, 388 148.199 C 383.325 149.847, 379.050 151.542, 378.500 151.965 C 377.950 152.388, 374.350 153.754, 370.500 155 C 366.650 156.246, 363.050 157.597, 362.500 158 C 361.950 158.404, 357.675 160.110, 353 161.792 C 348.325 163.474, 340.225 166.487, 335 168.489 C 329.775 170.491, 322.125 173.397, 318 174.946 C 313.875 176.495, 305.550 179.672, 299.500 182.005 C 293.450 184.338, 285.125 187.455, 281 188.931 C 276.875 190.407, 272.600 192.091, 271.500 192.673 C 270.400 193.256, 266.350 194.752, 262.500 195.999 C 258.650 197.246, 255.050 198.618, 254.500 199.048 C 253.950 199.478, 250.575 200.792, 247 201.968 C 243.425 203.144, 239.673 204.561, 238.663 205.116 C 237.652 205.672, 232.702 207.624, 227.663 209.455 C 222.623 211.286, 214.225 214.435, 209 216.452 C 203.775 218.469, 195.733 221.432, 191.130 223.037 C 186.526 224.641, 182.251 226.355, 181.630 226.844 C 181.008 227.333, 177.350 228.754, 173.500 230 C 169.650 231.246, 166.050 232.597, 165.500 233.001 C 164.950 233.405, 160.675 234.996, 156 236.537 C 151.325 238.078, 147.029 239.691, 146.453 240.123 C 145.878 240.554, 141.603 242.299, 136.953 243.999 C 124.562 248.531, 111.769 253.321, 101 257.461 C 95.775 259.469, 87.689 262.472, 83.030 264.133 C 78.372 265.794, 74.098 267.457, 73.534 267.827 C 72.969 268.197, 69.396 269.625, 65.594 271 C 58.047 273.729, 55.816 275.894, 57.608 278.750 C 58.268 279.800, 65.262 282.729, 75.103 286.076 C 84.122 289.143, 92.175 291.922, 93 292.251 C 93.825 292.580, 98.775 294.251, 104 295.964 C 112.841 298.864, 119.016 300.872, 139.500 307.513 C 143.900 308.939, 149.750 310.975, 152.500 312.036 C 162.596 315.933, 161.716 316.145, 183.533 304.557 C 194.515 298.723, 204.625 293.303, 206 292.511 C 207.375 291.720, 210.975 289.766, 214 288.169 C 217.025 286.572, 222.650 283.564, 226.500 281.485 C 230.350 279.405, 236.425 276.198, 240 274.357 C 243.575 272.516, 247.175 270.582, 248 270.059 C 248.825 269.536, 262.325 262.308, 278 253.998 C 293.675 245.687, 307.625 238.212, 309 237.385 C 310.375 236.558, 313.750 234.753, 316.500 233.374 C 319.250 231.994, 324.650 229.116, 328.500 226.977 C 332.350 224.839, 338.200 221.745, 341.500 220.102 C 344.800 218.459, 359.200 210.759, 373.500 202.991 C 387.800 195.223, 402.200 187.499, 405.500 185.828 C 408.800 184.157, 414.650 181.056, 418.500 178.938 C 431.748 171.649, 435.510 170.020, 439.115 170.010 C 445.959 169.991, 450.664 176.791, 448.110 183.010 C 447.548 184.380, 444.481 188.263, 441.294 191.641 C 431.671 201.840, 409.133 225.636, 398.426 236.901 C 392.885 242.730, 384.088 252, 378.877 257.500 C 357.586 279.970, 349.475 288.526, 349 289.017 C 345.615 292.517, 327.088 312.081, 314.480 325.468 C 305.691 334.801, 296.925 344.065, 295 346.054 C 284.348 357.063, 275 367.278, 275 367.907 C 275 368.630, 281.610 374.002, 312 397.979 C 321.075 405.139, 331.875 413.713, 336 417.034 C 340.125 420.354, 346.425 425.335, 350 428.102 C 353.575 430.870, 358.010 434.341, 359.856 435.817 C 361.701 437.293, 364.916 439.850, 367 441.500 C 369.084 443.150, 372.299 445.696, 374.144 447.158 C 375.990 448.620, 380.425 452.123, 384 454.942 C 387.575 457.762, 391.689 461.066, 393.142 462.284 C 394.595 463.503, 398.130 466.300, 400.998 468.500 C 403.867 470.700, 409.909 475.425, 414.426 479 C 418.942 482.575, 424.367 486.850, 426.480 488.500 C 428.594 490.150, 432.266 493.075, 434.640 495 C 449.053 506.683, 451.294 508.250, 453.596 508.250 C 454.964 508.250, 456.351 507.982, 456.679 507.654 C 457.293 507.040, 459.435 497.157, 465.442 467.228 C 467.349 457.729, 469.110 449.629, 469.356 449.228 C 469.601 448.828, 470.981 441.975, 472.422 434 C 473.863 426.025, 475.453 418.600, 475.956 417.500 C 476.459 416.400, 478.041 408.750, 479.472 400.500 C 480.903 392.250, 482.468 384.600, 482.949 383.500 C 483.431 382.400, 484.549 377.450, 485.434 372.500 C 486.319 367.550, 488.149 358.550, 489.502 352.500 C 490.854 346.450, 492.897 336.775, 494.043 331 C 499.413 303.917, 502.966 286.864, 503.375 286.202 C 503.622 285.803, 504.794 280.082, 505.979 273.488 C 507.165 266.895, 509.224 256.775, 510.555 251 C 512.965 240.547, 514.409 233.600, 519.914 206 C 521.504 198.025, 523.086 190.806, 523.430 189.958 C 523.773 189.110, 525.357 181.685, 526.949 173.458 C 531.174 151.621, 536.753 124.730, 537.416 123 C 538.659 119.762, 542.861 94.801, 542.376 93.538 C 541.449 91.122, 538.483 91.242, 530.935 94.004 M 375 225.052 C 368.125 228.848, 361.938 231.964, 361.250 231.977 C 360.563 231.989, 360 232.383, 360 232.852 C 360 233.321, 356.962 235.147, 353.250 236.912 C 349.538 238.676, 344.925 241.049, 343 242.185 C 341.075 243.320, 335.450 246.375, 330.500 248.972 C 306.016 261.819, 298.187 265.983, 282.500 274.506 C 273.150 279.586, 263.700 284.655, 261.500 285.771 C 259.300 286.887, 254.575 289.411, 251 291.379 C 247.425 293.348, 241.800 296.360, 238.500 298.074 C 235.200 299.787, 229.350 302.870, 225.500 304.925 C 221.650 306.980, 216.925 309.486, 215 310.494 C 208.029 314.145, 176.493 331.195, 176.213 331.464 C 176.056 331.616, 176.883 334.161, 178.051 337.120 C 180.132 342.389, 181.289 345.718, 188.438 367 C 190.378 372.775, 192.414 378.400, 192.962 379.500 C 193.511 380.600, 195.050 384.875, 196.382 389 C 197.714 393.125, 201.954 405.500, 205.805 416.500 C 209.655 427.500, 215.699 444.780, 219.236 454.901 L 225.666 473.301 227.387 464.401 C 228.333 459.505, 229.731 453.475, 230.494 451 C 231.256 448.525, 232.835 441.550, 234.001 435.500 C 235.167 429.450, 236.562 423.089, 237.101 421.364 C 237.639 419.639, 239.364 412.214, 240.935 404.864 C 246.424 379.167, 249.064 367.709, 249.779 366.475 C 250.420 365.369, 263.479 350.960, 271.500 342.507 C 277.338 336.356, 312.684 298.626, 316.500 294.472 C 319.858 290.818, 331.903 278.024, 341.450 267.971 C 346.428 262.730, 356.350 252.163, 363.500 244.489 C 370.650 236.816, 377.658 229.404, 379.073 228.018 C 382.113 225.043, 388.362 217.967, 387.854 218.075 C 387.659 218.116, 381.875 221.256, 375 225.052 M 263.200 397.293 C 262.029 402.907, 259.479 414.475, 257.534 423 C 255.589 431.525, 252.659 444.800, 251.025 452.500 C 249.390 460.200, 247.140 470.062, 246.025 474.415 C 244.910 478.769, 244.110 482.426, 244.249 482.543 C 244.387 482.660, 250.639 477.523, 258.141 471.128 C 265.644 464.732, 273.937 457.700, 276.570 455.500 C 287.407 446.445, 290.649 443.716, 293.594 441.173 C 295.296 439.703, 298.614 436.925, 300.967 435 C 303.320 433.075, 307.010 429.925, 309.167 428 L 313.090 424.500 305.925 419 C 301.985 415.975, 297.100 412.150, 295.070 410.500 C 293.041 408.850, 289.658 406.150, 287.554 404.500 C 285.449 402.850, 280.076 398.554, 275.614 394.953 C 271.151 391.352, 267.012 388.109, 266.415 387.746 C 265.707 387.316, 264.588 390.639, 263.200 397.293" stroke="none" fill="currentColor" fill-rule="evenodd"/></svg>