<svg width="19" height="23" viewBox="0 0 19 23" fill="none" xmlns="http://www.w3.org/2000/svg">
<path d="M18 9.59091C18 16.2727 9.5 22 9.5 22C9.5 22 1 16.2727 1 9.59091C1 7.31246 1.89553 5.12733 3.48959 3.51622C5.08365 1.90511 7.24566 1 9.5 1C11.7543 1 13.9163 1.90511 15.5104 3.51622C17.1045 5.12733 18 7.31246 18 9.59091Z" fill="currentColor"/>
<path d="M9.5 12.4545C11.0648 12.4545 12.3333 11.1725 12.3333 9.59091C12.3333 8.00937 11.0648 6.72727 9.5 6.72727C7.93519 6.72727 6.66667 8.00937 6.66667 9.59091C6.66667 11.1725 7.93519 12.4545 9.5 12.4545Z" fill="white"/>
<path d="M18 9.59091C18 16.2727 9.5 22 9.5 22C9.5 22 1 16.2727 1 9.59091C1 7.31246 1.89553 5.12733 3.48959 3.51622C5.08365 1.90511 7.24566 1 9.5 1C11.7543 1 13.9163 1.90511 15.5104 3.51622C17.1045 5.12733 18 7.31246 18 9.59091Z" stroke="black" stroke-linecap="round" stroke-linejoin="round"/>
<path d="M9.5 12.4545C11.0648 12.4545 12.3333 11.1725 12.3333 9.59091C12.3333 8.00937 11.0648 6.72727 9.5 6.72727C7.93519 6.72727 6.66667 8.00937 6.66667 9.59091C6.66667 11.1725 7.93519 12.4545 9.5 12.4545Z" stroke="black" stroke-linecap="round" stroke-linejoin="round"/>
<circle cx="9.5" cy="9.5" r="3" fill="white" stroke="black"/>
</svg>
