<svg width="43" height="13" viewBox="0 0 43 13" fill="none" xmlns="http://www.w3.org/2000/svg">
<path d="M15.2031 12.0738H11.413V5.35174H11.1619C10.4571 7.59294 9.75259 9.83152 9.04698 12.0753H6.17236C5.46865 9.83713 4.76304 7.59331 4.05592 5.34501H3.81353C3.8003 5.90447 3.80937 6.46094 3.80748 7.01741C3.80597 7.5765 3.80748 8.13558 3.80748 8.69467C3.80748 9.25375 3.80748 9.81284 3.80748 10.3719C3.80748 10.9306 3.80748 11.4893 3.80748 12.0432C3.66606 12.0944 0.231043 12.1064 0 12.0582V0.643985C0.081678 0.638753 0.160331 0.629784 0.238984 0.62941C1.41122 0.628663 2.58345 0.628663 3.7553 0.628663C3.91866 0.628663 4.08239 0.623804 4.24537 0.62941C4.99144 0.655571 5.47886 1.05284 5.76662 1.70087C5.89746 1.99498 5.98443 2.30891 6.07556 2.61872C6.52479 4.14462 6.96835 5.67202 7.41455 7.19867C7.43157 7.25734 7.45463 7.31452 7.47694 7.37805H7.74542C7.76735 7.31115 7.79193 7.24276 7.81235 7.17325C8.31528 5.47544 8.81631 3.77688 9.32113 2.07982C9.4323 1.70572 9.60625 1.36414 9.89779 1.08946C10.1878 0.81627 10.5368 0.671267 10.9316 0.640622C11.1695 0.621936 11.4092 0.629784 11.6482 0.62941C12.7573 0.628663 13.8664 0.629036 14.9754 0.629036H15.1929C15.2371 0.786746 15.2447 11.8623 15.2031 12.0742V12.0738Z" fill="white"/>
<path d="M28.8084 12.0749H24.9457V5.3509H24.6383C24.611 5.40547 24.5785 5.46489 24.5505 5.52655C23.7481 7.28752 22.9442 9.04812 22.1444 10.8102C21.84 11.4807 21.333 11.9026 20.6043 12.0611C20.5313 12.0767 20.4549 12.0838 20.3801 12.0838C19.2585 12.0853 18.1369 12.085 17.0154 12.0842C16.9541 12.0842 16.8929 12.0779 16.8184 12.0734V0.667816C16.9484 0.621101 20.3536 0.602415 20.6852 0.64913C20.6905 0.727611 20.7011 0.810951 20.7011 0.894664C20.7018 2.96919 20.7018 5.04371 20.7018 7.11823V7.36675H20.9843C21.0138 7.30995 21.0501 7.24567 21.0811 7.17952C21.8945 5.43013 22.7098 3.68187 23.5182 1.93024C23.7508 1.42609 24.0809 1.02173 24.6001 0.785164C24.8258 0.682017 25.0584 0.625585 25.3114 0.62708C26.4015 0.632686 27.4913 0.629323 28.5815 0.629323C28.656 0.629323 28.7301 0.629323 28.7986 0.629323C28.8455 0.788154 28.853 11.8656 28.8088 12.0753L28.8084 12.0749Z" fill="white"/>
<path d="M42.5021 5.35708C42.4235 5.36082 42.3554 5.36643 42.2874 5.36643C40.0007 5.36605 37.7138 5.37091 35.4272 5.35895C34.945 5.35634 34.458 5.36605 33.9819 5.24273C33.2547 5.05474 32.6127 4.71055 32.0504 4.22508C31.2854 3.56509 30.7326 2.76122 30.4157 1.80599C30.2943 1.43975 30.2088 1.06528 30.1865 0.650823C30.2603 0.647834 30.3317 0.642602 30.4032 0.642602C32.1041 0.640733 33.8049 0.639612 35.5058 0.638117C36.4572 0.63737 37.4082 0.638117 38.3596 0.636248C39.097 0.63438 39.8003 0.778636 40.4507 1.12582C41.612 1.74545 42.2953 2.70965 42.5316 3.98553C42.6103 4.41045 42.6107 4.83649 42.5297 5.26179C42.5252 5.2857 42.5161 5.30887 42.5021 5.35671V5.35708Z" fill="white" fill-opacity="0.5"/>
<path d="M42.247 6.09331C42.1392 6.4106 41.9831 6.68565 41.7902 6.93941C41.1466 7.78514 40.2792 8.29004 39.2495 8.54267C38.8683 8.6361 38.4807 8.66787 38.0886 8.66712C36.8287 8.6645 35.5687 8.66637 34.3087 8.66637C34.2346 8.66637 34.1601 8.66637 34.0664 8.66637V12.0429C33.9151 12.0945 30.5905 12.1053 30.3647 12.059V6.11274C30.3719 6.10415 30.3757 6.09891 30.3802 6.0948C30.3848 6.09069 30.3897 6.08621 30.3954 6.08509C30.42 6.08023 30.4445 6.07275 30.4691 6.07275C34.3689 6.07275 38.2686 6.07275 42.1684 6.0735C42.1861 6.0735 42.2039 6.0821 42.2478 6.09331H42.247Z" fill="white"/>
</svg>
