<svg width="35" height="27" viewBox="0 0 35 27" fill="none" xmlns="http://www.w3.org/2000/svg">
<path d="M34.3194 26.5947V26.664H34.3834C34.3954 26.6642 34.4072 26.6612 34.4177 26.6552C34.4261 26.6491 34.431 26.639 34.4305 26.6286C34.431 26.6184 34.4261 26.6085 34.4177 26.6028C34.4074 26.5966 34.3954 26.5935 34.3834 26.594H34.3194V26.5947ZM34.384 26.5457C34.4115 26.5439 34.4386 26.5519 34.4609 26.5682C34.4791 26.5831 34.489 26.606 34.4878 26.6295C34.4887 26.6498 34.4808 26.6694 34.4662 26.6834C34.4491 26.6985 34.4274 26.7075 34.4048 26.7092L34.4906 26.808H34.4245L34.3456 26.7099H34.32V26.808H34.2648V26.5458H34.384V26.5457ZM34.3669 26.8982C34.3959 26.8986 34.4245 26.8927 34.4511 26.8809C34.4767 26.8698 34.5 26.8539 34.5197 26.834C34.5395 26.814 34.5553 26.7907 34.5662 26.7647C34.5887 26.7097 34.5887 26.6481 34.5662 26.5931C34.5551 26.5673 34.5393 26.5437 34.5197 26.5238C34.5 26.5039 34.4767 26.488 34.4511 26.4769C34.4244 26.4658 34.3957 26.4602 34.3669 26.4606C34.3375 26.4602 34.3084 26.4658 34.2811 26.4769C34.2549 26.4878 34.2312 26.5037 34.2109 26.5238C34.1488 26.5881 34.1308 26.6836 34.1651 26.7664C34.1756 26.7924 34.1912 26.8159 34.2109 26.8357C34.2312 26.8558 34.2549 26.8717 34.2811 26.8827C34.3082 26.8943 34.3374 26.9003 34.3669 26.9M34.3669 26.3975C34.4422 26.3975 34.5148 26.4273 34.5685 26.4807C34.5944 26.5063 34.615 26.5368 34.6292 26.5706C34.6589 26.6406 34.6589 26.7198 34.6292 26.7898C34.6148 26.8234 34.594 26.8539 34.5685 26.8797C34.5422 26.9052 34.5115 26.9258 34.4781 26.9404C34.4429 26.9554 34.4051 26.963 34.3669 26.9629C34.3283 26.9632 34.29 26.9554 34.2543 26.9404C34.2205 26.9261 34.1897 26.9055 34.1632 26.8797C34.1377 26.8529 34.1173 26.8213 34.1034 26.7868C34.0737 26.7168 34.0737 26.6377 34.1034 26.5677C34.1176 26.5339 34.1382 26.5034 34.1641 26.4777C34.19 26.4516 34.2211 26.4308 34.2552 26.4171C34.2909 26.402 34.3291 26.3942 34.3677 26.3946M8.0976 25.3851C8.0976 24.8853 8.42185 24.4746 8.9518 24.4746C9.48175 24.4746 9.79999 24.8676 9.79999 25.3851C9.79999 25.9027 9.45824 26.2956 8.9518 26.2956C8.44535 26.2956 8.0976 25.885 8.0976 25.3851ZM10.3773 25.3851V23.9626H9.76499V24.3091C9.57078 24.0531 9.27622 23.8924 8.87562 23.8924C8.08645 23.8924 7.46711 24.5176 7.46711 25.3858C7.46711 26.254 8.0861 26.8792 8.87562 26.8792C9.27604 26.8792 9.57078 26.7184 9.76499 26.4625V26.8078H10.3766V25.3851H10.3773ZM31.0661 25.3851C31.0661 24.8853 31.3903 24.4746 31.9204 24.4746C32.4506 24.4746 32.7686 24.8676 32.7686 25.3851C32.7686 25.9027 32.4274 26.2956 31.9204 26.2956C31.4135 26.2956 31.0661 25.885 31.0661 25.3851ZM33.3464 25.3851V22.8208H32.7336V24.3091C32.5394 24.0531 32.2449 23.8924 31.8443 23.8924C31.0551 23.8924 30.4358 24.5176 30.4358 25.3858C30.4358 26.254 31.0547 26.8792 31.8443 26.8792C32.2449 26.8792 32.5394 26.7184 32.7336 26.4625V26.8078H33.3464V25.3851ZM17.9767 24.4453C18.3713 24.4453 18.6247 24.6952 18.6894 25.1351H17.2284C17.2937 24.7245 17.5406 24.4453 17.9769 24.4453M17.9891 23.8909C17.1639 23.8909 16.5866 24.4973 16.5866 25.3843C16.5866 26.2712 17.187 26.8776 18.0301 26.8776C18.4542 26.8776 18.8426 26.7707 19.1843 26.4791L18.8843 26.0208C18.6482 26.2114 18.3476 26.3183 18.0651 26.3183C17.6705 26.3183 17.3112 26.1338 17.2229 25.6218H19.3137C19.3197 25.5449 19.3259 25.4673 19.3259 25.3841C19.3197 24.4975 18.7769 23.8907 17.9887 23.8907M25.3813 25.3841C25.3813 24.8842 25.7055 24.4736 26.2354 24.4736C26.7654 24.4736 27.0836 24.8665 27.0836 25.3841C27.0836 25.9016 26.7419 26.2946 26.2354 26.2946C25.729 26.2946 25.3811 25.884 25.3811 25.3841M27.6608 25.3841V23.9626H27.0488V24.3091C26.8539 24.0531 26.56 23.8924 26.1594 23.8924C25.3703 23.8924 24.7509 24.5176 24.7509 25.3858C24.7509 26.254 25.3699 26.8792 26.1594 26.8792C26.56 26.8792 26.8539 26.7184 27.0488 26.4625V26.8078H27.6609V25.3841H27.6608ZM21.9233 25.3841C21.9233 26.2468 22.5179 26.8775 23.4255 26.8775C23.8496 26.8775 24.1321 26.7822 24.4377 26.5384L24.1436 26.0385C23.9137 26.2054 23.6723 26.2946 23.4059 26.2946C22.9171 26.2885 22.5577 25.9316 22.5577 25.3841C22.5577 24.8366 22.9171 24.4798 23.4059 24.4736C23.6717 24.4736 23.913 24.5628 24.1436 24.7297L24.4377 24.2298C24.1316 23.986 23.849 23.8907 23.4255 23.8907C22.5179 23.8907 21.9233 24.5212 21.9233 25.3841ZM29.8168 23.8907C29.4635 23.8907 29.2335 24.0576 29.0744 24.3074V23.9626H28.4676V26.8062H29.0806V25.2122C29.0806 24.7416 29.2808 24.4802 29.6811 24.4802C29.8121 24.4783 29.9423 24.5025 30.064 24.5517L30.2527 23.9689C30.1172 23.915 29.9405 23.8912 29.8164 23.8912M13.4043 24.1887C13.1097 23.9926 12.7038 23.8912 12.256 23.8912C11.5427 23.8912 11.0834 24.2366 11.0834 24.8016C11.0834 25.2652 11.4254 25.5513 12.055 25.6405L12.3442 25.6821C12.68 25.7297 12.8385 25.819 12.8385 25.9796C12.8385 26.1995 12.6155 26.3249 12.1967 26.3249C11.7779 26.3249 11.4665 26.188 11.2601 26.0274L10.9724 26.5096C11.3082 26.7595 11.7323 26.8787 12.1915 26.8787C13.0047 26.8787 13.476 26.4919 13.476 25.9505C13.476 25.4506 13.1051 25.1892 12.4923 25.0999L12.2037 25.0577C11.9387 25.023 11.7263 24.9691 11.7263 24.7785C11.7263 24.5706 11.9265 24.4455 12.2624 24.4455C12.6218 24.4455 12.9697 24.5824 13.1403 24.6893L13.4053 24.1894L13.4043 24.1887ZM21.3048 23.8918C20.9516 23.8918 20.7215 24.0586 20.5632 24.3085V23.9626H19.9563V26.8062H20.5686V25.2122C20.5686 24.7416 20.7689 24.4802 21.1691 24.4802C21.3002 24.4783 21.4304 24.5025 21.552 24.5517L21.7407 23.9689C21.6052 23.915 21.4285 23.8912 21.3045 23.8912M16.0798 23.9626H15.0786V23.0999H14.4596V23.9626H13.8884V24.5278H14.4596V25.825C14.4596 26.4848 14.7131 26.8778 15.4375 26.8778C15.7032 26.8778 16.0093 26.7946 16.2035 26.6579L16.0266 26.1284C15.8439 26.2353 15.6437 26.2892 15.4845 26.2892C15.1784 26.2892 15.0786 26.0986 15.0786 25.8133V24.5283H16.0798V23.9626ZM6.9255 26.8069V25.0223C6.9255 24.3502 6.5014 23.898 5.81774 23.8919C5.45832 23.8859 5.08758 23.9988 4.82801 24.3979C4.6338 24.0825 4.32774 23.8919 3.89746 23.8919C3.59672 23.8919 3.30284 23.9812 3.07277 24.3142V23.9626H2.45996V26.8062H3.07758V25.2295C3.07758 24.7359 3.34864 24.4736 3.76725 24.4736C4.18586 24.4736 4.37955 24.7413 4.37955 25.2233V26.8059H4.99854V25.2292C4.99854 24.7356 5.2811 24.4732 5.68752 24.4732C6.09395 24.4732 6.30514 24.7409 6.30514 25.2229V26.8056L6.9255 26.8069Z" fill="white"/>
<path opacity="0.56" d="M34.6681 17.348V16.9321H34.5608L34.4368 17.2175L34.3135 16.9321H34.2059V17.348H34.2821V17.0347L34.398 17.305H34.477L34.5929 17.034V17.348H34.6681ZM33.9878 17.348V17.0033H34.1251V16.9332H33.7744V17.0033H33.9117V17.348H33.9878Z" fill="white"/>
<path opacity="0.75" d="M21.8924 10.7106C21.8924 7.29414 20.3086 4.25108 17.8415 2.2899C17.8415 2.2899 17.8419 2.28972 17.8421 2.28955H17.8407C17.8407 2.28955 17.841 2.28972 17.8412 2.2899C15.3749 4.25108 13.791 7.29431 13.791 10.7106C13.791 14.1268 15.375 17.1701 17.841 19.1309H17.8422C20.3091 17.1697 21.8928 14.1268 21.8928 10.7106H21.8924Z" fill="white"/>
<path d="M17.8406 19.1311C15.3746 17.1702 13.7906 14.127 13.7906 10.7107C13.7906 7.29447 15.3745 4.25124 17.8408 2.29006C17.8408 2.29006 17.8405 2.28988 17.8403 2.28971C15.9737 0.803268 13.6649 -0.00345418 11.2876 1.11175e-05C5.43101 1.11175e-05 0.683594 4.7953 0.683594 10.7107C0.683594 16.6262 5.43101 21.4215 11.2876 21.4215C13.665 21.4251 15.9742 20.6182 17.8412 19.1314C17.8412 19.1314 17.8408 19.1312 17.8408 19.1311H17.8406Z" fill="white"/>
<path opacity="0.5" d="M35 10.7107C35 4.7953 30.2526 1.11175e-05 24.3961 1.11175e-05C22.0186 -0.00345418 19.7094 0.803268 17.8423 2.28971C17.8423 2.28971 17.842 2.28988 17.8418 2.29006C20.3088 4.25124 21.8927 7.2943 21.8927 10.7107C21.8927 14.1272 20.309 17.1699 17.8421 19.1311C17.8421 19.1311 17.8418 19.1312 17.8418 19.1314C19.7091 20.618 22.0184 21.4249 24.3963 21.4215C30.2528 21.4215 35.0002 16.6262 35.0002 10.7107H35Z" fill="white"/>
</svg>
