<svg width="42" height="13" viewBox="0 0 42 13" fill="none" xmlns="http://www.w3.org/2000/svg">
<path d="M41.1127 12.6663V12.7376H38.0435C37.9101 12.1377 37.7795 11.5502 37.6481 10.9592H33.3854C33.1541 11.5509 32.9226 12.1437 32.6929 12.7312H29.2183C29.2364 12.6858 29.2498 12.6492 29.2659 12.6136C30.5618 9.74305 31.8577 6.87253 33.1541 4.00225C33.493 3.25201 33.8313 2.5013 34.1742 1.75249C34.3092 1.45791 34.5136 1.21369 34.8186 1.05191C35.1198 0.892265 35.4507 0.840238 35.7908 0.838337C36.6444 0.834061 37.4982 0.836199 38.3519 0.836437C38.3805 0.836437 38.4092 0.841663 38.4397 0.844514C38.7255 2.11431 39.0098 3.37887 39.2943 4.64344C39.5894 5.95457 39.8847 7.2657 40.1794 8.57707C40.4481 9.77227 40.716 10.9677 40.9857 12.1627C41.0238 12.3313 41.0699 12.4983 41.1124 12.6661L41.1127 12.6663ZM34.3468 8.51839H37.0997C36.7699 7.03526 36.4421 5.55997 36.1094 4.06449C35.519 5.55593 34.9364 7.02885 34.3468 8.51839Z" fill="white"/>
<path d="M27.4878 0.621826C27.6079 0.636793 27.7275 0.654848 27.8481 0.666251C28.5427 0.730869 29.2165 0.876973 29.8698 1.10504C29.8857 1.1105 29.9003 1.11882 29.9326 1.13378C29.7838 1.98142 29.6344 2.83405 29.4844 3.68976C29.247 3.59996 29.0211 3.50802 28.7903 3.42868C27.9598 3.14288 27.101 3.05879 26.2236 3.14455C25.8517 3.18089 25.4965 3.27735 25.1917 3.49329C25.014 3.61944 24.8842 3.77671 24.8258 3.98007C24.7517 4.23878 24.8363 4.46494 25.0312 4.64312C25.2028 4.79991 25.3918 4.94934 25.5984 5.06218C26.02 5.29262 26.4556 5.50097 26.8903 5.70979C27.5108 6.00794 28.0965 6.34956 28.5816 6.82374C29.0403 7.27227 29.3433 7.79586 29.4262 8.41283C29.5179 9.09464 29.4073 9.75389 29.1038 10.3813C28.6933 11.2301 27.9982 11.8214 27.1177 12.2388C26.4938 12.5346 25.8302 12.7182 25.1385 12.8088C24.7886 12.8546 24.4349 12.8753 24.083 12.9073C23.8431 12.9073 23.6031 12.9076 23.3631 12.9078C22.4058 12.8691 21.4631 12.7449 20.5467 12.4771C20.3572 12.4218 20.172 12.3531 19.981 12.2892C20.1374 11.3902 20.2911 10.5065 20.4463 9.61444C20.6691 9.70732 20.8776 9.7957 21.0873 9.88146C21.6667 10.1178 22.2626 10.305 22.8942 10.3732C23.4968 10.4383 24.1007 10.4813 24.7026 10.3637C24.9799 10.3096 25.2442 10.2221 25.4796 10.0732C25.8202 9.85794 26.0167 9.57072 25.98 9.17328C25.9626 8.98465 25.874 8.82572 25.7439 8.68412C25.5503 8.4734 25.3111 8.31305 25.0534 8.18048C24.6513 7.9738 24.24 7.7828 23.8351 7.58063C23.2166 7.27155 22.6342 6.91663 22.1574 6.42914C21.5368 5.79484 21.2797 5.05506 21.3834 4.20172C21.5122 3.14312 22.0716 2.32304 22.979 1.69539C23.6851 1.20695 24.4874 0.919735 25.3469 0.76793C25.6643 0.711864 25.988 0.685732 26.3086 0.64487C26.3268 0.642494 26.3435 0.630141 26.3609 0.622539C26.7366 0.622539 27.112 0.621826 27.4878 0.621826Z" fill="white"/>
<path d="M0.161133 1.02577C0.181109 0.966375 0.20083 0.906983 0.224648 0.836426C0.265881 0.836426 0.312237 0.836426 0.358336 0.836426C2.06146 0.836426 3.76458 0.836426 5.46744 0.836426C5.72073 0.836426 5.97044 0.862321 6.21118 0.935966C6.68012 1.07922 6.94954 1.39257 7.04943 1.8304C7.17646 2.38679 7.28991 2.94578 7.40849 3.50382C7.57496 4.28661 7.74041 5.06963 7.90688 5.85241C7.99498 6.26696 8.08436 6.68151 8.1722 7.09607C8.17963 7.13075 8.17835 7.16686 8.18117 7.20226C8.16452 7.17066 8.14531 7.14002 8.13148 7.10723C7.88741 6.52805 7.57726 5.98046 7.20744 5.46232C6.413 4.34909 5.39957 3.44063 4.20201 2.70608C4.0253 2.59774 3.83859 2.50343 3.6565 2.4027C3.45392 2.29532 3.25518 2.18058 3.04799 2.08151C2.16288 1.65817 1.23371 1.34221 0.272796 1.10535C0.237197 1.09656 0.198525 1.09965 0.161133 1.09704C0.161133 1.07328 0.161133 1.04952 0.161133 1.02577Z" fill="white" fill-opacity="0.5"/>
<path d="M3.65553 2.40236C3.83762 2.50309 4.02433 2.5974 4.20104 2.70573C5.39886 3.44029 6.41228 4.34874 7.20647 5.46198C7.57629 5.98035 7.88644 6.5277 8.13051 7.10689C8.14434 7.13968 8.16355 7.17032 8.1802 7.20192C8.28162 7.65424 8.38304 8.10681 8.48445 8.55914C8.51135 8.67887 8.53747 8.79884 8.57051 8.94874C9.65897 6.23003 10.7372 3.53769 11.8167 0.841309H15.3225C15.2593 0.98765 15.1986 1.13019 15.1364 1.27202C13.4819 5.04315 11.8277 8.81452 10.1722 12.5854C10.0997 12.7503 10.1425 12.7223 9.95605 12.7225C8.88911 12.7237 7.8219 12.723 6.75495 12.723H6.60513C6.53982 12.4982 6.47503 12.2782 6.41202 12.058C5.56174 9.08392 4.71172 6.11006 3.86195 3.13596C3.79204 2.89151 3.72417 2.64682 3.65527 2.40212L3.65553 2.40236Z" fill="white"/>
<path d="M17.9077 12.7323H14.5903C15.2818 8.76658 15.972 4.80777 16.6633 0.843018H19.9806C19.2897 4.8061 18.5989 8.76729 17.9077 12.7323Z" fill="white"/>
</svg>
