<svg xmlns="http://www.w3.org/2000/svg" width="600" height="600" viewBox="0 0 600 600" version="1.1"><path d="" stroke="none" fill="#080404" fill-rule="evenodd"/><path d="M 264.500 1.564 C 252.436 2.913, 247.313 3.785, 239 5.908 C 236.525 6.540, 230.225 8.142, 225 9.468 C 192.767 17.647, 157.773 34.587, 131.154 54.895 C 127.114 57.978, 122.723 61.216, 121.397 62.091 C 113.998 66.971, 81.516 100.090, 75.046 109.350 C 74.220 110.532, 73.001 112.175, 72.337 113 C 59.029 129.544, 39.905 163.585, 34.978 179.500 C 34.297 181.700, 33.336 184.010, 32.843 184.634 C 32.350 185.258, 30.826 189.758, 29.456 194.634 C 28.086 199.510, 26.549 204.239, 26.041 205.143 C 24.825 207.305, 18.435 238.038, 16.819 249.500 C 15.133 261.456, 15.136 307.582, 16.824 319.500 C 18.514 331.433, 23.644 356.480, 25.427 361.500 C 26.208 363.700, 28.051 369.550, 29.523 374.500 C 30.994 379.450, 32.545 383.950, 32.969 384.500 C 33.393 385.050, 34.316 387.300, 35.021 389.500 C 39.310 402.888, 59.175 439.264, 67.352 448.703 C 69.200 450.836, 69.205 451.076, 67.509 456.203 C 66.546 459.116, 64.475 466.450, 62.908 472.500 C 61.341 478.550, 58.731 488.450, 57.107 494.500 C 55.483 500.550, 52.294 512.475, 50.020 521 C 47.746 529.525, 44.313 542.350, 42.391 549.500 C 40.469 556.650, 37.784 567, 36.424 572.500 C 35.063 578, 33.511 583.281, 32.975 584.236 C 32.439 585.191, 32 587.867, 32 590.182 C 32 593.387, 32.641 595.059, 34.687 597.195 C 38.995 601.692, 40.196 601.533, 77.500 591.528 C 85.200 589.463, 97.125 586.298, 104 584.494 C 134.819 576.409, 140.592 574.858, 142 574.289 C 142.825 573.955, 148.225 572.443, 154 570.929 C 159.775 569.416, 170.800 566.502, 178.500 564.455 C 186.200 562.409, 196.856 559.600, 202.181 558.214 L 211.862 555.694 221.681 558.397 C 236.890 562.584, 242.145 563.654, 261.500 566.507 C 306.114 573.082, 356.470 567.630, 399.500 551.568 C 406.216 549.061, 418.862 543.731, 422 542.085 C 422.825 541.652, 428.900 538.491, 435.500 535.060 C 442.100 531.629, 448.400 528.069, 449.500 527.148 C 450.600 526.227, 453.075 524.602, 455 523.536 C 473.020 513.558, 509.396 480.149, 525.185 459.076 C 527.008 456.642, 529.706 453.042, 531.180 451.076 C 532.654 449.109, 535.090 445.475, 536.594 443 C 538.097 440.525, 539.624 438.275, 539.988 438 C 542.842 435.841, 562.136 398.390, 564.975 389.500 C 565.677 387.300, 567.047 383.700, 568.020 381.500 C 568.992 379.300, 570.545 374.575, 571.470 371 C 572.396 367.425, 573.624 363.630, 574.200 362.566 C 575.536 360.097, 580.678 335.677, 582.741 322 C 584.771 308.548, 585.052 262.679, 583.186 249.500 C 581.584 238.179, 575.184 207.334, 573.983 205.143 C 573.488 204.239, 571.970 199.900, 570.611 195.500 C 567.550 185.592, 562.423 171.613, 560.568 168.120 C 559.803 166.679, 557.063 161.225, 554.478 156 C 547.954 142.812, 539.345 128.513, 532.204 119 C 530.346 116.525, 527.852 113.190, 526.663 111.588 C 520.237 102.938, 514.129 96.134, 501.446 83.500 C 482.712 64.838, 473.983 57.541, 458 47.184 C 453.325 44.154, 448.295 40.859, 446.821 39.861 C 442.699 37.067, 419.341 25.116, 411.500 21.787 C 407.650 20.153, 400.488 17.484, 395.585 15.855 C 390.682 14.227, 385.927 12.496, 385.019 12.010 C 383.504 11.199, 362.684 6.057, 352 3.854 C 333.709 0.084, 288.359 -1.103, 264.500 1.564 M 283 20.038 C 271.080 20.724, 238.849 25.864, 232.500 28.093 C 230.850 28.672, 225.225 30.430, 220 31.999 C 176.242 45.142, 131.833 74.337, 100.483 110.571 C 89.870 122.836, 89.466 123.348, 82.758 133.020 C 74.547 144.859, 70.477 151.875, 63.047 167 C 59.670 173.875, 56.481 180.276, 55.961 181.225 C 55.440 182.173, 54.057 185.773, 52.887 189.225 C 51.717 192.676, 50.155 196.850, 49.416 198.500 C 48.676 200.150, 46.689 206.450, 45 212.500 C 37.221 240.355, 33.442 278.347, 35.951 303.470 C 37.597 319.943, 40.924 342.679, 42.156 345.870 C 42.715 347.316, 44.307 353, 45.694 358.500 C 47.081 364, 48.554 368.950, 48.968 369.500 C 49.382 370.050, 50.649 373.200, 51.785 376.500 C 58.350 395.574, 70.530 418.205, 86.692 441.359 C 89.740 445.725, 89.554 451.254, 85.897 465 C 84.214 471.325, 81.526 481.450, 79.923 487.500 C 78.321 493.550, 75.440 504.350, 73.521 511.500 C 64.325 545.766, 62.587 552.316, 59.774 563.293 C 58.112 569.779, 56.932 575.265, 57.151 575.484 C 57.570 575.904, 66.531 573.672, 89 567.552 C 96.425 565.530, 107.450 562.562, 113.500 560.958 C 125.266 557.837, 142.791 553.137, 163 547.683 C 169.875 545.828, 180.225 543.084, 186 541.585 C 191.775 540.087, 199.360 537.992, 202.855 536.930 C 210.607 534.576, 214.908 534.497, 219.782 536.618 C 223.742 538.342, 243.535 543.185, 256.059 545.495 C 275.917 549.157, 310.420 549.789, 334.293 546.927 C 351.320 544.885, 393.793 533.747, 398.428 530.108 C 399.017 529.645, 401.975 528.345, 405 527.218 C 418.463 522.207, 446.841 505.689, 460.311 495.024 C 474.280 483.963, 491.706 467.444, 501.483 455.994 C 507.853 448.533, 512.798 442.245, 513.869 440.245 C 514.484 439.096, 515.552 437.558, 516.243 436.828 C 517.715 435.272, 524.181 425.477, 527.231 420.183 C 536.915 403.372, 543.326 389.857, 547.717 377 C 549.125 372.875, 550.631 369.045, 551.063 368.489 C 551.987 367.299, 557.531 346.539, 559.605 336.500 C 561.969 325.053, 565 295.362, 565 283.642 C 565 277.639, 564.512 268.626, 563.915 263.613 C 561.630 244.416, 558.836 225.699, 558.021 224.133 C 557.553 223.235, 555.952 217.550, 554.463 211.500 C 552.974 205.450, 551.436 200.050, 551.047 199.500 C 550.657 198.950, 549.321 195.575, 548.078 192 C 544.518 181.759, 534.118 160.071, 527.152 148.360 C 505.539 112.026, 473.592 80.001, 436.433 57.423 C 426.953 51.662, 405.108 40.762, 399.500 38.994 C 397.300 38.300, 394.150 37.048, 392.500 36.210 C 389.844 34.863, 378.304 31.207, 364.979 27.492 C 362.493 26.799, 352.143 24.866, 341.979 23.196 C 321.534 19.837, 303.392 18.865, 283 20.038 M 197.500 130.759 C 194.750 131.762, 188.450 135.211, 183.500 138.424 C 178.550 141.637, 172.250 145.702, 169.500 147.456 C 153.344 157.765, 148.957 160.963, 144 166.045 C 134.579 175.704, 128.974 190.116, 129.013 204.582 C 129.020 207.287, 129.897 213.722, 130.962 218.882 C 132.875 228.152, 140.524 253.564, 141.985 255.500 C 142.400 256.050, 143.305 258.300, 143.996 260.500 C 146.450 268.311, 158.469 293.478, 165.726 306 C 171.626 316.181, 181.637 331.654, 183.726 333.821 C 184.427 334.548, 185 335.453, 185 335.832 C 185 336.210, 186.012 337.641, 187.250 339.010 C 188.487 340.380, 191.346 343.975, 193.602 347 C 205.043 362.339, 227.346 385.202, 245.405 400.103 C 260.380 412.460, 259.053 411.413, 264.623 415.269 C 267.189 417.046, 271.811 420.248, 274.894 422.384 C 277.977 424.521, 284.325 428.481, 289 431.186 C 293.675 433.891, 298.175 436.534, 299 437.060 C 304.047 440.276, 333.933 454.255, 339.500 456.004 C 341.700 456.695, 343.950 457.607, 344.500 458.031 C 345.050 458.455, 349.550 459.997, 354.500 461.459 C 359.450 462.920, 364.400 464.536, 365.500 465.049 C 369.537 466.934, 384.721 470.070, 392.500 470.626 C 413.764 472.146, 432.171 462.368, 444.506 443 C 449.187 435.650, 456.075 424.972, 458.051 422 C 468.648 406.066, 470.455 401.849, 470.479 393 C 470.521 377.880, 463.840 369.929, 445.695 363.507 C 441.738 362.106, 437.600 360.518, 436.500 359.977 C 435.400 359.437, 431.350 357.893, 427.500 356.547 C 420.632 354.145, 407.869 349.417, 389 342.285 C 372.172 335.924, 364.766 336.700, 350.524 346.318 C 328.834 360.964, 328.538 361.056, 320.477 355.681 C 307.350 346.928, 304.605 344.851, 293.186 335.031 C 272.745 317.453, 250.533 291.766, 242.991 276.983 C 239.765 270.659, 239.866 270.365, 251.432 252.532 C 255.367 246.464, 259.396 239.648, 260.384 237.384 C 263.016 231.360, 262.141 222.710, 257.715 211 C 250.040 190.696, 245.790 179.204, 243.291 172 C 241.859 167.875, 240.409 164.275, 240.067 164 C 239.725 163.725, 238.620 160.800, 237.611 157.500 C 233.471 143.960, 226.898 134.728, 219 131.359 C 213.294 128.924, 203.294 128.646, 197.500 130.759 M 200.988 151.379 C 199.070 152.687, 195.025 155.313, 192 157.214 C 160.008 177.315, 157.903 178.967, 152.834 187.948 C 150.291 192.454, 149.676 194.811, 149.308 201.453 C 149.012 206.799, 149.355 211.178, 150.328 214.500 C 151.134 217.250, 152.977 223.775, 154.424 229 C 155.871 234.225, 157.664 239.850, 158.407 241.500 C 159.151 243.150, 160.780 247.650, 162.028 251.500 C 163.276 255.350, 164.619 258.725, 165.014 259 C 165.408 259.275, 166.074 260.625, 166.495 262 C 168.096 267.235, 181.173 293.143, 186.432 301.500 C 191.529 309.600, 198.130 319.647, 199.163 320.879 C 199.799 321.637, 202.946 325.800, 206.157 330.130 C 222.577 352.277, 254.668 383.903, 274 396.991 C 275.925 398.294, 278.175 399.957, 279 400.687 C 280.310 401.844, 289.142 407.679, 298.500 413.568 C 306.390 418.534, 334.863 433, 336.746 433 C 337.177 433, 339.098 433.833, 341.015 434.851 C 342.932 435.869, 346.975 437.498, 350 438.471 C 353.025 439.444, 356.850 440.848, 358.500 441.592 C 360.150 442.336, 365.775 444.129, 371 445.576 C 376.225 447.023, 382.750 448.863, 385.500 449.666 C 393.359 451.960, 404.294 451.015, 411.393 447.427 C 419.386 443.388, 424.412 437.690, 434.707 421 C 437.252 416.875, 441.955 409.450, 445.159 404.500 C 451.896 394.091, 452.577 390.386, 448.365 387.073 C 446.916 385.933, 445.228 384.997, 444.615 384.994 C 444.002 384.990, 442.197 384.308, 440.605 383.478 C 439.013 382.648, 434.738 380.882, 431.105 379.555 C 427.472 378.227, 419.550 375.286, 413.500 373.019 C 407.450 370.753, 398.900 367.597, 394.500 366.007 C 390.100 364.417, 383.371 361.939, 379.547 360.501 C 375.722 359.062, 371.621 358.129, 370.433 358.427 C 369.246 358.725, 365.625 360.694, 362.387 362.802 C 338.633 378.265, 336.782 379.145, 328.057 379.118 C 321.776 379.098, 320.250 378.679, 314.248 375.331 C 283.146 357.980, 241.998 316.815, 224.621 285.666 C 221.263 279.648, 220.803 278.013, 220.765 271.981 C 220.711 263.362, 221.598 261.505, 237.189 237.613 C 239.302 234.375, 241.278 230.742, 241.579 229.539 C 242.063 227.613, 236.158 209.871, 230.084 195 C 229.073 192.525, 227.457 188.025, 226.492 185 C 225.528 181.975, 224.132 178.375, 223.390 177 C 222.649 175.625, 221.162 171.800, 220.086 168.500 C 213.888 149.492, 209.510 145.567, 200.988 151.379" stroke="none" fill="currentColor" fill-rule="evenodd"/></svg>