<svg width="33" height="25" viewBox="0 0 33 25" fill="none" xmlns="http://www.w3.org/2000/svg">
<g clip-path="url(#clip0_898_7119)">
<path fill-rule="evenodd" clip-rule="evenodd" d="M24.2519 0.347446C24.2106 0.372991 24.1768 0.403302 24.1768 0.414821C24.1768 0.426314 24.1513 0.435736 24.1202 0.435736C24.0597 0.435736 23.9856 0.494669 23.9856 0.542735C23.9856 0.558775 23.9593 0.571902 23.9273 0.571902C23.8952 0.571902 23.8492 0.594669 23.8248 0.622474C23.8006 0.650279 23.753 0.68176 23.7192 0.692381C23.6854 0.703029 23.6577 0.723155 23.6577 0.737125C23.6577 0.751096 23.6332 0.762534 23.6031 0.762534C23.5731 0.762534 23.5485 0.774789 23.5485 0.789767C23.5485 0.804745 23.5357 0.817 23.52 0.817C23.4932 0.817 23.4623 0.838296 23.3719 0.919124C23.351 0.93786 23.3207 0.953165 23.3045 0.953165C23.2885 0.953165 23.2753 0.96542 23.2753 0.980399C23.2753 0.995377 23.2552 1.00763 23.2306 1.00763C23.206 1.00763 23.1575 1.03827 23.1226 1.07571C23.0878 1.11316 23.0403 1.1438 23.0171 1.1438C22.9938 1.1438 22.9748 1.15472 22.9748 1.16809C22.9748 1.18143 22.9469 1.19935 22.9128 1.20788C22.8787 1.2164 22.8239 1.24837 22.791 1.2789C22.7581 1.30946 22.7123 1.33443 22.6891 1.33443C22.6659 1.33443 22.647 1.34668 22.647 1.36166C22.647 1.37664 22.6338 1.3889 22.6177 1.3889C22.6016 1.3889 22.5713 1.40423 22.5504 1.42294C22.46 1.50376 22.4291 1.52506 22.4023 1.52506C22.3866 1.52506 22.3738 1.53732 22.3738 1.55229C22.3738 1.56727 22.3548 1.57953 22.3315 1.57953C22.3083 1.57953 22.2608 1.61016 22.226 1.64761C22.1911 1.68506 22.1426 1.71569 22.118 1.71569C22.0934 1.71569 22.0733 1.72795 22.0733 1.74293C22.0733 1.7579 22.0578 1.77016 22.0389 1.77016C22.0199 1.77016 21.9713 1.8008 21.9308 1.83824C21.8903 1.87569 21.8376 1.90632 21.8137 1.90632C21.7898 1.90632 21.7396 1.93696 21.702 1.97441C21.6645 2.01185 21.6159 2.04249 21.594 2.04249C21.5722 2.04249 21.5543 2.05475 21.5543 2.06972C21.5543 2.0847 21.5358 2.09696 21.5133 2.09696C21.4907 2.09696 21.4723 2.10921 21.4723 2.12419C21.4723 2.13917 21.4477 2.15142 21.4177 2.15142C21.3873 2.15142 21.363 2.16959 21.363 2.19227C21.363 2.21474 21.3446 2.23312 21.3221 2.23312C21.2995 2.23312 21.2811 2.24538 21.2811 2.26036C21.2811 2.27533 21.2565 2.28759 21.2264 2.28759C21.1964 2.28759 21.1718 2.29984 21.1718 2.31482C21.1718 2.3298 21.1563 2.34205 21.1374 2.34205C21.1185 2.34205 21.0698 2.37269 21.0293 2.41014C20.9888 2.44758 20.9397 2.4786 20.9203 2.47909C20.8715 2.48029 20.7894 2.54568 20.7894 2.58334C20.7894 2.60042 20.7613 2.61439 20.7271 2.61439C20.6928 2.61439 20.6471 2.6389 20.6255 2.66885C20.6038 2.69881 20.5581 2.72332 20.5238 2.72332C20.4896 2.72332 20.4615 2.73644 20.4615 2.75248C20.4615 2.7966 20.3893 2.85948 20.3386 2.85948C20.3139 2.85948 20.2766 2.87482 20.2557 2.89353C20.1653 2.97435 20.1344 2.99565 20.1076 2.99565C20.0919 2.99565 20.0791 3.0079 20.0791 3.02288C20.0791 3.03786 20.0545 3.05012 20.0245 3.05012C19.9944 3.05012 19.9698 3.06237 19.9698 3.07735C19.9698 3.09233 19.9514 3.10458 19.9288 3.10458C19.9063 3.10458 19.8879 3.12296 19.8879 3.14543C19.8879 3.16842 19.8634 3.18628 19.832 3.18628C19.8013 3.18628 19.7454 3.21692 19.7078 3.25436C19.6703 3.29181 19.6244 3.32245 19.6058 3.32245C19.5873 3.32245 19.5544 3.34696 19.5327 3.37691C19.5111 3.40687 19.4706 3.43138 19.4428 3.43138C19.415 3.43138 19.3751 3.44668 19.3542 3.46542C19.2638 3.54625 19.2329 3.56754 19.2061 3.56754C19.1904 3.56754 19.1776 3.5798 19.1776 3.59478C19.1776 3.60976 19.1586 3.62201 19.1353 3.62201C19.1121 3.62201 19.0646 3.65265 19.0298 3.69009C18.9949 3.72754 18.9464 3.75818 18.9218 3.75818C18.8972 3.75818 18.8771 3.77043 18.8771 3.78541C18.8771 3.80039 18.8587 3.81264 18.8361 3.81264C18.8136 3.81264 18.7952 3.82465 18.7952 3.83936C18.7952 3.85404 18.7644 3.87375 18.7269 3.88315C18.6893 3.89254 18.6586 3.90891 18.6586 3.91948C18.6586 3.93007 18.6155 3.95918 18.563 3.98418C18.5104 4.00918 18.4673 4.04279 18.4673 4.05891C18.4673 4.07501 18.456 4.08122 18.4422 4.07272C18.4284 4.0642 18.3986 4.07574 18.3759 4.09835C18.3532 4.12095 18.3215 4.13944 18.3054 4.13944C18.2893 4.13944 18.2761 4.1517 18.2761 4.16667C18.2761 4.18165 18.2571 4.19391 18.2338 4.19391C18.2106 4.19391 18.1631 4.22454 18.1283 4.26199C18.0934 4.29943 18.0449 4.33007 18.0203 4.33007C17.9957 4.33007 17.9756 4.34039 17.9756 4.35303C17.9756 4.36564 17.9326 4.39905 17.88 4.42729C17.8274 4.45554 17.7844 4.48808 17.7844 4.49965C17.7844 4.51123 17.7689 4.5207 17.75 4.5207C17.731 4.5207 17.6824 4.55134 17.6419 4.58879C17.6014 4.62623 17.5431 4.65687 17.5124 4.65687C17.4817 4.65687 17.4566 4.66912 17.4566 4.6841C17.4566 4.69908 17.4438 4.71134 17.4281 4.71134C17.4013 4.71134 17.3704 4.73263 17.28 4.81346C17.2591 4.83217 17.2288 4.8475 17.2127 4.8475C17.1966 4.8475 17.1834 4.85976 17.1834 4.87473C17.1834 4.88971 17.1633 4.90197 17.1387 4.90197C17.1141 4.90197 17.0656 4.9326 17.0307 4.97005C16.9959 5.0075 16.9484 5.03813 16.9252 5.03813C16.9019 5.03813 16.8829 5.0481 16.8829 5.06027C16.8829 5.07247 16.8399 5.09927 16.7873 5.11983C16.7347 5.14039 16.6917 5.17332 16.6917 5.19301C16.6917 5.21267 16.6637 5.22876 16.6294 5.22876C16.5952 5.22876 16.5494 5.25327 16.5278 5.28323C16.5061 5.31319 16.4732 5.3377 16.4547 5.3377C16.4361 5.3377 16.3903 5.36833 16.3527 5.40578C16.3151 5.44323 16.2637 5.47386 16.2385 5.47386C16.2132 5.47386 16.1641 5.5045 16.1293 5.54195C16.0945 5.57939 16.0469 5.61003 16.0237 5.61003C16.0004 5.61003 15.9814 5.62228 15.9814 5.63726C15.9814 5.65224 15.9659 5.66449 15.947 5.66449C15.9281 5.66449 15.8794 5.69513 15.8389 5.73258C15.7984 5.77002 15.7463 5.80066 15.7231 5.80066C15.6999 5.80066 15.6809 5.81292 15.6809 5.82789C15.6809 5.84287 15.6625 5.85513 15.6399 5.85513C15.6174 5.85513 15.599 5.86656 15.599 5.88053C15.599 5.89451 15.5713 5.91463 15.5375 5.92528C15.5037 5.9359 15.4561 5.96738 15.4319 5.99519C15.4075 6.02299 15.3693 6.04576 15.3469 6.04576C15.3245 6.04576 15.283 6.0764 15.2548 6.11384C15.2266 6.15134 15.1758 6.18192 15.1417 6.18192C15.1077 6.18192 15.0799 6.1914 15.0799 6.20297C15.0799 6.21455 15.0369 6.24709 14.9843 6.27533C14.9317 6.30357 14.8887 6.33699 14.8887 6.3496C14.8887 6.36223 14.8641 6.37256 14.8341 6.37256C14.804 6.37256 14.7794 6.38481 14.7794 6.39979C14.7794 6.41477 14.761 6.42702 14.7384 6.42702C14.7159 6.42702 14.6975 6.4365 14.6975 6.44807C14.6975 6.45965 14.6544 6.49219 14.6019 6.52043C14.5493 6.54867 14.5062 6.58209 14.5062 6.5947C14.5062 6.60733 14.4813 6.61765 14.4508 6.61765C14.4202 6.61765 14.3882 6.63604 14.3795 6.6585C14.3709 6.68097 14.3405 6.69935 14.3121 6.69935C14.2837 6.69935 14.2604 6.70967 14.2604 6.72231C14.2604 6.73492 14.2174 6.76833 14.1648 6.79658C14.1122 6.82482 14.0692 6.85736 14.0692 6.86893C14.0692 6.88051 14.0507 6.88998 14.0282 6.88998C14.0056 6.88998 13.9872 6.90224 13.9872 6.91722C13.9872 6.9322 13.9626 6.94445 13.9326 6.94445C13.9025 6.94445 13.8779 6.95671 13.8779 6.97168C13.8779 6.98666 13.8595 6.99892 13.837 6.99892C13.8144 6.99892 13.796 7.0173 13.796 7.03977C13.796 7.06245 13.7717 7.08062 13.7413 7.08062C13.7113 7.08062 13.6867 7.09287 13.6867 7.10785C13.6867 7.12283 13.6735 7.13508 13.6575 7.13508C13.6413 7.13508 13.611 7.15042 13.5901 7.16912C13.4954 7.25385 13.4678 7.27125 13.4283 7.27125C13.4052 7.27125 13.3861 7.28043 13.3859 7.29167C13.3857 7.30292 13.3366 7.33552 13.2766 7.36414C13.2167 7.39276 13.1677 7.42645 13.1677 7.43903C13.1677 7.45159 13.1492 7.46188 13.1267 7.46188C13.1042 7.46188 13.0857 7.47414 13.0857 7.48911C13.0857 7.50409 13.0656 7.51635 13.0411 7.51635C13.0165 7.51635 12.9679 7.54698 12.9331 7.58443C12.8983 7.62187 12.8508 7.65251 12.8275 7.65251C12.8042 7.65251 12.7852 7.66477 12.7852 7.67975C12.7852 7.69472 12.7721 7.70698 12.756 7.70698C12.7398 7.70698 12.7096 7.72231 12.6886 7.74102C12.6186 7.80363 12.5809 7.82926 12.4984 7.87038C12.4533 7.89284 12.4002 7.92656 12.3803 7.94527C12.3605 7.964 12.3294 7.97931 12.3112 7.97931C12.2931 7.97931 12.2605 8.00382 12.2389 8.03378C12.2172 8.06373 12.1772 8.08824 12.15 8.08824C12.1228 8.08824 12.0935 8.10662 12.0848 8.12909C12.0762 8.15156 12.052 8.16994 12.0311 8.16994C12.0101 8.16994 11.993 8.1822 11.993 8.19717C11.993 8.21215 11.9684 8.22441 11.9384 8.22441C11.9083 8.22441 11.8837 8.23473 11.8837 8.24736C11.8837 8.25997 11.8407 8.29339 11.7881 8.32163C11.7355 8.34987 11.6925 8.38241 11.6925 8.39399C11.6925 8.40556 11.6679 8.41504 11.6379 8.41504C11.6078 8.41504 11.5832 8.42729 11.5832 8.44227C11.5832 8.45725 11.5701 8.46951 11.554 8.46951C11.5379 8.46951 11.5076 8.48484 11.4866 8.50355C11.3962 8.58437 11.3653 8.60567 11.3385 8.60567C11.3229 8.60567 11.3101 8.61793 11.3101 8.6329C11.3101 8.64788 11.2922 8.66014 11.2703 8.66014C11.2485 8.66014 11.1999 8.69077 11.1623 8.72822C11.1247 8.76567 11.0688 8.7963 11.0381 8.7963C11.0074 8.7963 10.9822 8.80856 10.9822 8.82354C10.9822 8.84159 9.21633 8.85077 5.73915 8.85077C1.11508 8.85077 0.491246 8.85559 0.455105 8.89162C0.432568 8.91409 0.388668 8.93247 0.357525 8.93247C0.32641 8.93247 0.30095 8.94472 0.30095 8.9597C0.30095 8.97468 0.287783 8.98693 0.271693 8.98693C0.224187 8.98693 0.164361 9.06049 0.164361 9.11888C0.164361 9.14867 0.149008 9.17814 0.130213 9.18437C0.080686 9.20082 0.0745395 24.1573 0.124012 24.2783C0.158351 24.3623 0.273632 24.5087 0.273632 24.4684C0.273632 24.456 0.301278 24.4708 0.335097 24.5013L0.396563 24.5567L14.3606 24.5537L28.3247 24.5507L28.3947 24.4851C28.4332 24.449 28.472 24.3967 28.4808 24.3689C28.4897 24.3411 28.5069 24.3245 28.5191 24.3321C28.5313 24.3396 28.5579 24.3061 28.5782 24.2575C28.6086 24.1849 28.6152 23.472 28.6157 20.2108L28.6164 16.2523L28.7254 16.1603C28.7854 16.1097 28.8499 16.0682 28.8688 16.068C28.8877 16.0677 28.9295 16.0373 28.9617 16.0004C28.9939 15.9635 29.0308 15.9397 29.0437 15.9476C29.0565 15.9556 29.0744 15.943 29.0834 15.9196C29.0924 15.8963 29.1107 15.884 29.1242 15.8923C29.1376 15.9006 29.1486 15.8948 29.1486 15.8794C29.1486 15.864 29.1656 15.8579 29.1863 15.8658C29.207 15.8737 29.2473 15.8519 29.2758 15.8173C29.3042 15.7827 29.3457 15.7504 29.3678 15.7455C29.39 15.7406 29.4122 15.7253 29.4172 15.7115C29.4223 15.6976 29.4445 15.6863 29.4667 15.6863C29.4888 15.6863 29.5002 15.6753 29.4919 15.662C29.4836 15.6486 29.507 15.6301 29.544 15.6208C29.5809 15.6116 29.6656 15.5674 29.7321 15.5226C29.7987 15.4778 29.8661 15.4412 29.882 15.4412C29.8979 15.4412 29.9206 15.4245 29.9327 15.404C29.9447 15.3836 29.9975 15.345 30.0501 15.3183C30.1027 15.2916 30.1663 15.2462 30.1915 15.2175C30.2166 15.1888 30.2439 15.1692 30.2521 15.1739C30.2602 15.1786 30.2906 15.1623 30.3195 15.1376C30.3484 15.1129 30.3982 15.0844 30.4301 15.0743C30.4619 15.0642 30.481 15.0448 30.4725 15.031C30.464 15.0173 30.4769 15.0136 30.5011 15.0229C30.5309 15.0343 30.5498 15.0217 30.5598 14.9836C30.5688 14.9496 30.5896 14.9333 30.6128 14.9422C30.6339 14.9502 30.6511 14.9425 30.6511 14.9251C30.6511 14.9076 30.6634 14.9009 30.6784 14.9101C30.6935 14.9194 30.7058 14.914 30.7058 14.8981C30.7058 14.8823 30.7299 14.8693 30.7594 14.8693C30.7889 14.8693 30.8264 14.8444 30.8428 14.8141C30.8591 14.7837 30.8832 14.7655 30.8965 14.7736C30.9097 14.7818 30.9294 14.7741 30.9403 14.7566C30.9535 14.7353 30.9481 14.7321 30.9243 14.7467C30.9011 14.761 30.8951 14.7581 30.9073 14.7385C30.9176 14.7219 30.9415 14.7142 30.9604 14.7214C30.9793 14.7286 31.0454 14.6913 31.1073 14.6385C31.1692 14.5857 31.2269 14.5425 31.2357 14.5425C31.2443 14.5425 31.2766 14.5211 31.3073 14.4948C31.338 14.4686 31.3686 14.4499 31.3753 14.4533C31.382 14.4567 31.42 14.4293 31.4598 14.3925C31.4996 14.3557 31.5429 14.3323 31.556 14.3404C31.5692 14.3485 31.5799 14.3421 31.5799 14.3262C31.5799 14.3104 31.6055 14.2974 31.6367 14.2974C31.6679 14.2974 31.7272 14.2637 31.7685 14.2225C31.8452 14.1461 31.8635 14.134 31.9026 14.134C31.9148 14.134 31.9517 14.109 31.9845 14.0785C32.0174 14.0479 32.0443 14.03 32.0443 14.0386C32.0443 14.0472 32.0693 14.0409 32.0997 14.0247C32.1302 14.0084 32.1467 13.9816 32.1365 13.965C32.1252 13.9468 32.1304 13.9427 32.1496 13.9545C32.1673 13.9654 32.1885 13.9553 32.1976 13.9316C32.2066 13.9083 32.2249 13.8959 32.2382 13.9041C32.2515 13.9123 32.2963 13.8849 32.3378 13.8431C32.3792 13.8014 32.4239 13.7706 32.437 13.7747C32.4502 13.7788 32.4819 13.7633 32.5075 13.7402C32.5332 13.7171 32.5624 13.7064 32.5724 13.7163C32.5825 13.7264 32.5907 13.7203 32.5907 13.7028C32.5907 13.6853 32.6112 13.671 32.6362 13.671C32.6612 13.671 32.6736 13.6629 32.6637 13.653C32.6538 13.6431 32.6732 13.6207 32.7069 13.6032C32.7407 13.5856 32.7649 13.556 32.7607 13.5374C32.7566 13.5188 32.7653 13.511 32.78 13.5201C32.7948 13.5292 32.8273 13.5055 32.8522 13.4675C32.8892 13.4113 32.8912 13.3907 32.8632 13.3571C32.8442 13.3343 32.8373 13.3071 32.8478 13.2967C32.8583 13.2863 32.8768 13.2938 32.889 13.3135C32.9012 13.3332 32.9077 13.2351 32.9034 13.0956C32.8987 12.9447 32.8836 12.8379 32.8661 12.8321C32.8498 12.8267 32.8365 12.7971 32.8365 12.7664C32.8365 12.7357 32.8058 12.6821 32.7683 12.6474C32.7307 12.6127 32.7 12.5653 32.7 12.5422C32.7 12.519 32.69 12.5 32.6777 12.5C32.6655 12.5 32.6386 12.4571 32.618 12.4047C32.5974 12.3523 32.5643 12.3094 32.5446 12.3094C32.5249 12.3094 32.5087 12.2879 32.5087 12.2617C32.5087 12.2355 32.4779 12.1785 32.4404 12.1349C32.4028 12.0914 32.3721 12.042 32.3721 12.0252C32.3721 12.0084 32.3476 11.9769 32.3175 11.9553C32.2875 11.9337 32.2629 11.9014 32.2629 11.8834C32.2629 11.8394 32.1724 11.6834 32.1468 11.6832C32.1355 11.6831 32.1263 11.6646 32.1263 11.6422C32.1263 11.6197 32.1168 11.6013 32.1052 11.6013C32.0936 11.6013 32.0609 11.5584 32.0326 11.506C32.0042 11.4536 31.9707 11.4107 31.9581 11.4107C31.9454 11.4107 31.9351 11.3862 31.9351 11.3562C31.9351 11.3263 31.9228 11.3017 31.9077 11.3017C31.8927 11.3017 31.8804 11.2834 31.8804 11.2609C31.8804 11.2384 31.8689 11.2201 31.8549 11.2201C31.8409 11.2201 31.8207 11.1925 31.81 11.1588C31.7994 11.1251 31.7678 11.0777 31.7399 11.0535C31.712 11.0292 31.6892 10.989 31.6892 10.9641C31.6892 10.9392 31.6708 10.9117 31.6484 10.9032C31.6259 10.8946 31.6137 10.8776 31.6213 10.8654C31.6289 10.8532 31.6165 10.8247 31.5938 10.8021C31.5712 10.7795 31.5526 10.7479 31.5526 10.7318C31.5526 10.7157 31.5431 10.7026 31.5315 10.7026C31.5199 10.7026 31.4872 10.6597 31.4589 10.6073C31.4306 10.5549 31.3971 10.512 31.3844 10.512C31.3717 10.512 31.3614 10.4875 31.3614 10.4575C31.3614 10.4276 31.3491 10.4031 31.3341 10.4031C31.319 10.4031 31.3067 10.3847 31.3067 10.3622C31.3067 10.3397 31.2883 10.3214 31.2658 10.3214C31.243 10.3214 31.2248 10.2971 31.2248 10.2669C31.2248 10.2369 31.2125 10.2124 31.1975 10.2124C31.1824 10.2124 31.1702 10.194 31.1702 10.1716C31.1702 10.1491 31.1579 10.1307 31.1428 10.1307C31.1278 10.1307 31.1155 10.1062 31.1155 10.0763C31.1155 10.046 31.0973 10.0218 31.0745 10.0218C31.0491 10.0218 31.0336 9.99609 31.0336 9.95371C31.0336 9.91626 31.0232 9.88563 31.0105 9.88563C30.9979 9.88563 30.9644 9.84274 30.936 9.79031C30.9077 9.73789 30.8751 9.695 30.8635 9.695C30.8518 9.695 30.8423 9.67661 30.8423 9.65415C30.8423 9.63168 30.83 9.6133 30.815 9.6133C30.8 9.6133 30.7877 9.59671 30.7877 9.57642C30.7877 9.55613 30.757 9.50649 30.7194 9.4661C30.6818 9.42569 30.6511 9.37487 30.6511 9.35317C30.6511 9.33149 30.6388 9.31373 30.6238 9.31373C30.6088 9.31373 30.5965 9.29535 30.5965 9.27288C30.5965 9.25042 30.5842 9.23203 30.5692 9.23203C30.5541 9.23203 30.5418 9.20752 30.5418 9.17757C30.5418 9.14731 30.5236 9.1231 30.5009 9.1231C30.4781 9.1231 30.4599 9.09889 30.4599 9.06863C30.4599 9.03868 30.4476 9.01417 30.4326 9.01417C30.4175 9.01417 30.4053 8.99579 30.4053 8.97332C30.4053 8.95085 30.3938 8.93247 30.3798 8.93247C30.3658 8.93247 30.3456 8.90491 30.3349 8.87119C30.3242 8.83748 30.2927 8.79009 30.2648 8.76588C30.2369 8.74165 30.214 8.7036 30.214 8.68135C30.214 8.65908 30.1833 8.6078 30.1457 8.56741C30.1082 8.52699 30.0774 8.47618 30.0774 8.45447C30.0774 8.4328 30.0671 8.41504 30.0544 8.41504C30.0418 8.41504 30.0082 8.37215 29.9799 8.31972C29.9516 8.2673 29.9189 8.22441 29.9073 8.22441C29.8957 8.22441 29.8862 8.1999 29.8862 8.16994C29.8862 8.13998 29.8739 8.11548 29.8589 8.11548C29.8439 8.11548 29.8316 8.09709 29.8316 8.07463C29.8316 8.05216 29.8201 8.03378 29.8061 8.03378C29.7921 8.03378 29.7719 8.00622 29.7612 7.9725C29.7506 7.93879 29.719 7.8914 29.6911 7.86719C29.6632 7.84295 29.64 7.80619 29.6395 7.78549C29.6383 7.73486 29.5736 7.65251 29.5349 7.65251C29.5178 7.65251 29.5038 7.62713 29.5038 7.59611C29.5038 7.56507 29.4884 7.52261 29.4696 7.50172C29.3885 7.41161 29.3672 7.38081 29.3672 7.35409C29.3672 7.33849 29.3549 7.32571 29.3399 7.32571C29.3248 7.32571 29.3125 7.3012 29.3125 7.27125C29.3125 7.24129 29.3002 7.21678 29.2852 7.21678C29.2702 7.21678 29.2579 7.1984 29.2579 7.17593C29.2579 7.15347 29.2395 7.13508 29.2169 7.13508C29.1944 7.13508 29.1759 7.11289 29.1759 7.08576C29.1759 7.05861 29.1514 7.01011 29.1213 6.97795C29.0913 6.94581 29.0667 6.90061 29.0667 6.87751C29.0667 6.85442 29.0482 6.83552 29.0257 6.83552C29.0032 6.83552 28.9847 6.81714 28.9847 6.79467C28.9847 6.7722 28.9724 6.75382 28.9574 6.75382C28.9424 6.75382 28.9301 6.73642 28.9301 6.71518C28.9301 6.66659 28.8415 6.50913 28.814 6.50888C28.8027 6.5088 28.7935 6.49034 28.7935 6.46787C28.7935 6.4454 28.7812 6.42702 28.7662 6.42702C28.7512 6.42702 28.7389 6.40698 28.7389 6.3825C28.7389 6.35799 28.7081 6.30957 28.6706 6.27484C28.633 6.24015 28.6023 6.19279 28.6023 6.16961C28.6023 6.14641 28.59 6.12746 28.575 6.12746C28.5599 6.12746 28.5476 6.11433 28.5476 6.09829C28.5476 6.08222 28.5323 6.05202 28.5135 6.03113C28.4324 5.94102 28.411 5.91022 28.411 5.8835C28.411 5.8679 28.3988 5.85513 28.3837 5.85513C28.3687 5.85513 28.3564 5.83772 28.3564 5.81648C28.3564 5.7679 28.2678 5.61044 28.2403 5.61019C28.2291 5.61011 28.2198 5.59165 28.2198 5.56918C28.2198 5.54671 28.2098 5.52833 28.1976 5.52833C28.1853 5.52833 28.1548 5.48544 28.1297 5.43301C28.1046 5.38059 28.0716 5.3377 28.0564 5.3377C28.0411 5.3377 28.0286 5.31319 28.0286 5.28323C28.0286 5.25327 28.0163 5.22876 28.0013 5.22876C27.9863 5.22876 27.974 5.21564 27.974 5.1996C27.974 5.18353 27.9586 5.15333 27.9398 5.13244C27.8587 5.04233 27.8374 5.01153 27.8374 4.98481C27.8374 4.96921 27.8251 4.95643 27.8101 4.95643C27.795 4.95643 27.7827 4.93192 27.7827 4.90197C27.7827 4.87201 27.7713 4.8475 27.7573 4.8475C27.7432 4.8475 27.723 4.81991 27.7124 4.78623C27.7017 4.75251 27.6729 4.70657 27.6484 4.6841C27.6239 4.66164 27.5889 4.60921 27.5706 4.5676C27.5523 4.52599 27.5188 4.48484 27.4961 4.47618C27.4735 4.46752 27.4549 4.43108 27.4549 4.39524C27.4549 4.3594 27.4446 4.33007 27.4319 4.33007C27.4192 4.33007 27.3857 4.28718 27.3574 4.23476C27.3291 4.18233 27.2964 4.13944 27.2848 4.13944C27.2732 4.13944 27.2637 4.12106 27.2637 4.09859C27.2637 4.07612 27.2514 4.05774 27.2364 4.05774C27.2214 4.05774 27.2091 4.03323 27.2091 4.00327C27.2091 3.97302 27.1908 3.94881 27.1681 3.94881C27.1453 3.94881 27.1271 3.9246 27.1271 3.89434C27.1271 3.86439 27.1148 3.83988 27.0998 3.83988C27.0848 3.83988 27.0725 3.82149 27.0725 3.79903C27.0725 3.77656 27.0602 3.75818 27.0452 3.75818C27.0301 3.75818 27.0178 3.74034 27.0178 3.71855C27.0178 3.69677 26.9871 3.64832 26.9495 3.61087C26.912 3.57343 26.8812 3.52296 26.8812 3.49875C26.8812 3.44881 26.8179 3.37691 26.7739 3.37691C26.7578 3.37691 26.7447 3.34628 26.7447 3.30883C26.7447 3.27138 26.7346 3.24075 26.7224 3.24075C26.7102 3.24075 26.6796 3.19786 26.6545 3.14543C26.6295 3.09301 26.5965 3.05012 26.5812 3.05012C26.5659 3.05012 26.5534 3.02561 26.5534 2.99565C26.5534 2.96569 26.5411 2.94118 26.5261 2.94118C26.5111 2.94118 26.4988 2.92841 26.4988 2.91281C26.4988 2.88609 26.4774 2.85529 26.3964 2.76518C26.3776 2.74429 26.3622 2.71409 26.3622 2.69802C26.3622 2.68198 26.3499 2.66885 26.3349 2.66885C26.3199 2.66885 26.3076 2.64434 26.3076 2.61439C26.3076 2.58443 26.2953 2.55992 26.2803 2.55992C26.2652 2.55992 26.2529 2.54154 26.2529 2.51907C26.2529 2.4966 26.2345 2.47822 26.212 2.47822C26.1858 2.47822 26.171 2.45199 26.171 2.40559C26.171 2.36567 26.1628 2.3411 26.1529 2.35101C26.143 2.36093 26.1128 2.32008 26.0859 2.26025C26.0591 2.20039 26.0242 2.15142 26.0084 2.15142C25.9927 2.15142 25.9798 2.12691 25.9798 2.09696C25.9798 2.067 25.9675 2.04249 25.9524 2.04249C25.9374 2.04249 25.9251 2.02936 25.9251 2.01332C25.9251 1.99726 25.9098 1.96705 25.891 1.94617C25.8099 1.85605 25.7885 1.82525 25.7885 1.79854C25.7885 1.78293 25.7762 1.77016 25.7612 1.77016C25.7462 1.77016 25.7339 1.75012 25.7339 1.72563C25.7339 1.70112 25.7032 1.6527 25.6656 1.61798C25.628 1.58329 25.5973 1.54181 25.5973 1.52582C25.5973 1.48868 25.4601 1.26929 25.4293 1.25728C25.4165 1.25227 25.4061 1.23029 25.4061 1.20842C25.4061 1.18655 25.3753 1.1356 25.3378 1.09524C25.3002 1.05485 25.2695 1.00635 25.2695 0.987479C25.2695 0.968607 25.2572 0.953165 25.2422 0.953165C25.2271 0.953165 25.2149 0.934783 25.2149 0.912316C25.2149 0.889848 25.2026 0.871466 25.1875 0.871466C25.1725 0.871466 25.1602 0.846956 25.1602 0.817C25.1602 0.786744 25.142 0.762534 25.1192 0.762534C25.0967 0.762534 25.0783 0.744151 25.0783 0.721684C25.0783 0.699217 25.066 0.680834 25.0509 0.680834C25.0359 0.680834 25.0236 0.656324 25.0236 0.626368C25.0236 0.596412 25.0113 0.571902 24.9963 0.571902C24.9813 0.571902 24.969 0.553519 24.969 0.531052C24.969 0.508585 24.9551 0.490202 24.938 0.490202C24.921 0.490202 24.8872 0.468062 24.8629 0.441019C24.763 0.329854 24.6861 0.299571 24.5053 0.300306C24.3859 0.300769 24.3022 0.316373 24.2519 0.347446ZM24.2857 1.7569C24.2669 1.77955 24.2377 1.79524 24.221 1.7917C24.2041 1.78819 24.1548 1.81866 24.1113 1.85943C24.0678 1.9002 24.0094 1.93356 23.9816 1.93356C23.9537 1.93356 23.9309 1.94655 23.9309 1.9624C23.9309 1.97825 23.9186 1.98367 23.9036 1.97441C23.8886 1.96515 23.8763 1.96978 23.8763 1.98473C23.8763 1.99965 23.8148 2.04521 23.7397 2.08598C23.6646 2.12672 23.6031 2.17111 23.6031 2.18459C23.6031 2.19807 23.5922 2.20238 23.5789 2.19418C23.5656 2.18598 23.5383 2.19889 23.5183 2.22291C23.4983 2.24693 23.417 2.30311 23.3377 2.34775C23.2583 2.39241 23.1933 2.43906 23.1933 2.45142C23.1933 2.46379 23.1559 2.48209 23.1102 2.49208C23.0645 2.5021 22.9989 2.54061 22.9644 2.5777C22.9299 2.61479 22.8822 2.64799 22.8583 2.65148C22.8345 2.65499 22.7925 2.68233 22.7651 2.71229C22.7377 2.74225 22.7214 2.75333 22.7289 2.73693C22.7364 2.72054 22.7237 2.7261 22.7007 2.74927C22.6776 2.77245 22.6415 2.79524 22.6204 2.7999C22.5994 2.80458 22.5615 2.83214 22.5362 2.86117C22.511 2.8902 22.4751 2.91395 22.4565 2.91395C22.4379 2.91395 22.3982 2.94486 22.3684 2.98266C22.3386 3.02046 22.3 3.04963 22.2825 3.04753C22.2166 3.03949 22.1799 3.05101 22.1948 3.07503C22.2033 3.08873 22.1551 3.12095 22.0877 3.1466C22.0203 3.17226 21.9712 3.20306 21.9786 3.21504C21.9861 3.22702 21.9688 3.24421 21.9403 3.25322C21.9119 3.26223 21.8609 3.2935 21.8272 3.32269C21.7934 3.35189 21.755 3.36918 21.742 3.36112C21.7289 3.35306 21.7182 3.36016 21.7182 3.37691C21.7182 3.39366 21.704 3.39862 21.6866 3.38794C21.6671 3.37588 21.6625 3.38045 21.6746 3.39998C21.6943 3.43181 21.5672 3.50115 21.5133 3.48797C21.4983 3.48432 21.495 3.49034 21.5061 3.50137C21.5334 3.5286 21.3663 3.64875 21.3237 3.6325C21.3051 3.62536 21.2741 3.63846 21.2548 3.66161C21.2355 3.68478 21.2021 3.70371 21.1805 3.70371C21.1589 3.70371 21.1485 3.71545 21.1574 3.72977C21.1663 3.74412 21.1363 3.77509 21.0908 3.79856C21.0452 3.82207 21.0079 3.83318 21.0079 3.82329C21.0079 3.81341 20.9824 3.83759 20.9513 3.87705C20.9202 3.91651 20.8838 3.94881 20.8705 3.94881C20.8419 3.94881 20.6655 4.06283 20.5752 4.13969C20.5401 4.16961 20.5001 4.18721 20.4864 4.17879C20.4727 4.17035 20.4615 4.17716 20.4615 4.19391C20.4615 4.21065 20.4493 4.21678 20.4342 4.20752C20.4192 4.19826 20.4069 4.20219 20.4069 4.21624C20.4069 4.23026 20.3709 4.25662 20.3269 4.27479C20.2829 4.29295 20.24 4.32585 20.2315 4.34791C20.223 4.36994 20.2037 4.38037 20.1886 4.37103C20.1734 4.36172 20.161 4.364 20.1609 4.37612C20.1607 4.39717 20.0029 4.50156 19.9656 4.50529C19.9558 4.50627 19.9092 4.54126 19.8622 4.58301C19.8152 4.62476 19.7661 4.6524 19.7532 4.64445C19.7403 4.63647 19.7227 4.64826 19.714 4.67065C19.7054 4.69303 19.6804 4.71134 19.6585 4.71134C19.6365 4.71134 19.599 4.73083 19.5751 4.75466C19.5512 4.77852 19.5125 4.80082 19.489 4.80426C19.4656 4.80769 19.4353 4.828 19.4217 4.84941C19.4081 4.87084 19.3968 4.87975 19.3966 4.86923C19.3963 4.85872 19.3639 4.87994 19.3244 4.91637C19.285 4.95281 19.2419 4.97601 19.2288 4.96793C19.2157 4.95984 19.2049 4.96692 19.2049 4.98367C19.2049 5.00042 19.194 5.00741 19.1807 4.99919C19.1674 4.99099 19.1497 5.01025 19.1414 5.04197C19.1313 5.08045 19.112 5.09423 19.0836 5.08337C19.0602 5.07441 19.041 5.07896 19.041 5.09344C19.041 5.10796 19.0239 5.11983 19.003 5.11983C18.982 5.11983 18.9584 5.13664 18.9505 5.1572C18.9357 5.19576 18.6882 5.32795 18.6517 5.31676C18.6405 5.3133 18.6312 5.32958 18.6312 5.35292C18.6312 5.37626 18.619 5.38781 18.6039 5.37855C18.5889 5.36929 18.5766 5.37471 18.5766 5.39056C18.5766 5.40641 18.5638 5.4194 18.5481 5.4194C18.5325 5.4194 18.4933 5.44391 18.4611 5.47386C18.4288 5.50382 18.3801 5.52833 18.3529 5.52833C18.3257 5.52833 18.3034 5.54058 18.3034 5.55556C18.3034 5.57054 18.2857 5.5828 18.2641 5.5828C18.2424 5.5828 18.2159 5.59696 18.2052 5.61425C18.1923 5.63503 18.1978 5.63821 18.2215 5.62364C18.2453 5.60897 18.2507 5.61223 18.2375 5.6335C18.2266 5.65104 18.2071 5.65886 18.1942 5.65088C18.1812 5.6429 18.1628 5.64903 18.1532 5.66449C18.1436 5.67996 18.1252 5.68609 18.1122 5.67811C18.0993 5.67013 18.0798 5.67795 18.0689 5.69549C18.0557 5.71676 18.061 5.72002 18.0849 5.70534C18.1069 5.69176 18.114 5.69402 18.1034 5.7112C18.0939 5.72656 18.0151 5.77433 17.9284 5.81738C17.8417 5.86044 17.7545 5.91741 17.7347 5.94393C17.7149 5.97049 17.6881 5.98568 17.6751 5.97768C17.6622 5.9697 17.6437 5.97582 17.6341 5.99129C17.6246 6.00676 17.6034 6.0112 17.587 6.00115C17.5705 5.99094 17.5652 5.9954 17.575 6.01123C17.5959 6.04494 17.5657 6.07032 17.4019 6.15695C17.3343 6.19274 17.2386 6.25586 17.1893 6.29728C17.1066 6.36662 17.0668 6.38429 17.0127 6.37577C17.0014 6.374 16.9922 6.38481 16.9922 6.39979C16.9922 6.41477 16.9827 6.42397 16.9711 6.42021C16.9596 6.41648 16.9136 6.44709 16.869 6.4883C16.8244 6.52947 16.7662 6.56319 16.7398 6.56319C16.7133 6.56319 16.6917 6.57528 16.6917 6.59007C16.6917 6.61812 16.4826 6.76104 16.4283 6.77013C16.4112 6.77302 16.3577 6.81036 16.3096 6.85311C16.2614 6.89587 16.2184 6.92471 16.2139 6.91722C16.2094 6.90973 16.1819 6.92506 16.1528 6.95131C16.1237 6.97757 16.0917 6.99083 16.0816 6.98083C16.0716 6.97081 16.0634 6.97762 16.0634 6.99598C16.0634 7.01433 16.0512 7.02185 16.0363 7.01267C16.0214 7.00349 15.9778 7.02729 15.9394 7.06553C15.901 7.10379 15.8628 7.13508 15.8544 7.13508C15.8459 7.13508 15.8025 7.16572 15.7579 7.20317C15.7133 7.24061 15.662 7.27125 15.6439 7.27125C15.6259 7.27125 15.5896 7.29628 15.5633 7.32689C15.5371 7.35747 15.5017 7.37394 15.4847 7.36351C15.4666 7.35238 15.4615 7.35671 15.4722 7.374C15.487 7.39794 15.4204 7.4389 15.3531 7.44728C15.3456 7.44821 15.2718 7.49892 15.1892 7.55995C15 7.69971 14.9289 7.73745 14.9016 7.71283C14.8897 7.70213 14.8879 7.70731 14.8977 7.72433C14.9178 7.7594 14.8523 7.82506 14.8247 7.79753C14.8148 7.78767 14.8067 7.79521 14.8067 7.81428C14.8067 7.8359 14.789 7.84219 14.7598 7.831C14.7339 7.82111 14.7212 7.82144 14.7315 7.83171C14.7566 7.85671 14.6388 7.94682 14.5329 7.98364C14.486 7.99992 14.4089 8.04851 14.3616 8.09159C14.3143 8.1347 14.2617 8.16994 14.2449 8.16994C14.228 8.16994 14.1922 8.19415 14.1653 8.22375C14.1385 8.25336 14.1059 8.27103 14.0928 8.263C14.0798 8.25499 14.0691 8.25834 14.0689 8.27046C14.0688 8.28258 13.992 8.34129 13.8982 8.40096C13.8044 8.46063 13.7113 8.52509 13.6913 8.54418C13.6714 8.5633 13.6437 8.57198 13.6299 8.56346C13.6161 8.55496 13.6048 8.56098 13.6048 8.57683C13.6048 8.59268 13.5736 8.60567 13.5356 8.60567C13.4971 8.60567 13.4589 8.6252 13.4495 8.64976C13.4401 8.674 13.3767 8.72915 13.3084 8.77231L13.1843 8.85077H14.2687C14.9734 8.85077 15.3531 8.84124 15.3531 8.82354C15.3531 8.80856 15.3777 8.7963 15.4077 8.7963C15.4378 8.7963 15.4624 8.78405 15.4624 8.76907C15.4624 8.75409 15.4752 8.74184 15.4908 8.74184C15.5176 8.74184 15.5485 8.72054 15.6389 8.63971C15.6599 8.621 15.6969 8.60567 15.7212 8.60567C15.7455 8.60567 15.7961 8.57503 15.8337 8.53759C15.8712 8.50014 15.9198 8.46951 15.9417 8.46951C15.9635 8.46951 15.9814 8.45918 15.9814 8.44655C15.9814 8.43394 16.0244 8.40052 16.077 8.37228C16.1296 8.34404 16.1726 8.3115 16.1726 8.29993C16.1726 8.28835 16.1911 8.27887 16.2136 8.27887C16.2362 8.27887 16.2546 8.26662 16.2546 8.25164C16.2546 8.23666 16.2792 8.22441 16.3092 8.22441C16.3393 8.22441 16.3639 8.21409 16.3639 8.20145C16.3639 8.18884 16.4069 8.15543 16.4595 8.12719C16.5121 8.09894 16.5551 8.0664 16.5551 8.05483C16.5551 8.04325 16.5829 8.03378 16.6169 8.03378C16.6509 8.03378 16.7018 8.00319 16.73 7.96569C16.7582 7.92825 16.7986 7.89761 16.8197 7.89761C16.8408 7.89761 16.8888 7.86697 16.9264 7.82953C16.9639 7.79208 17.0098 7.76144 17.0284 7.76144C17.0469 7.76144 17.0798 7.73693 17.1014 7.70698C17.1231 7.67702 17.1632 7.65251 17.1906 7.65251C17.218 7.65251 17.2736 7.62187 17.3141 7.58443C17.3546 7.54698 17.4032 7.51635 17.4222 7.51635C17.4411 7.51635 17.4566 7.50409 17.4566 7.48911C17.4566 7.47414 17.4756 7.46188 17.4989 7.46188C17.5221 7.46188 17.5696 7.43124 17.6044 7.3938C17.6393 7.35635 17.6878 7.32571 17.7124 7.32571C17.737 7.32571 17.7571 7.31346 17.7571 7.29848C17.7571 7.2835 17.7755 7.27125 17.7981 7.27125C17.8206 7.27125 17.839 7.25981 17.839 7.24584C17.839 7.23187 17.8667 7.21174 17.9005 7.2011C17.9343 7.19048 17.9818 7.15899 18.0061 7.13119C18.0304 7.10338 18.0765 7.08062 18.1086 7.08062C18.1406 7.08062 18.1668 7.06452 18.1668 7.04486C18.1668 7.02517 18.2099 6.99225 18.2625 6.97168C18.315 6.95112 18.3581 6.92433 18.3581 6.91213C18.3581 6.89995 18.3771 6.88998 18.4004 6.88998C18.4236 6.88998 18.4711 6.85935 18.5059 6.8219C18.5407 6.78446 18.5893 6.75382 18.6139 6.75382C18.6385 6.75382 18.6586 6.74156 18.6586 6.72659C18.6586 6.71161 18.6714 6.69935 18.687 6.69935C18.7138 6.69935 18.7447 6.67806 18.8351 6.59723C18.8561 6.57852 18.8864 6.56319 18.9025 6.56319C18.9186 6.56319 18.9317 6.55385 18.9317 6.54241C18.9317 6.531 18.9551 6.50954 18.9837 6.49475C19.0123 6.47996 19.083 6.44382 19.1408 6.41444C19.1986 6.38506 19.2608 6.34829 19.2791 6.33274C19.3773 6.24914 19.3962 6.23639 19.4223 6.23639C19.438 6.23639 19.4508 6.22414 19.4508 6.20916C19.4508 6.19418 19.4698 6.18192 19.493 6.18192C19.5162 6.18192 19.5683 6.15129 19.6088 6.11384C19.6493 6.0764 19.6979 6.04576 19.7169 6.04576C19.7358 6.04576 19.7513 6.0335 19.7513 6.01853C19.7513 6.00355 19.7644 5.99129 19.7805 5.99129C19.7967 5.99129 19.8284 5.9728 19.851 5.9502C19.8737 5.92759 19.9036 5.91605 19.9174 5.92457C19.9312 5.93307 19.9425 5.92686 19.9425 5.91076C19.9425 5.89464 19.9855 5.86104 20.0381 5.83604C20.0907 5.81104 20.1337 5.78059 20.1337 5.76839C20.1337 5.75619 20.1503 5.74619 20.1704 5.74619C20.1907 5.74619 20.2429 5.71558 20.2865 5.67814C20.3302 5.64072 20.3875 5.61008 20.4137 5.61006C20.44 5.61006 20.4615 5.59165 20.4615 5.56918C20.4615 5.54671 20.48 5.52833 20.5025 5.52833C20.5251 5.52833 20.5435 5.51607 20.5435 5.5011C20.5435 5.48612 20.5681 5.47386 20.5981 5.47386C20.6282 5.47386 20.6528 5.46161 20.6528 5.44663C20.6528 5.43165 20.6659 5.4194 20.682 5.4194C20.6981 5.4194 20.7284 5.40406 20.7494 5.38536C20.8444 5.30039 20.8718 5.28323 20.9124 5.28323C20.9362 5.28323 20.9865 5.25259 21.024 5.21515C21.0616 5.1777 21.1075 5.14707 21.1261 5.14707C21.1446 5.14707 21.1775 5.12256 21.1991 5.0926C21.2208 5.06264 21.2665 5.03813 21.3008 5.03813C21.3379 5.03813 21.363 5.02166 21.363 4.99728C21.363 4.97482 21.3815 4.95643 21.404 4.95643C21.4265 4.95643 21.445 4.94418 21.445 4.9292C21.445 4.91422 21.4696 4.90197 21.4996 4.90197C21.5297 4.90197 21.5543 4.88971 21.5543 4.87473C21.5543 4.85976 21.585 4.8475 21.6226 4.8475C21.6651 4.8475 21.6909 4.83206 21.6909 4.80665C21.6909 4.77492 21.727 4.7658 21.8528 4.7658C21.9603 4.7658 22.0285 4.77953 22.0557 4.80665C22.0783 4.82912 22.116 4.8475 22.1397 4.8475C22.1633 4.8475 22.1826 4.85976 22.1826 4.87473C22.1826 4.88971 22.201 4.90197 22.2235 4.90197C22.2461 4.90197 22.2645 4.91509 22.2645 4.93113C22.2645 4.9472 22.2799 4.97648 22.2987 4.99622C22.3175 5.01594 22.3574 5.06602 22.3875 5.1075C22.4541 5.19941 22.6662 5.4194 22.6882 5.4194C22.6969 5.4194 22.7348 5.45003 22.7724 5.48748C22.81 5.52492 22.8586 5.55556 22.8804 5.55556C22.9023 5.55556 22.9202 5.56782 22.9202 5.5828C22.9202 5.59777 22.9447 5.61003 22.9748 5.61003C23.0048 5.61003 23.0294 5.62228 23.0294 5.63726C23.0294 5.65224 23.0602 5.66449 23.0977 5.66449C23.1353 5.66449 23.166 5.67514 23.166 5.68813C23.166 5.70115 23.218 5.71874 23.2815 5.72724C23.3451 5.73574 23.4014 5.75573 23.4067 5.77166C23.4199 5.81087 24.114 5.81136 24.1271 5.77217C24.1324 5.75649 24.1856 5.73767 24.2455 5.73032C24.3054 5.72296 24.3584 5.70515 24.3634 5.69072C24.3685 5.67629 24.4023 5.66449 24.4386 5.66449C24.4749 5.66449 24.5046 5.65224 24.5046 5.63726C24.5046 5.62228 24.5292 5.61003 24.5592 5.61003C24.5893 5.61003 24.6139 5.59911 24.6139 5.58574C24.6139 5.57239 24.6446 5.55376 24.6822 5.54437C24.7197 5.53497 24.7505 5.51526 24.7505 5.50058C24.7505 5.48522 24.8491 5.47386 24.9827 5.47386C25.1192 5.47386 25.2149 5.48508 25.2149 5.5011C25.2149 5.51607 25.2337 5.52833 25.2567 5.52833C25.2797 5.52833 25.3056 5.54671 25.3142 5.56918C25.3229 5.59165 25.3471 5.61003 25.368 5.61003C25.389 5.61003 25.4061 5.62841 25.4061 5.65088C25.4061 5.67335 25.4184 5.69173 25.4334 5.69173C25.4484 5.69173 25.4607 5.71049 25.4607 5.73342C25.4607 5.75638 25.4792 5.7822 25.5017 5.7908C25.5242 5.79943 25.5427 5.82969 25.5427 5.85804C25.5427 5.88639 25.555 5.90959 25.57 5.90959C25.585 5.90959 25.5973 5.92798 25.5973 5.95044C25.5973 5.97291 25.6068 5.99129 25.6184 5.99129C25.63 5.99129 25.6627 6.03418 25.691 6.08661C25.7193 6.13903 25.7529 6.18192 25.7655 6.18192C25.7782 6.18192 25.7885 6.20698 25.7885 6.23762C25.7885 6.26825 25.8193 6.32397 25.8568 6.36142C25.8944 6.39886 25.9251 6.44731 25.9251 6.4691C25.9251 6.49088 25.9374 6.50872 25.9524 6.50872C25.9675 6.50872 25.9798 6.52185 25.9798 6.53789C25.9798 6.55396 25.9951 6.58416 26.0139 6.60504C26.0989 6.69949 26.1163 6.72699 26.1163 6.76629C26.1163 6.78939 26.1286 6.80829 26.1437 6.80829C26.1587 6.80829 26.171 6.82141 26.171 6.83745C26.171 6.85352 26.1864 6.88372 26.2051 6.90461C26.2862 6.99472 26.3076 7.02552 26.3076 7.05224C26.3076 7.06784 26.3199 7.08062 26.3349 7.08062C26.3499 7.08062 26.3622 7.10513 26.3622 7.13508C26.3622 7.16504 26.3747 7.18955 26.39 7.18955C26.4052 7.18955 26.4382 7.23244 26.4633 7.28487C26.4884 7.33729 26.5189 7.38018 26.5312 7.38018C26.5434 7.38018 26.5534 7.39856 26.5534 7.42103C26.5534 7.4435 26.5626 7.46196 26.5739 7.46204C26.6014 7.46229 26.69 7.61975 26.69 7.66833C26.69 7.68958 26.7023 7.70698 26.7173 7.70698C26.7324 7.70698 26.7447 7.72536 26.7447 7.74783C26.7447 7.7703 26.7631 7.78868 26.7856 7.78868C26.8084 7.78868 26.8266 7.81289 26.8266 7.84314C26.8266 7.8731 26.8389 7.89761 26.8539 7.89761C26.869 7.89761 26.8812 7.91599 26.8812 7.93846C26.8812 7.96093 26.8935 7.97931 26.9086 7.97931C26.9236 7.97931 26.9359 8.00382 26.9359 8.03378C26.9359 8.06403 26.9541 8.08824 26.9769 8.08824C26.9994 8.08824 27.0178 8.10662 27.0178 8.12909C27.0178 8.15156 27.0301 8.16994 27.0452 8.16994C27.0602 8.16994 27.0725 8.19445 27.0725 8.22441C27.0725 8.25436 27.0848 8.27887 27.0998 8.27887C27.1148 8.27887 27.1271 8.29726 27.1271 8.31972C27.1271 8.34219 27.1363 8.36066 27.1476 8.36074C27.1751 8.36098 27.2637 8.51844 27.2637 8.56703C27.2637 8.58827 27.2821 8.60567 27.3047 8.60567C27.3272 8.60567 27.3457 8.62405 27.3457 8.64652C27.3457 8.66899 27.3579 8.68737 27.373 8.68737C27.388 8.68737 27.4003 8.70662 27.4003 8.73015C27.4003 8.83326 27.4655 8.85077 27.8491 8.85077C28.1604 8.85077 28.2198 8.85731 28.2198 8.89162C28.2198 8.91703 28.2456 8.93247 28.2881 8.93247C28.3257 8.93247 28.3564 8.94472 28.3564 8.9597C28.3564 8.97468 28.378 8.98693 28.4044 8.98693C28.4322 8.98693 28.4861 9.04132 28.5324 9.11629L28.6124 9.24565L28.6146 12.0098C28.616 13.8071 28.6262 14.7729 28.6437 14.771C28.6999 14.7648 28.7935 14.726 28.7935 14.7089C28.7935 14.6991 28.8365 14.668 28.8891 14.6397C28.9417 14.6115 28.9847 14.5781 28.9847 14.5654C28.9847 14.5528 29.0093 14.5425 29.0394 14.5425C29.0694 14.5425 29.094 14.5302 29.094 14.5153C29.094 14.5003 29.1111 14.488 29.132 14.488C29.153 14.488 29.1772 14.4696 29.1858 14.4472C29.1945 14.4247 29.2204 14.4063 29.2434 14.4063C29.2664 14.4063 29.2852 14.3941 29.2852 14.3791C29.2852 14.3641 29.3037 14.3519 29.3262 14.3519C29.3487 14.3519 29.3672 14.3396 29.3672 14.3246C29.3672 14.3096 29.3912 14.2974 29.4204 14.2974C29.4498 14.2974 29.4835 14.2821 29.4956 14.2633C29.5076 14.2446 29.5543 14.2108 29.5994 14.1884C29.6445 14.166 29.6963 14.1354 29.7145 14.1204C29.7328 14.1054 29.7661 14.0778 29.7885 14.0591C29.8109 14.0404 29.8421 14.0251 29.8577 14.0251C29.8734 14.0251 29.8862 14.0128 29.8862 13.9978C29.8862 13.9829 29.9108 13.9706 29.9408 13.9706C29.9709 13.9706 29.9955 13.9603 29.9955 13.9476C29.9955 13.935 30.0385 13.9016 30.0911 13.8734C30.1437 13.8451 30.1867 13.8126 30.1867 13.801C30.1867 13.7894 30.2052 13.78 30.2277 13.78C30.2502 13.78 30.2687 13.7708 30.2688 13.7595C30.269 13.734 30.4256 13.6438 30.4697 13.6438C30.4877 13.6438 30.5202 13.6193 30.5418 13.5893C30.5635 13.5594 30.5964 13.5349 30.6149 13.5349C30.6335 13.5349 30.6794 13.5042 30.7169 13.4668C30.7545 13.4293 30.8048 13.3987 30.8287 13.3987C30.8527 13.3987 30.9007 13.3681 30.9355 13.3306C30.9704 13.2932 31.0189 13.2625 31.0435 13.2625C31.0681 13.2625 31.0882 13.2503 31.0882 13.2353C31.0882 13.2203 31.1014 13.2081 31.1175 13.2081C31.1336 13.2081 31.1639 13.1928 31.1848 13.174C31.281 13.088 31.3077 13.0719 31.3537 13.0719C31.3809 13.0719 31.4261 13.0413 31.4543 13.0038C31.4825 12.9664 31.5285 12.9357 31.5564 12.9357C31.5844 12.9357 31.6072 12.9235 31.6072 12.9085C31.6072 12.8935 31.5888 12.8813 31.5663 12.8813C31.5437 12.8813 31.5253 12.8633 31.5253 12.8414C31.5253 12.8195 31.4996 12.7878 31.4683 12.7711C31.437 12.7544 31.4178 12.7343 31.4257 12.7264C31.4336 12.7185 31.4193 12.6897 31.3939 12.6623C31.3685 12.635 31.3231 12.5661 31.2931 12.5093C31.263 12.4525 31.2151 12.3824 31.1865 12.3535C31.1363 12.3028 31.1362 12.2999 31.1845 12.2647C31.212 12.2446 31.2255 12.2193 31.2145 12.2083C31.2035 12.1974 31.1853 12.2032 31.1741 12.2212C31.1484 12.2628 31.0252 12.1844 31.0414 12.1366C31.0472 12.1193 31.0354 12.0929 31.0152 12.0779C30.9949 12.0629 30.9733 12.0247 30.9672 11.9928C30.9611 11.9611 30.9243 11.9034 30.8856 11.8647C30.8468 11.8261 30.815 11.7686 30.815 11.7371C30.815 11.7056 30.8058 11.6854 30.7945 11.6922C30.7698 11.7071 30.7226 11.6551 30.7111 11.6003C30.7065 11.5784 30.6869 11.5482 30.6676 11.5332C30.6288 11.5032 30.4039 11.1425 30.3964 11.0982C30.3938 11.0828 30.3793 11.0615 30.3643 11.0508C30.3493 11.0401 30.337 11.0192 30.337 11.0044C30.337 10.9895 30.3141 10.9606 30.2861 10.9402C30.2379 10.9051 30.2377 10.9007 30.2825 10.8561C30.3086 10.8302 30.3215 10.8007 30.3114 10.7906C30.3013 10.7805 30.2816 10.7903 30.2677 10.8123C30.2468 10.8454 30.2303 10.8385 30.1736 10.7733C30.0989 10.6874 30.0869 10.6612 30.1363 10.6916C30.1549 10.7031 30.1605 10.6991 30.1498 10.6819C30.1399 10.6659 30.1472 10.6473 30.1661 10.6406C30.1849 10.6339 30.1905 10.6179 30.1784 10.605C30.1663 10.5922 30.1457 10.5989 30.1327 10.62C30.1128 10.6519 30.1017 10.6523 30.0652 10.6221C30.0412 10.6022 30.0273 10.5801 30.0345 10.5729C30.0417 10.5658 30.0275 10.54 30.003 10.5156C29.9618 10.4745 29.9619 10.4705 30.0043 10.4623C30.0295 10.4575 30.0501 10.4415 30.0501 10.4267C30.0501 10.4119 30.0381 10.4073 30.0234 10.4163C30.0087 10.4254 29.9718 10.4196 29.9414 10.4034C29.8804 10.3708 29.8668 10.2783 29.9204 10.2593C29.9392 10.2526 29.9456 10.2376 29.9347 10.2259C29.9238 10.2142 29.8938 10.2217 29.868 10.2426C29.8422 10.2634 29.8297 10.2662 29.8402 10.2488C29.8506 10.2314 29.8438 10.2119 29.8249 10.2056C29.7984 10.1967 29.7998 10.1822 29.8307 10.142C29.8527 10.1133 29.8599 10.0991 29.8465 10.1104C29.8332 10.1216 29.797 10.1094 29.766 10.0831C29.7112 10.0367 29.7107 10.0369 29.7501 10.0899C29.787 10.1395 29.7866 10.1412 29.7457 10.1094C29.7211 10.0902 29.6847 10.0355 29.6649 9.98802C29.6452 9.94048 29.6051 9.87776 29.5759 9.84862C29.527 9.79987 29.5264 9.79304 29.5679 9.76275C29.5927 9.74464 29.613 9.72051 29.613 9.70908C29.613 9.69766 29.5957 9.7027 29.5744 9.72027C29.5439 9.74557 29.5239 9.73949 29.4788 9.69124C29.4186 9.62678 29.4033 9.55883 29.4491 9.55883C29.4642 9.55883 29.4764 9.54412 29.4764 9.52615C29.4764 9.50074 29.4692 9.50074 29.4437 9.52615C29.4256 9.54412 29.399 9.55883 29.3845 9.55883C29.37 9.55883 29.3663 9.55063 29.3764 9.54061C29.3864 9.53059 29.3743 9.49995 29.3493 9.47253C29.3245 9.4451 29.3149 9.42266 29.3281 9.42266C29.3412 9.42266 29.3247 9.40357 29.2913 9.38026C29.2579 9.35695 29.2306 9.3191 29.2306 9.29614C29.2306 9.27316 29.2029 9.23005 29.1691 9.20028C29.1353 9.17054 29.1228 9.15382 29.1413 9.16316C29.1617 9.17348 29.1566 9.14845 29.1283 9.0993C29.1027 9.05483 29.0722 9.02435 29.0606 9.03154C29.0489 9.03873 29.0394 9.02479 29.0394 9.00055C29.0394 8.97419 29.0267 8.96428 29.0078 8.97591C28.9879 8.98819 28.9837 8.98337 28.9964 8.96289C29.0083 8.94369 28.9766 8.88631 28.9187 8.82242C28.8649 8.76305 28.8205 8.69916 28.8201 8.68048C28.8196 8.6618 28.7828 8.59837 28.7381 8.53955C28.6934 8.4807 28.6569 8.42168 28.6569 8.40837C28.6569 8.39505 28.6262 8.34402 28.5886 8.29491C28.5511 8.24581 28.5203 8.19298 28.5203 8.17751C28.5203 8.16202 28.495 8.13255 28.4642 8.11199C28.4156 8.07966 28.3944 8.03413 28.3858 7.94366C28.3847 7.93154 28.3727 7.92841 28.3593 7.93669C28.3379 7.9499 28.312 7.91251 28.2991 7.84968C28.2969 7.8386 28.2719 7.80031 28.2438 7.76458C28.2156 7.72885 28.1925 7.68794 28.1925 7.67362C28.1925 7.65932 28.1648 7.62501 28.131 7.59737C28.0781 7.55406 28.0743 7.53941 28.1037 7.49127C28.1491 7.41697 28.1475 7.38383 28.1016 7.44649C28.0673 7.49323 28.062 7.49181 28.0063 7.42125C27.9739 7.38015 27.9541 7.33574 27.9623 7.3225C27.9705 7.30929 27.9642 7.29848 27.9483 7.29848C27.9324 7.29848 27.9193 7.2801 27.9193 7.25763C27.9193 7.23516 27.907 7.21678 27.892 7.21678C27.877 7.21678 27.8647 7.1984 27.8647 7.17593C27.8647 7.15347 27.8524 7.13508 27.8374 7.13508C27.8223 7.13508 27.8101 7.12283 27.8101 7.10785C27.8101 7.09287 27.785 7.05567 27.7544 7.02517C27.7238 6.99464 27.7061 6.95788 27.7151 6.94347C27.724 6.92904 27.7203 6.91722 27.7068 6.91722C27.6933 6.91722 27.6668 6.88353 27.648 6.84233C27.6292 6.80115 27.6174 6.76744 27.6219 6.76744C27.6263 6.76744 27.5946 6.73211 27.5512 6.68892C27.4796 6.61744 27.4766 6.60741 27.5184 6.57699C27.579 6.53274 27.5768 6.50107 27.5144 6.52081C27.4788 6.53206 27.4415 6.50728 27.3838 6.43413C27.2168 6.22223 27.1824 6.13574 27.28 6.1731C27.3011 6.18116 27.3183 6.17275 27.3183 6.15442C27.3183 6.13383 27.2961 6.12691 27.2601 6.13628C27.2271 6.14489 27.1849 6.13446 27.1626 6.11223C27.1409 6.09064 27.1321 6.07299 27.1431 6.07299C27.154 6.07299 27.1435 6.05156 27.1198 6.02533C27.0962 5.99911 27.0727 5.95929 27.0678 5.93683C27.0629 5.91436 27.0465 5.88723 27.0315 5.87653C27.0165 5.86586 27.0042 5.84717 27.0042 5.83503C27.0042 5.82288 26.989 5.79486 26.9704 5.77275C26.8334 5.60954 26.7978 5.5527 26.8152 5.52468C26.8261 5.50709 26.8235 5.49979 26.8095 5.50845C26.7821 5.52533 26.7388 5.46332 26.5194 5.0926C26.4707 5.01022 26.4338 4.93361 26.4375 4.92239C26.4412 4.91117 26.425 4.90197 26.4016 4.90197C26.3782 4.90197 26.366 4.89069 26.3745 4.87694C26.3831 4.86316 26.3685 4.8304 26.3422 4.80415C26.2971 4.75924 26.253 4.69342 26.2083 4.60447C26.1976 4.58315 26.1651 4.54211 26.1362 4.51324C26.0979 4.47509 26.0918 4.45262 26.1136 4.43083C26.1576 4.38699 26.1504 4.35725 26.0959 4.35771C26.055 4.35807 26.054 4.36199 26.089 4.38454C26.1152 4.4014 26.1179 4.41109 26.0966 4.41136C26.0782 4.41158 26.044 4.37501 26.0207 4.33007C25.9974 4.28514 25.9848 4.24837 25.9927 4.24837C26.0006 4.24837 25.9813 4.22264 25.9497 4.19118C25.908 4.1496 25.9005 4.12582 25.9224 4.10404C25.9389 4.08756 25.9522 4.0612 25.952 4.04549C25.9518 4.02975 25.9393 4.03527 25.9242 4.05774C25.9011 4.09225 25.8863 4.08672 25.829 4.02217C25.7917 3.98015 25.7612 3.92808 25.7612 3.90643C25.7612 3.88481 25.7482 3.86711 25.7323 3.86711C25.7164 3.86711 25.7105 3.85562 25.7192 3.84154C25.7279 3.82748 25.7133 3.80336 25.6867 3.78791C25.6601 3.77247 25.648 3.75946 25.6598 3.75899C25.6818 3.75818 25.6483 3.71177 25.5646 3.6268C25.5326 3.59434 25.5261 3.56733 25.5437 3.5396C25.5774 3.48647 25.5765 3.45861 25.5411 3.45861C25.5252 3.45861 25.5192 3.47002 25.5278 3.48397C25.5365 3.49791 25.5323 3.51626 25.5185 3.52479C25.4921 3.54102 25.428 3.39137 25.4513 3.36809C25.4588 3.36071 25.4404 3.34693 25.4107 3.33751C25.3451 3.31678 25.3117 3.24225 25.3505 3.20352C25.3661 3.18805 25.3788 3.16324 25.3788 3.1484C25.3788 3.13356 25.3634 3.14137 25.3446 3.1658C25.3186 3.19968 25.3036 3.20251 25.2816 3.17781C25.2657 3.16 25.2501 3.13636 25.2467 3.12528C25.2434 3.11422 25.2331 3.08541 25.2238 3.06128C25.2145 3.03713 25.2237 3.00703 25.2442 2.99437C25.2648 2.98173 25.272 2.96188 25.2604 2.95025C25.2487 2.93865 25.2281 2.94701 25.2146 2.96885C25.1938 3.00232 25.1823 2.9999 25.141 2.95341C25.0503 2.85145 24.9613 2.71534 24.9995 2.73704C25.0203 2.74889 25.0069 2.72928 24.9699 2.6935C24.9117 2.63732 24.9088 2.62719 24.9494 2.6194C24.9752 2.61444 24.9963 2.59772 24.9963 2.58225C24.9963 2.56675 24.9809 2.56 24.962 2.56722C24.9432 2.57443 24.912 2.56349 24.8926 2.5429C24.8734 2.52231 24.8673 2.50507 24.8791 2.50464C24.891 2.50417 24.8789 2.49116 24.8523 2.47571C24.8257 2.46027 24.8111 2.43614 24.8198 2.42209C24.8285 2.40801 24.8151 2.39652 24.7901 2.39652C24.7609 2.39652 24.7502 2.3819 24.7603 2.35567C24.769 2.3332 24.765 2.31482 24.7515 2.31482C24.7223 2.31482 24.6208 2.17795 24.6087 2.12228C24.604 2.10085 24.5795 2.06422 24.5542 2.04088C24.5289 2.01752 24.5 1.96553 24.4898 1.92533C24.4797 1.88514 24.461 1.85867 24.4482 1.86656C24.4354 1.87443 24.4057 1.84372 24.3821 1.79829C24.3326 1.70281 24.3313 1.70224 24.2857 1.7569ZM21.7107 6.21278C21.6845 6.22738 21.649 6.23064 21.6318 6.22005C21.611 6.20725 21.608 6.21289 21.6228 6.2368C21.6391 6.263 21.6327 6.26812 21.5997 6.25548C21.5728 6.24516 21.554 6.25159 21.5537 6.27128C21.5533 6.28955 21.4916 6.34355 21.4165 6.39132C21.3414 6.43909 21.2872 6.4636 21.2962 6.44579C21.3051 6.42797 21.2962 6.43225 21.2763 6.45526C21.2236 6.51616 21.0722 6.61823 21.057 6.60306C21.0499 6.59592 21.0217 6.61466 20.9944 6.64472C20.9671 6.67476 20.9283 6.69935 20.9081 6.69935C20.8878 6.69935 20.8496 6.72079 20.823 6.74701C20.7468 6.82234 20.6158 6.90137 20.6378 6.85878C20.6483 6.83849 20.6368 6.84641 20.6123 6.87637C20.5878 6.90632 20.5498 6.92719 20.5279 6.92275C20.5059 6.91828 20.4913 6.92623 20.4953 6.94045C20.4992 6.95464 20.4902 6.9691 20.4752 6.97261C20.4602 6.97612 20.4313 7.0027 20.4109 7.03165C20.3906 7.0606 20.3578 7.07811 20.338 7.07054C20.3183 7.063 20.2951 7.0752 20.2864 7.09769C20.2778 7.12016 20.2598 7.13182 20.2465 7.12362C20.2332 7.11542 20.1931 7.13707 20.1575 7.17171C20.0994 7.22825 20.0336 7.26485 19.9764 7.27245C19.9653 7.27392 19.9463 7.29263 19.9343 7.31403C19.9223 7.33544 19.8946 7.35295 19.8728 7.35295C19.8511 7.35295 19.8332 7.3652 19.8332 7.38018C19.8332 7.39516 19.8152 7.40741 19.7932 7.40741C19.7712 7.40741 19.7395 7.43288 19.7228 7.464C19.7061 7.4951 19.6771 7.51471 19.6585 7.50755C19.6397 7.50042 19.6096 7.51831 19.5914 7.54737C19.5732 7.5764 19.5464 7.59284 19.5318 7.58389C19.5173 7.57493 19.5054 7.58015 19.5054 7.59549C19.5054 7.61082 19.4794 7.63726 19.4475 7.65428C19.4068 7.67599 19.3951 7.67629 19.4081 7.65524C19.4373 7.60815 19.4101 7.61991 19.3357 7.68655C19.2981 7.72027 19.2441 7.76292 19.2157 7.78138C19.1872 7.79982 19.1173 7.84579 19.0603 7.8835C19.0033 7.92122 18.9449 7.95208 18.9305 7.95208C18.9162 7.95208 18.9044 7.96433 18.9044 7.97931C18.9044 7.99429 18.8913 8.00654 18.8752 8.00654C18.8591 8.00654 18.8273 8.02503 18.8047 8.04764C18.782 8.07024 18.7502 8.08062 18.7341 8.07068C18.7179 8.06068 18.7126 8.06523 18.7223 8.08086C18.7319 8.09644 18.7031 8.12433 18.6582 8.14284C18.6133 8.16139 18.5766 8.18805 18.5766 8.20208C18.5766 8.21613 18.5643 8.22005 18.5493 8.21079C18.5343 8.20153 18.522 8.20766 18.522 8.22441C18.522 8.24116 18.5097 8.24728 18.4947 8.23802C18.4796 8.22876 18.4673 8.23489 18.4673 8.25164C18.4673 8.26839 18.455 8.27452 18.44 8.26526C18.425 8.256 18.4127 8.26142 18.4127 8.27727C18.4127 8.29312 18.3956 8.30611 18.3747 8.30611C18.3537 8.30611 18.3292 8.32528 18.3202 8.34867C18.3112 8.37209 18.2914 8.38364 18.2763 8.3743C18.2612 8.36498 18.2488 8.37035 18.2488 8.3862C18.2488 8.40205 18.225 8.41504 18.196 8.41504C18.167 8.41504 18.1362 8.4365 18.1277 8.4627C18.1124 8.50992 17.8989 8.65006 17.8595 8.63876C17.8482 8.63555 17.839 8.64516 17.839 8.66014C17.839 8.67512 17.8206 8.68737 17.7981 8.68737C17.7755 8.68737 17.7571 8.69982 17.7571 8.71501C17.7571 8.73021 17.7171 8.76692 17.6683 8.7966C17.5795 8.85055 17.5809 8.85058 21.8024 8.85066C24.125 8.85071 26.0331 8.84298 26.0426 8.83348C26.0522 8.82394 26.01 8.74508 25.9489 8.65823C25.8878 8.57136 25.8458 8.48723 25.8557 8.47128C25.8656 8.45532 25.8607 8.44227 25.8448 8.44227C25.8289 8.44227 25.8189 8.42697 25.8227 8.40823C25.8264 8.38952 25.8142 8.37724 25.7954 8.381C25.7766 8.38473 25.7612 8.36942 25.7612 8.34696C25.7612 8.32449 25.7502 8.30611 25.7368 8.30611C25.7234 8.30611 25.7054 8.28786 25.6968 8.26558C25.6882 8.24331 25.6946 8.22797 25.711 8.23154C25.7273 8.23511 25.7463 8.21964 25.753 8.19717C25.7627 8.16507 25.7599 8.16403 25.7399 8.19238C25.7191 8.22188 25.7069 8.22087 25.6728 8.18688C25.6499 8.164 25.6235 8.15085 25.6142 8.15763C25.6049 8.16439 25.603 8.16221 25.61 8.15276C25.6288 8.12724 25.5687 8.02539 25.5106 7.98427C25.4827 7.96449 25.466 7.93832 25.4736 7.92607C25.4812 7.91381 25.4693 7.88876 25.4471 7.87038C25.4248 7.85199 25.4134 7.8261 25.4217 7.81283C25.4299 7.79954 25.4229 7.78868 25.4061 7.78868C25.3893 7.78868 25.3831 7.77642 25.3924 7.76144C25.4017 7.74647 25.3963 7.73421 25.3804 7.73421C25.3645 7.73421 25.3514 7.71891 25.3514 7.70017C25.3514 7.68146 25.3237 7.63345 25.29 7.59353C25.156 7.43525 25.1424 7.417 25.1252 7.37217C25.1133 7.34137 25.1208 7.32571 25.1474 7.32571C25.1695 7.32571 25.1875 7.31556 25.1875 7.30314C25.1875 7.29069 25.1606 7.28152 25.1277 7.28271C25.0878 7.28416 25.0537 7.2578 25.0253 7.20363C25.0018 7.15894 24.9692 7.10992 24.9527 7.0947C24.9061 7.05159 24.7906 6.85044 24.8055 6.83811C24.8128 6.83206 24.7955 6.8237 24.7671 6.81953C24.7387 6.81539 24.699 6.82849 24.6788 6.84864C24.6585 6.8688 24.6114 6.88192 24.5741 6.87784C24.5367 6.87375 24.512 6.87994 24.5193 6.89159C24.5358 6.91825 24.4 6.9484 24.327 6.93429C24.297 6.92849 24.2417 6.93636 24.2041 6.95175C24.0918 6.99783 24.065 7.0017 23.7875 7.01207C23.5964 7.01918 23.521 7.01297 23.5207 6.99004C23.5205 6.96902 23.5134 6.96771 23.5002 6.9862C23.4892 7.00169 23.4679 7.01335 23.4529 7.0121C23.3982 7.0076 23.3026 6.96754 23.3026 6.94916C23.3026 6.93881 23.2456 6.93097 23.176 6.93176C23.1046 6.93255 23.0333 6.91722 23.0127 6.89663C22.9925 6.87653 22.9604 6.86324 22.9412 6.86714C22.9221 6.871 22.8807 6.85995 22.8493 6.84252C22.8178 6.82512 22.7593 6.80496 22.7193 6.79772C22.6019 6.7765 22.5377 6.75175 22.5377 6.7277C22.5377 6.71537 22.5052 6.69712 22.4654 6.68718C22.3805 6.66591 22.1279 6.50605 22.1279 6.47351C22.1279 6.46115 22.1168 6.45793 22.1031 6.46635C22.0894 6.47476 22.0464 6.44391 22.0075 6.39777C21.9686 6.35164 21.9367 6.32337 21.9367 6.33492C21.9367 6.34647 21.909 6.31983 21.8752 6.27571C21.8059 6.18519 21.7788 6.17482 21.7107 6.21278ZM1.32537 10.0763L1.16146 10.0899L1.15458 16.7552L1.1477 23.4205H14.3247H27.5018L27.5019 16.762C27.5019 12.7293 27.492 10.1035 27.4768 10.1035C27.463 10.1035 27.4574 10.0943 27.4643 10.0831C27.4782 10.0608 1.59279 10.054 1.32537 10.0763ZM5.04743 11.2653C5.00613 11.287 4.97231 11.3163 4.97231 11.3305C4.97231 11.3446 4.95914 11.3562 4.94305 11.3562C4.90521 11.3562 4.83572 11.4255 4.83572 11.4632C4.83572 11.4793 4.82342 11.4924 4.8084 11.4924C4.79338 11.4924 4.78108 11.53 4.78108 11.576C4.78108 11.622 4.76379 11.6769 4.74265 11.698C4.71672 11.7238 4.70353 11.8046 4.70205 11.9462C4.70088 12.0617 4.68744 12.1685 4.67219 12.1837C4.65695 12.1989 4.64449 12.2456 4.64449 12.2876C4.64449 12.3295 4.6322 12.3638 4.61717 12.3638C4.60215 12.3638 4.58986 12.3945 4.58986 12.4319C4.58986 12.4694 4.5789 12.5 4.56549 12.5C4.5521 12.5 4.53342 12.5306 4.52399 12.5681C4.51457 12.6055 4.49479 12.6362 4.48007 12.6362C4.46531 12.6362 4.45327 12.6607 4.45327 12.6906C4.45327 12.7206 4.44097 12.7451 4.42595 12.7451C4.41092 12.7451 4.39863 12.7635 4.39863 12.786C4.39863 12.8084 4.38546 12.8268 4.36937 12.8268C4.33752 12.8268 4.26204 12.8939 4.26204 12.9221C4.26204 12.9445 4.1894 13.0174 4.16714 13.0174C4.13887 13.0174 4.01618 13.1492 4.01618 13.1796C4.01618 13.1953 3.98545 13.2081 3.94789 13.2081C3.91032 13.2081 3.87959 13.2203 3.87959 13.2353C3.87959 13.2503 3.86214 13.2625 3.84083 13.2625C3.79209 13.2625 3.63414 13.3509 3.6339 13.3783C3.63381 13.3895 3.57841 13.3987 3.5108 13.3987C3.44319 13.3987 3.38787 13.411 3.38787 13.4259C3.38787 13.4422 3.28316 13.4532 3.12835 13.4532C2.98561 13.4532 2.86883 13.4641 2.86883 13.4775C2.86883 13.4908 2.8381 13.5094 2.80054 13.5188C2.76297 13.5282 2.73224 13.5479 2.73224 13.5626C2.73224 13.5773 2.71831 13.5893 2.70126 13.5893C2.65176 13.5893 2.5411 13.7336 2.54104 13.7981C2.54104 13.8306 2.52566 13.8622 2.50687 13.8685C2.47991 13.8774 2.47119 14.4643 2.46548 16.6553C2.45863 19.2782 2.46087 19.4328 2.50632 19.4659C2.54129 19.4915 2.54547 19.5066 2.52165 19.5212C2.50362 19.5324 2.49089 19.568 2.49335 19.6005C2.49679 19.646 2.50602 19.6527 2.53372 19.6298C2.55347 19.6135 2.57754 19.608 2.58721 19.6176C2.59685 19.6272 2.5891 19.6351 2.56997 19.6351C2.54973 19.6351 2.54197 19.6528 2.55145 19.6773C2.56066 19.7013 2.55615 19.7125 2.54102 19.7032C2.52588 19.6939 2.52137 19.705 2.53058 19.729C2.53954 19.7522 2.56399 19.7712 2.58492 19.7712C2.60584 19.7712 2.61991 19.7866 2.61614 19.8053C2.6124 19.824 2.62775 19.8352 2.65029 19.8303C2.67283 19.8253 2.68214 19.8303 2.67102 19.8414C2.64474 19.8676 2.70359 19.9387 2.73533 19.9191C2.74866 19.9109 2.75956 19.9155 2.75956 19.9293C2.75956 19.9431 2.81796 19.9523 2.88932 19.9498C2.97212 19.9468 3.05711 19.9644 3.12417 19.9985C3.21233 20.0432 3.2332 20.0457 3.25352 20.0137C3.26904 19.9892 3.27792 19.9871 3.27819 20.0078C3.27844 20.0276 3.32116 20.0396 3.38801 20.0386C3.44819 20.0378 3.51274 20.0492 3.53143 20.0638C3.56355 20.0891 3.69645 20.129 3.73172 20.1239C3.74065 20.1227 3.76622 20.1439 3.78849 20.1711C3.81348 20.2016 3.82253 20.205 3.81206 20.1797C3.80275 20.1573 3.81605 20.1671 3.84162 20.2016C3.86722 20.2361 3.92926 20.2814 3.97947 20.3023C4.0297 20.3232 4.07082 20.354 4.07082 20.3706C4.07082 20.3872 4.08226 20.3938 4.09625 20.3852C4.12242 20.369 4.16528 20.418 4.16602 20.4649C4.16624 20.4794 4.19402 20.505 4.22773 20.5218C4.26144 20.5385 4.28267 20.5586 4.27488 20.5664C4.2671 20.5741 4.28182 20.5976 4.30761 20.6184C4.34826 20.6513 4.35126 20.6509 4.33034 20.6155C4.30952 20.5802 4.31255 20.5798 4.35241 20.612C4.37784 20.6326 4.39863 20.6671 4.39863 20.6887C4.39863 20.7163 4.41696 20.7231 4.4601 20.7113C4.51298 20.6969 4.51492 20.6987 4.47392 20.7244C4.42945 20.7522 4.43081 20.763 4.49487 20.8891C4.5326 20.9633 4.57516 21.024 4.58945 21.024C4.60376 21.024 4.60882 21.0412 4.60067 21.0624C4.5918 21.0854 4.60849 21.1079 4.64253 21.1187C4.70506 21.1385 4.71036 21.1547 4.67329 21.2131C4.65793 21.2373 4.65881 21.2721 4.67558 21.3033C4.69058 21.3312 4.70421 21.4208 4.70585 21.5022C4.70795 21.6053 4.71984 21.6503 4.74497 21.6503C4.76483 21.6503 4.78108 21.6626 4.78108 21.6776C4.78108 21.6925 4.76264 21.7048 4.74011 21.7048C4.71757 21.7048 4.69913 21.7178 4.69913 21.7336C4.69913 21.7495 4.71333 21.7537 4.73068 21.7431C4.74926 21.7316 4.75483 21.7355 4.74423 21.7526C4.71637 21.7975 4.75374 21.8665 4.79701 21.85C4.84077 21.8332 4.85042 21.8832 4.8084 21.909C4.76644 21.9349 4.7754 21.9685 4.84255 22.037C4.91715 22.1132 5.09488 22.2119 5.20536 22.2386C5.31364 22.2648 23.3558 22.2739 23.372 22.2477C23.3789 22.2365 23.4092 22.2337 23.4392 22.2416C23.4697 22.2495 23.4938 22.2424 23.4938 22.2254C23.4938 22.2087 23.503 22.1976 23.5143 22.2007C23.5256 22.2039 23.5756 22.1979 23.6254 22.1875C23.6853 22.1749 23.7092 22.1575 23.696 22.1362C23.6825 22.1144 23.6908 22.1096 23.7216 22.1214C23.7465 22.131 23.767 22.1262 23.767 22.1108C23.767 22.0954 23.7788 22.0901 23.7932 22.099C23.8075 22.1078 23.8386 22.0779 23.8622 22.0325C23.9003 21.959 23.9004 21.9499 23.8633 21.9499C23.8404 21.9499 23.8216 21.9388 23.8216 21.9252C23.8216 21.9116 23.8462 21.907 23.8763 21.9148C23.9256 21.9276 23.9312 21.9149 23.9341 21.7829C23.9359 21.7025 23.9354 21.6214 23.933 21.6027C23.9305 21.584 23.9399 21.5686 23.9539 21.5686C23.9978 21.5686 24.0117 21.4576 23.9698 21.4415C23.9184 21.4219 23.9199 21.378 23.9719 21.378C24.0084 21.378 24.0241 21.3274 24.0202 21.2217C24.0196 21.2031 24.0299 21.1947 24.0433 21.2029C24.0566 21.2111 24.0675 21.2056 24.0675 21.1906C24.0675 21.1756 24.0552 21.1558 24.0402 21.1465C23.9928 21.1173 24.0085 21.0512 24.0583 21.0703C24.0889 21.082 24.0973 21.0773 24.084 21.0558C24.0731 21.0381 24.0791 21.024 24.0978 21.024C24.1162 21.024 24.1238 21.0165 24.1147 21.0075C24.1056 20.9984 24.1215 20.9659 24.1502 20.9352C24.1788 20.9046 24.1967 20.8706 24.1899 20.8597C24.1832 20.8488 24.2061 20.8109 24.2408 20.7754C24.3043 20.7106 24.3531 20.6196 24.345 20.5814C24.3426 20.5702 24.3539 20.561 24.3701 20.561C24.3864 20.561 24.447 20.5132 24.505 20.4549C24.563 20.3965 24.6173 20.3557 24.6258 20.3641C24.6342 20.3726 24.6412 20.3651 24.6412 20.3477C24.6412 20.3302 24.6522 20.319 24.6658 20.3227C24.6793 20.3264 24.6945 20.3173 24.6995 20.3023C24.713 20.2618 25.052 20.098 25.1222 20.098C25.1557 20.098 25.1877 20.0838 25.1935 20.0664C25.1996 20.0482 25.2731 20.032 25.3666 20.0282C25.4559 20.0245 25.5451 20.0203 25.5648 20.0189C25.5846 20.0175 25.5918 20.0023 25.5811 19.9849C25.569 19.9654 25.5735 19.9608 25.5931 19.9729C25.6104 19.9836 25.639 19.9834 25.6567 19.9726C25.6743 19.9617 25.7327 19.9529 25.7865 19.9529C25.8424 19.953 25.8996 19.9345 25.9203 19.9098C25.9402 19.886 25.9488 19.8817 25.9394 19.9003C25.9281 19.9225 25.9368 19.9285 25.9647 19.9178C25.988 19.9089 26.0071 19.8899 26.0071 19.8757C26.0071 19.8614 26.0181 19.8565 26.0315 19.8648C26.0537 19.8785 26.0898 19.8227 26.0859 19.7808C26.0851 19.7714 26.1008 19.7534 26.1209 19.7407C26.1488 19.723 26.1462 19.7175 26.1095 19.7172C26.0832 19.717 26.0617 19.7057 26.0617 19.6921C26.0617 19.6785 26.0832 19.673 26.1095 19.6798C26.1792 19.6978 26.265 19.4604 26.209 19.4045C26.177 19.3727 26.171 18.9217 26.171 16.5733C26.171 14.7292 26.1617 13.78 26.1437 13.78C26.1286 13.78 26.1163 13.7598 26.1163 13.7352C26.1163 13.6703 25.9646 13.5359 25.8699 13.5171C25.8251 13.5081 25.7885 13.4901 25.7885 13.477C25.7885 13.4639 25.6717 13.4532 25.529 13.4532C25.3742 13.4532 25.2695 13.4422 25.2695 13.4259C25.2695 13.411 25.2265 13.3987 25.1739 13.3987C25.1213 13.3987 25.0783 13.3877 25.0783 13.3742C25.0783 13.3607 25.0168 13.3277 24.9417 13.3007C24.8666 13.2738 24.8051 13.2419 24.8051 13.2299C24.8051 13.2179 24.7805 13.2081 24.7505 13.2081C24.7204 13.2081 24.6958 13.1941 24.6958 13.177C24.6958 13.1391 24.6135 13.0739 24.5641 13.0728C24.5267 13.0719 24.45 13.0073 24.45 12.9766C24.45 12.9483 24.3745 12.8813 24.3426 12.8813C24.3265 12.8813 24.3133 12.8598 24.3133 12.8336C24.3133 12.7922 24.2822 12.7458 24.15 12.5897C24.1347 12.5716 24.1221 12.5317 24.1221 12.5012C24.1221 12.4706 24.1112 12.4455 24.0979 12.4455C24.0735 12.4455 24.066 12.4184 24.0148 12.1462C23.9994 12.0639 23.9742 11.9924 23.9588 11.9873C23.943 11.982 23.9309 11.8851 23.9309 11.7625C23.9309 11.6369 23.9195 11.5468 23.9036 11.5468C23.8886 11.5468 23.8763 11.5263 23.8763 11.5011C23.8763 11.448 23.6959 11.2745 23.6406 11.2745C23.62 11.2745 23.6031 11.2623 23.6031 11.2473C23.6031 11.2292 20.5067 11.221 14.3628 11.2229C6.352 11.2254 5.11256 11.2311 5.04743 11.2653ZM5.78124 12.4796C5.76483 12.5058 5.73284 12.5281 5.71014 12.5291C5.68233 12.5305 5.68667 12.5387 5.72355 12.5545C5.7536 12.5674 5.76209 12.5787 5.74243 12.5798C5.72276 12.5808 5.71434 12.5941 5.72371 12.6092C5.75488 12.6595 5.71022 12.7433 5.66069 12.7275C5.62466 12.716 5.62264 12.7187 5.65162 12.7393C5.68197 12.7609 5.68287 12.7843 5.65632 12.8644C5.63837 12.9186 5.61032 12.963 5.59395 12.963C5.57759 12.963 5.57243 12.9712 5.58248 12.9812C5.59251 12.9912 5.5792 13.0239 5.55287 13.054C5.51744 13.0943 5.51563 13.1032 5.54598 13.0882C5.57101 13.0758 5.56849 13.083 5.53959 13.1066C5.51353 13.1279 5.5002 13.1534 5.50998 13.1631C5.51976 13.1729 5.51342 13.1808 5.49591 13.1808C5.47837 13.1808 5.46403 13.2053 5.46403 13.2353C5.46403 13.2653 5.451 13.2898 5.4351 13.2898C5.4192 13.2898 5.41382 13.3021 5.42316 13.3172C5.43253 13.3323 5.42103 13.3519 5.39762 13.3609C5.37421 13.3699 5.36101 13.3867 5.36828 13.3985C5.37555 13.4102 5.36317 13.4349 5.3408 13.4534C5.31842 13.4719 5.30012 13.4985 5.30012 13.5125C5.30012 13.5594 4.69003 14.1561 4.6555 14.1428C4.63673 14.1357 4.6074 14.1558 4.59029 14.1876C4.56183 14.2407 4.46949 14.2944 4.37405 14.3134C4.35301 14.3176 4.32843 14.3325 4.31941 14.3465C4.30228 14.3733 4.04997 14.4983 4.00252 14.5036C3.96119 14.5082 3.81668 14.545 3.77032 14.5627C3.74778 14.5713 3.71962 14.5763 3.70774 14.5737C3.69588 14.5711 3.66206 14.5818 3.63261 14.5976C3.58019 14.6255 3.5791 14.6684 3.5791 16.7166C3.5791 18.3063 3.58696 18.815 3.61188 18.8399C3.62991 18.8578 3.68523 18.8726 3.73481 18.8726C3.79674 18.8726 3.82496 18.8854 3.82496 18.9134C3.82496 18.9419 3.8538 18.9543 3.92057 18.9543C3.97316 18.9543 4.01618 18.9665 4.01618 18.9815C4.01618 18.9965 4.05921 19.0087 4.11179 19.0087C4.16438 19.0087 4.20741 19.0196 4.20741 19.033C4.20741 19.0464 4.23814 19.065 4.2757 19.0744C4.31326 19.0838 4.344 19.1035 4.344 19.1182C4.344 19.1329 4.36858 19.1449 4.39863 19.1449C4.42868 19.1449 4.45327 19.1571 4.45327 19.1721C4.45327 19.1871 4.46643 19.1994 4.48253 19.1994C4.49864 19.1994 4.52894 19.2147 4.54989 19.2334C4.63709 19.3114 4.67069 19.3355 4.69194 19.3355C4.70429 19.3355 4.7321 19.36 4.75376 19.39C4.77543 19.4199 4.80886 19.4445 4.8281 19.4445C4.8473 19.4445 4.86304 19.4628 4.86304 19.4853C4.86304 19.5078 4.88257 19.5262 4.90647 19.5262C4.94838 19.5262 5.0515 19.6269 5.05336 19.6696C5.05385 19.6811 5.10958 19.7433 5.17719 19.8079C5.2448 19.8725 5.30012 19.9403 5.30012 19.9585C5.30012 19.9768 5.33085 20.0201 5.36842 20.0548C5.40598 20.0895 5.43671 20.1379 5.43671 20.1625C5.43671 20.1869 5.449 20.207 5.46403 20.207C5.47905 20.207 5.49135 20.2376 5.49135 20.2751C5.49135 20.3174 5.50684 20.3431 5.53232 20.3431C5.55781 20.3431 5.5733 20.3689 5.5733 20.4112C5.5733 20.4487 5.58559 20.4793 5.60062 20.4793C5.61564 20.4793 5.62794 20.5099 5.62794 20.5474C5.62794 20.5848 5.64023 20.6155 5.65525 20.6155C5.67028 20.6155 5.68257 20.6531 5.68257 20.6991C5.68257 20.7451 5.70101 20.8012 5.72355 20.8236C5.74609 20.8461 5.76453 20.9065 5.76453 20.9578V21.0512H14.317C21.6927 21.0512 22.8748 21.0458 22.9084 21.0123C22.9299 20.9909 22.9475 20.9366 22.9475 20.8917C22.9475 20.8468 22.9659 20.7916 22.9884 20.7692C23.011 20.7467 23.0294 20.6845 23.0294 20.631C23.0294 20.5775 23.0417 20.5338 23.0567 20.5338C23.0718 20.5338 23.0841 20.5093 23.0841 20.4793C23.0841 20.4494 23.0964 20.4248 23.1114 20.4248C23.1264 20.4248 23.1387 20.3942 23.1387 20.3568C23.1387 20.3144 23.1542 20.2887 23.1797 20.2887C23.2052 20.2887 23.2207 20.263 23.2207 20.2206C23.2207 20.1831 23.2314 20.1525 23.2447 20.1525C23.2579 20.1525 23.2836 20.1166 23.3018 20.0727C23.32 20.0289 23.3645 19.9708 23.4007 19.9437C23.4369 19.9166 23.4665 19.8794 23.4665 19.861C23.4665 19.8426 23.5095 19.7846 23.5621 19.7322C23.6147 19.6798 23.6577 19.6242 23.6577 19.6087C23.6577 19.5933 23.67 19.5806 23.685 19.5806C23.7 19.5806 23.7579 19.5377 23.8136 19.4853C23.8694 19.4329 23.9279 19.39 23.9438 19.39C23.9596 19.39 23.9948 19.3605 24.022 19.3244C24.0491 19.2883 24.1074 19.244 24.1514 19.2258C24.1954 19.2076 24.2314 19.182 24.2314 19.1688C24.2314 19.1556 24.2621 19.1449 24.2997 19.1449C24.3422 19.1449 24.368 19.1294 24.368 19.104C24.368 19.0786 24.3938 19.0632 24.4363 19.0632C24.4739 19.0632 24.5046 19.0509 24.5046 19.036C24.5046 19.021 24.5353 19.0087 24.5729 19.0087C24.6104 19.0087 24.6412 18.9965 24.6412 18.9815C24.6412 18.9665 24.6789 18.9543 24.7251 18.9543C24.7712 18.9543 24.8274 18.9359 24.85 18.9134C24.8725 18.8909 24.9278 18.8726 24.9729 18.8726C25.1416 18.8726 25.1329 18.9891 25.1329 16.7349C25.1329 15.3434 25.1236 14.6577 25.1041 14.6214C25.0804 14.5772 25.0581 14.571 24.9772 14.5861C24.9071 14.5993 24.8846 14.5956 24.8984 14.5735C24.9109 14.5533 24.8926 14.5425 24.8462 14.5425C24.8069 14.5425 24.717 14.5156 24.6465 14.4827C24.576 14.4498 24.509 14.4253 24.4978 14.4282C24.4865 14.4311 24.4773 14.4206 24.4773 14.4047C24.4773 14.3889 24.4681 14.3813 24.4568 14.3879C24.4194 14.4099 24.3134 14.3543 24.3134 14.3128C24.3134 14.2877 24.2976 14.2779 24.2726 14.2875C24.2494 14.2963 24.2247 14.2843 24.2151 14.2595C24.2059 14.2356 24.1874 14.2228 24.1739 14.2311C24.1605 14.2394 24.1495 14.2324 24.1495 14.2157C24.1495 14.1989 24.1363 14.1933 24.1202 14.2032C24.1042 14.2132 24.055 14.181 24.011 14.1319C23.9669 14.0827 23.9309 14.0513 23.9309 14.0621C23.9309 14.0728 23.904 14.0567 23.8711 14.0261C23.8383 13.9956 23.7971 13.9706 23.7797 13.9706C23.7624 13.9706 23.7247 13.9432 23.6961 13.9098C23.6448 13.8498 23.6448 13.8495 23.6971 13.8894C23.7339 13.9173 23.7435 13.9188 23.7286 13.894C23.7168 13.8744 23.6768 13.8468 23.6398 13.8328C23.6028 13.8188 23.5803 13.7947 23.5898 13.7793C23.5994 13.7639 23.5922 13.7547 23.574 13.7589C23.5557 13.763 23.5167 13.7265 23.4874 13.6778C23.4412 13.601 23.4399 13.5893 23.4777 13.5893C23.5016 13.5893 23.5211 13.5775 23.5211 13.5629C23.5211 13.5485 23.504 13.5431 23.483 13.5512C23.4406 13.5674 23.3299 13.4632 23.3299 13.4072C23.3299 13.3875 23.3188 13.3715 23.3053 13.3715C23.2695 13.3715 23.166 13.1871 23.166 13.1232C23.166 13.0932 23.1537 13.0763 23.1387 13.0855C23.1145 13.1004 23.098 13.0432 23.1088 12.9814C23.111 12.969 23.1001 12.9667 23.0847 12.9762C23.0693 12.9857 23.0567 12.9804 23.0567 12.9646C23.0567 12.9142 23.052 12.896 23.0261 12.8479C23.0065 12.8112 23.0101 12.8043 23.0425 12.8167C23.0653 12.8255 23.0841 12.8191 23.0841 12.8025C23.0841 12.7859 23.0656 12.7723 23.0431 12.7723C23.0199 12.7723 23.0021 12.748 23.0021 12.7163C23.0021 12.6811 22.9904 12.6674 22.9708 12.6795C22.9494 12.6927 22.9437 12.677 22.9528 12.6297C22.9607 12.5883 22.9469 12.5354 22.9182 12.4975L22.8704 12.4343L14.3408 12.4331C6.24611 12.432 5.80957 12.4343 5.78124 12.4796ZM14.0145 13.9978C14.0145 14.013 13.9417 14.0251 13.8506 14.0251C13.7605 14.0251 13.6867 14.0362 13.6867 14.0499C13.6867 14.0636 13.6375 14.083 13.5774 14.0931C13.5173 14.1033 13.4682 14.1227 13.4682 14.1364C13.4682 14.1501 13.432 14.1612 13.3878 14.1612C13.3436 14.1612 13.2999 14.1735 13.2906 14.1885C13.2813 14.2034 13.2499 14.2157 13.2207 14.2157C13.1915 14.2157 13.1677 14.2277 13.1677 14.2424C13.1677 14.2571 13.1369 14.2768 13.0994 14.2862C13.0618 14.2956 13.0311 14.3142 13.0311 14.3276C13.0311 14.3409 13.0065 14.3519 12.9764 14.3519C12.9464 14.3519 12.9218 14.3641 12.9218 14.3791C12.9218 14.3941 12.909 14.4063 12.8933 14.4063C12.8665 14.4063 12.8356 14.4276 12.7453 14.5084C12.7243 14.5272 12.6996 14.5425 12.6903 14.5425C12.6613 14.5425 12.4028 14.8107 12.4028 14.8407C12.4028 14.8565 12.3899 14.8693 12.3742 14.8693C12.3387 14.8693 12.2115 14.9938 12.2115 15.0285C12.2115 15.0426 12.1931 15.0611 12.1706 15.0698C12.148 15.0784 12.1296 15.1042 12.1296 15.1272C12.1296 15.1501 12.1173 15.1689 12.1023 15.1689C12.0872 15.1689 12.075 15.1872 12.075 15.2097C12.075 15.2322 12.0627 15.2506 12.0476 15.2506C12.0326 15.2506 12.0203 15.2674 12.0203 15.2881C12.0203 15.3087 12.0019 15.3408 11.9793 15.3595C11.9568 15.3781 11.9384 15.4164 11.9384 15.4445C11.9384 15.4726 11.9261 15.4956 11.911 15.4956C11.896 15.4956 11.8837 15.521 11.8837 15.552C11.8837 15.5831 11.8653 15.6269 11.8428 15.6493C11.8202 15.6718 11.8018 15.7199 11.8018 15.7563C11.8018 15.7927 11.7895 15.8224 11.7745 15.8224C11.7594 15.8224 11.7471 15.8653 11.7471 15.9178C11.7471 15.9702 11.7348 16.0131 11.7198 16.0131C11.7047 16.0131 11.6925 16.0849 11.6925 16.1742C11.6925 16.2777 11.6805 16.3393 11.6589 16.3465C11.6351 16.3544 11.6242 16.4476 11.6219 16.662C11.6192 16.9097 11.6259 16.9662 11.6578 16.9662C11.6794 16.9662 11.6914 16.9816 11.6845 17.0003C11.6776 17.019 11.6582 17.0313 11.6413 17.0275C11.598 17.0179 11.6031 17.0822 11.6507 17.1449C11.6727 17.1739 11.6912 17.2181 11.6916 17.2431C11.6921 17.2681 11.7079 17.2956 11.7267 17.3044C11.754 17.3171 11.754 17.3235 11.7267 17.3361C11.6846 17.3557 11.6814 17.4482 11.7223 17.4618C11.7388 17.4673 11.7541 17.505 11.7565 17.5458C11.7589 17.5865 11.7673 17.6198 11.7753 17.6198C11.7833 17.6198 11.7927 17.6535 11.7961 17.6947C11.7995 17.7359 11.8145 17.7737 11.8295 17.7787C11.8445 17.7838 11.8493 17.7999 11.8402 17.8146C11.8311 17.8293 11.8464 17.8598 11.8742 17.8824C11.902 17.905 11.909 17.9154 11.8897 17.9057C11.8511 17.8861 12.0108 18.1954 12.0531 18.222C12.0677 18.2312 12.0816 18.2495 12.0841 18.2629C12.0866 18.2761 12.0978 18.284 12.1091 18.2802C12.1204 18.2765 12.1296 18.2973 12.1296 18.3265C12.1296 18.3558 12.1511 18.3921 12.1774 18.4074C12.2037 18.4227 12.2142 18.4355 12.2007 18.436C12.1674 18.4371 12.3166 18.573 12.3512 18.573C12.3663 18.573 12.3721 18.5835 12.3642 18.5964C12.3495 18.62 12.4942 18.764 12.5324 18.7637C12.5438 18.7637 12.553 18.7759 12.553 18.7909C12.553 18.8273 12.7027 18.9543 12.7456 18.9543C12.7642 18.9543 12.7865 18.9726 12.7951 18.9951C12.8037 19.0176 12.8281 19.036 12.8493 19.036C12.8705 19.036 12.9033 19.0546 12.9224 19.0775C12.9414 19.1003 12.9633 19.1126 12.9711 19.1049C12.9789 19.0971 13.0025 19.1154 13.0237 19.1455C13.0448 19.1756 13.0736 19.1932 13.0876 19.1846C13.1016 19.176 13.113 19.1826 13.113 19.1994C13.113 19.2161 13.1254 19.2222 13.1406 19.2128C13.1557 19.2035 13.1883 19.216 13.2129 19.2406C13.2376 19.2652 13.2805 19.2793 13.3083 19.2721C13.3361 19.2648 13.3589 19.2721 13.3589 19.2881C13.3589 19.3042 13.3665 19.3098 13.3758 19.3005C13.3851 19.2912 13.4107 19.3016 13.4327 19.3235C13.4546 19.3453 13.4839 19.3563 13.4977 19.3478C13.5115 19.3393 13.5228 19.3441 13.5228 19.3586C13.5228 19.373 13.5474 19.3785 13.5776 19.3706C13.6077 19.3628 13.6502 19.3711 13.672 19.3891C13.6938 19.4071 13.7264 19.4128 13.7444 19.4017C13.7651 19.389 13.7699 19.3931 13.7576 19.413C13.7346 19.4501 13.7348 19.4501 14.3492 19.4591C14.6405 19.4634 14.8067 19.4559 14.8067 19.4386C14.8067 19.4236 14.8237 19.4179 14.8444 19.4258C14.8651 19.4337 14.8953 19.427 14.9114 19.4109C14.9276 19.3948 14.9782 19.3827 15.024 19.384C15.0698 19.3853 15.1072 19.3768 15.1072 19.3651C15.1072 19.3534 15.1454 19.3427 15.192 19.3414C15.2385 19.3401 15.2979 19.3198 15.3239 19.2964C15.3499 19.2729 15.3794 19.2619 15.3895 19.2719C15.3995 19.2819 15.4077 19.2751 15.4077 19.2568C15.4077 19.2384 15.4192 19.2304 15.4332 19.239C15.4472 19.2477 15.4663 19.2423 15.4757 19.2272C15.485 19.212 15.5181 19.1861 15.5491 19.1696C15.5917 19.1468 15.6007 19.1473 15.5857 19.1714C15.5726 19.1927 15.5852 19.1914 15.6234 19.1676C15.655 19.1479 15.6809 19.1225 15.6809 19.1111C15.6809 19.0997 15.7024 19.09 15.7287 19.0895C15.782 19.0884 15.9289 19.0122 15.8858 19.008C15.8708 19.0065 15.8862 18.9942 15.9199 18.9806C15.9537 18.9671 15.9814 18.9359 15.9814 18.9114C15.9814 18.8827 15.9962 18.8724 16.0227 18.8825C16.0632 18.898 16.2017 18.7804 16.2761 18.6673C16.2954 18.6379 16.3032 18.6322 16.2932 18.6547C16.2834 18.6772 16.3121 18.6588 16.3571 18.6138C16.4021 18.5689 16.4341 18.5236 16.4281 18.5133C16.4221 18.5029 16.4613 18.4504 16.5152 18.3967C16.6055 18.3067 16.7088 18.1243 16.6968 18.076C16.694 18.0647 16.706 18.0556 16.7236 18.0556C16.7411 18.0556 16.7477 18.0479 16.7383 18.0385C16.7211 18.0214 16.7917 17.8632 16.8279 17.8377C16.8617 17.8138 16.8858 17.6743 16.8561 17.6743C16.8129 17.6743 16.8234 17.6275 16.8707 17.6094C16.8981 17.5989 16.9063 17.6042 16.8937 17.6244C16.8815 17.6442 16.8866 17.648 16.9079 17.6349C16.9262 17.6236 16.9347 17.5972 16.9266 17.5762C16.9185 17.5553 16.9239 17.5381 16.9384 17.5381C16.9529 17.5381 16.9649 17.5014 16.9649 17.4564C16.9649 17.4115 16.9772 17.3747 16.9922 17.3747C17.0253 17.3747 17.0164 17.3153 16.9785 17.2842C16.9608 17.2696 16.9632 17.2568 16.9853 17.2479C17.0287 17.2303 17.0354 16.1492 16.9922 16.1492C16.9772 16.1492 16.9649 16.0937 16.9649 16.0259C16.9649 15.9413 16.952 15.8975 16.9239 15.8868C16.8986 15.8771 16.8829 15.8357 16.8829 15.7787C16.8829 15.7279 16.8706 15.6863 16.8556 15.6863C16.8406 15.6863 16.8283 15.6556 16.8283 15.6182C16.8283 15.5808 16.816 15.5501 16.8009 15.5501C16.7859 15.5501 16.7736 15.5256 16.7736 15.4956C16.7736 15.4654 16.7554 15.4412 16.7327 15.4412C16.7072 15.4412 16.6917 15.4155 16.6917 15.3731C16.6917 15.3357 16.6794 15.305 16.6644 15.305C16.6493 15.305 16.6367 15.2836 16.6362 15.2574C16.6351 15.1985 16.5736 15.1144 16.5316 15.1144C16.5145 15.1144 16.5005 15.0899 16.5005 15.0599C16.5005 15.03 16.4882 15.0055 16.4731 15.0055C16.4581 15.0055 16.4458 14.9891 16.4458 14.9692C16.4458 14.9493 16.4151 14.9166 16.3775 14.8965C16.34 14.8765 16.3092 14.8494 16.3092 14.8362C16.3092 14.8062 16.1828 14.6787 16.1531 14.6787C16.1409 14.6787 16.1079 14.648 16.0797 14.6106C16.0515 14.5731 16.0085 14.5425 15.9841 14.5425C15.9597 14.5425 15.9167 14.5119 15.8885 14.4744C15.8603 14.437 15.817 14.4063 15.7924 14.4063C15.7678 14.4063 15.7299 14.3818 15.7082 14.3519C15.6866 14.3219 15.6485 14.2974 15.6236 14.2974C15.5987 14.2974 15.563 14.279 15.5443 14.2565C15.5256 14.2341 15.4872 14.2157 15.459 14.2157C15.4308 14.2157 15.4077 14.2034 15.4077 14.1885C15.4077 14.1735 15.3647 14.1612 15.3121 14.1612C15.2595 14.1612 15.2165 14.149 15.2165 14.134C15.2165 14.119 15.1888 14.1063 15.155 14.1058C15.1213 14.1053 15.0628 14.0873 15.0253 14.0659C14.9877 14.0445 14.8863 14.0266 14.7999 14.026C14.7135 14.0255 14.6428 14.0128 14.6428 13.9978C14.6428 13.9812 14.5199 13.9706 14.3287 13.9706C14.1375 13.9706 14.0145 13.9812 14.0145 13.9978ZM14.141 15.1995C14.1034 15.2095 14.0657 15.2108 14.0572 15.2023C14.0488 15.1939 14.0418 15.2015 14.0418 15.2193C14.0418 15.2392 14.0182 15.2457 13.9799 15.2361C13.9403 15.2262 13.8641 15.2491 13.7682 15.2997C13.6858 15.3431 13.6013 15.3728 13.5805 15.3656C13.5591 15.3582 13.5501 15.3647 13.56 15.3805C13.5695 15.396 13.54 15.4216 13.4944 15.4375C13.4255 15.4614 13.176 15.6944 13.0031 15.8963C12.9524 15.9555 12.9516 15.957 12.9315 16.0335C12.9227 16.0672 12.9025 16.0948 12.8868 16.0948C12.871 16.0948 12.8662 16.1028 12.8761 16.1127C12.8859 16.1226 12.8803 16.1471 12.8636 16.1672C12.8469 16.1873 12.8413 16.2037 12.8511 16.2037C12.861 16.2037 12.8538 16.2313 12.835 16.265C12.8163 16.2987 12.8034 16.335 12.8064 16.3457C12.8094 16.3564 12.7936 16.3581 12.7712 16.3496C12.7489 16.341 12.7306 16.3467 12.7306 16.3622C12.7306 16.3777 12.7489 16.3943 12.7714 16.3992C12.8076 16.407 12.8076 16.4168 12.7714 16.486C12.7223 16.5799 12.7144 16.9563 12.7613 16.9719C12.7781 16.9775 12.7933 17.0334 12.7949 17.0962C12.7966 17.1608 12.813 17.2161 12.8326 17.2236C12.8516 17.2309 12.8672 17.2617 12.8672 17.2922C12.8672 17.3226 12.8795 17.3475 12.8945 17.3475C12.9095 17.3475 12.9218 17.3729 12.9218 17.4039C12.9218 17.4349 12.9372 17.4774 12.956 17.4983C13.0296 17.5802 13.0584 17.6182 13.0584 17.6336C13.0584 17.6593 13.382 17.9739 13.4085 17.9739C13.4216 17.9739 13.4681 18.0045 13.5117 18.0419C13.5554 18.0793 13.6126 18.11 13.6389 18.11C13.6652 18.11 13.6867 18.1217 13.6867 18.136C13.6867 18.1503 13.7297 18.1701 13.7823 18.1799C13.8349 18.1897 13.8779 18.2087 13.8779 18.222C13.8779 18.2353 13.964 18.2462 14.0692 18.2462C14.1784 18.2462 14.2604 18.2579 14.2604 18.2734C14.2604 18.2884 14.2911 18.3007 14.3287 18.3007C14.3662 18.3007 14.397 18.2884 14.397 18.2734C14.397 18.2579 14.4789 18.2462 14.5882 18.2462C14.6975 18.2462 14.7794 18.2345 14.7794 18.219C14.7794 18.204 14.8092 18.1917 14.8455 18.1917C14.9153 18.1917 15.0795 18.1106 15.0798 18.076C15.0798 18.0647 15.1039 18.0556 15.1331 18.0556C15.1624 18.0556 15.2195 18.0249 15.2601 17.9875C15.3006 17.95 15.3443 17.9194 15.3571 17.9194C15.395 17.9194 15.599 17.6984 15.599 17.6574C15.599 17.6367 15.6113 17.6198 15.6263 17.6198C15.6413 17.6198 15.6536 17.6067 15.6536 17.5907C15.6536 17.5746 15.669 17.5444 15.6877 17.5235C15.7749 17.4266 15.7902 17.4006 15.7902 17.3486C15.7902 17.3181 15.8025 17.293 15.8175 17.293C15.8325 17.293 15.8448 17.2634 15.8448 17.2272C15.8448 17.191 15.8577 17.1571 15.8735 17.1519C15.8894 17.1466 15.9026 17.0658 15.9031 16.9709C15.9037 16.8485 15.915 16.7952 15.9426 16.7846C15.9903 16.7664 15.9965 16.54 15.9498 16.5245C15.9323 16.5187 15.9136 16.484 15.908 16.4474C15.9024 16.4107 15.8859 16.3766 15.8713 16.3717C15.8364 16.3597 15.837 16.2854 15.8721 16.2854C15.8872 16.2854 15.8995 16.2657 15.8995 16.2416C15.8995 16.2157 15.8842 16.2037 15.8619 16.2123C15.8399 16.2207 15.812 16.1997 15.7946 16.1615C15.7702 16.1083 15.7733 16.0917 15.8114 16.0704C15.837 16.0561 15.8482 16.0346 15.8363 16.0227C15.8243 16.0108 15.8029 16.0191 15.7887 16.0411C15.766 16.0763 15.7596 16.0762 15.7361 16.0403C15.7168 16.011 15.722 15.99 15.7546 15.9657C15.7795 15.9471 15.7909 15.923 15.7799 15.912C15.7689 15.9011 15.7494 15.909 15.7365 15.9298C15.7078 15.9762 15.67 15.9428 15.5736 15.7858C15.4852 15.6417 15.3267 15.4924 15.2419 15.4732C15.2204 15.4683 15.1783 15.4422 15.1482 15.415C15.1182 15.3879 15.0657 15.3573 15.0317 15.347C14.9977 15.3367 14.9762 15.3181 14.984 15.3056C14.9917 15.2931 14.9722 15.2896 14.9406 15.2979C14.9081 15.3063 14.8736 15.2975 14.8613 15.2776C14.8493 15.2583 14.8106 15.2401 14.7753 15.2372C14.74 15.2344 14.6681 15.2238 14.6155 15.2137C14.4726 15.1864 14.2186 15.1788 14.141 15.1995ZM7.78605 15.659C7.78605 15.674 7.74302 15.6863 7.69044 15.6863C7.63785 15.6863 7.59482 15.6972 7.59482 15.7106C7.59482 15.7239 7.56409 15.7425 7.52653 15.7519C7.48897 15.7613 7.45823 15.7811 7.45823 15.7957C7.45823 15.8104 7.43365 15.8224 7.4036 15.8224C7.37355 15.8224 7.34896 15.8347 7.34896 15.8497C7.34896 15.8647 7.33052 15.8769 7.30799 15.8769C7.28545 15.8769 7.26701 15.8862 7.26701 15.8976C7.26701 15.909 7.22423 15.9672 7.17192 16.027C7.11963 16.0867 7.0766 16.151 7.0763 16.1697C7.07603 16.1884 7.06349 16.2037 7.04847 16.2037C7.03344 16.2037 7.02115 16.2413 7.02115 16.2873C7.02115 16.3334 7.00271 16.3894 6.98017 16.4119C6.94985 16.4421 6.93919 16.5161 6.93919 16.6967C6.93919 16.8885 6.94796 16.9441 6.98017 16.9564C7.03691 16.9781 7.03175 17.0479 6.97334 17.0483C6.93553 17.0487 6.9334 17.0537 6.96318 17.0726C6.98389 17.0856 6.99238 17.1099 6.98206 17.1266C6.97173 17.1433 6.97528 17.1569 6.98995 17.1569C7.00459 17.1569 7.02208 17.1416 7.0288 17.1228C7.03549 17.1041 7.0518 17.0989 7.06499 17.1113C7.07841 17.1238 7.0674 17.1458 7.04005 17.161C6.99416 17.1866 6.99566 17.1962 7.06409 17.3156C7.13067 17.4316 7.3023 17.6334 7.25346 17.5381C7.24193 17.5157 7.26179 17.5252 7.29758 17.5594C7.43111 17.6868 7.49115 17.7249 7.53322 17.7088C7.56185 17.6979 7.5698 17.703 7.55672 17.7241C7.53915 17.7525 7.58862 17.7699 7.65629 17.7592C7.66757 17.7574 7.67678 17.7657 7.67678 17.7776C7.67678 17.7894 7.71366 17.7986 7.75873 17.798C7.80381 17.7974 7.84069 17.7863 7.84069 17.7732C7.84069 17.7601 7.86005 17.7654 7.88374 17.7849C7.9189 17.814 7.93081 17.8141 7.94862 17.7854C7.964 17.7606 7.97596 17.7591 7.98913 17.7803C8.01243 17.8179 8.21385 17.8202 8.23679 17.7832C8.24608 17.7683 8.27826 17.756 8.30831 17.756C8.34006 17.756 8.35541 17.7438 8.34495 17.7269C8.33503 17.711 8.34353 17.7002 8.36382 17.7029C8.44031 17.7134 8.47181 17.7008 8.45258 17.6675C8.44176 17.6488 8.44261 17.6422 8.45441 17.6528C8.48692 17.682 8.63782 17.5953 8.61591 17.56C8.60559 17.5433 8.60889 17.5369 8.62321 17.5458C8.63755 17.5546 8.70092 17.5081 8.76403 17.4423C8.87838 17.3232 8.90944 17.2299 8.84462 17.2003C8.82585 17.1916 8.8371 17.1911 8.86964 17.1991C8.9422 17.2168 8.97738 17.1688 8.93187 17.1142C8.9134 17.092 8.90619 17.066 8.91583 17.0564C8.92551 17.0467 8.93378 17.0562 8.93422 17.0774C8.93477 17.1023 8.94657 17.0966 8.96733 17.0616C9.0132 16.9841 9.0174 16.9303 8.9797 16.9036C8.9546 16.8857 8.95495 16.8772 8.98121 16.8666C9.02303 16.8497 9.02956 16.476 8.98804 16.476C8.97301 16.476 8.96072 16.4403 8.96072 16.3965C8.96072 16.3163 8.88248 16.1497 8.84462 16.1494C8.83334 16.1493 8.82413 16.1365 8.82413 16.1209C8.82413 16.061 8.58488 15.8224 8.52478 15.8224C8.50913 15.8224 8.49623 15.8133 8.49615 15.802C8.49582 15.7643 8.32875 15.6863 8.24824 15.6863C8.2044 15.6863 8.1685 15.674 8.1685 15.659C8.1685 15.6435 8.08655 15.6318 7.97727 15.6318C7.868 15.6318 7.78605 15.6435 7.78605 15.659ZM20.5298 15.659C20.5206 15.674 20.4707 15.6863 20.419 15.6863C20.3672 15.6863 20.325 15.6985 20.325 15.7135C20.325 15.7285 20.3 15.7407 20.2695 15.7407C20.2389 15.7407 20.2069 15.7591 20.1983 15.7816C20.1896 15.8041 20.1654 15.8224 20.1445 15.8224C20.1083 15.8224 19.8879 16.023 19.8879 16.0559C19.8879 16.0644 19.8693 16.0899 19.8466 16.1125C19.824 16.1351 19.8124 16.1649 19.8209 16.1787C19.8295 16.1924 19.8173 16.2037 19.7939 16.2037C19.7634 16.2037 19.7513 16.2309 19.7513 16.299C19.7513 16.3514 19.739 16.3943 19.724 16.3943C19.7075 16.3943 19.6966 16.5078 19.6966 16.6803C19.6966 16.8528 19.7075 16.9662 19.724 16.9662C19.7621 16.9662 19.7583 17.0411 19.7195 17.054C19.6635 17.0726 19.8167 17.3559 19.9628 17.5038C20.084 17.6265 20.325 17.7843 20.325 17.741C20.325 17.7321 20.3452 17.7451 20.3699 17.7697C20.4062 17.8059 20.4193 17.8075 20.4378 17.7784C20.4551 17.7512 20.4608 17.7507 20.4611 17.7764C20.4614 17.7952 20.4869 17.8105 20.5178 17.8105C20.5555 17.8105 20.5673 17.7992 20.5535 17.7764C20.5375 17.7498 20.5417 17.7494 20.5732 17.7748C20.619 17.8117 20.844 17.8108 20.844 17.7737C20.844 17.7603 20.8634 17.7654 20.887 17.7849C20.9227 17.8144 20.9342 17.814 20.9539 17.7823C20.9669 17.7612 20.9859 17.7522 20.9959 17.7622C21.0519 17.818 21.633 17.3811 21.5916 17.3144C21.5843 17.3026 21.5921 17.293 21.6089 17.293C21.6257 17.293 21.6325 17.2818 21.624 17.2681C21.6155 17.2544 21.6211 17.2391 21.6363 17.234C21.6724 17.222 21.6957 17.1024 21.662 17.1024C21.6478 17.1024 21.6362 17.0888 21.6362 17.0723C21.6362 17.0557 21.6545 17.0491 21.6769 17.0577C21.6992 17.0662 21.7151 17.0645 21.712 17.0538C21.709 17.0431 21.7219 17.0067 21.7407 16.973C21.7694 16.9214 21.7682 16.9118 21.7328 16.9118C21.7097 16.9118 21.6909 16.8995 21.6909 16.8845C21.6909 16.8696 21.7104 16.8573 21.7342 16.8573C21.7709 16.8573 21.7755 16.829 21.7641 16.6743C21.7566 16.5737 21.7371 16.4869 21.7207 16.4814C21.7043 16.476 21.6909 16.4235 21.6909 16.3648C21.6909 16.3062 21.6786 16.2582 21.6635 16.2582C21.6485 16.2582 21.6362 16.2381 21.6362 16.2136C21.6362 16.1891 21.6055 16.1407 21.5679 16.106C21.5304 16.0713 21.4996 16.029 21.4996 16.0119C21.4996 15.9781 21.3913 15.8793 21.3526 15.8778C21.3393 15.8773 21.3086 15.8541 21.2843 15.8263C21.26 15.7985 21.2124 15.7671 21.1786 15.7564C21.1448 15.7458 21.1172 15.7257 21.1172 15.7117C21.1172 15.6977 21.0749 15.6863 21.0232 15.6863C20.9715 15.6863 20.9216 15.674 20.9123 15.659C20.903 15.6441 20.817 15.6318 20.7211 15.6318C20.6252 15.6318 20.5391 15.6441 20.5298 15.659Z" fill="#040404"/>
</g>
<defs>
<clipPath id="clip0_898_7119">
<rect width="33" height="25" fill="white"/>
</clipPath>
</defs>
</svg>
