<svg width="70" height="31" viewBox="0 0 70 31" fill="none" xmlns="http://www.w3.org/2000/svg">
<path d="M15.0513 10.8676V31H11.9179V13.7638H3.13344V31H0V10.8676H15.0513Z" fill="#161616"/>
<path d="M32.3123 26.1395H23.5576L21.3155 31H17.9363L28.1335 9.68901L37.839 31H34.4598L32.3123 26.1395ZM31.0535 23.2433L28.0119 16.421L24.8488 23.2433H31.0535Z" fill="#161616"/>
<path d="M50.3431 22.7283C49.1464 22.8186 47.1178 22.9407 46.1669 22.9407C44.7839 22.9407 42.604 22.8212 41.1615 21.7036C39.2572 20.225 39.1653 17.7802 39.1653 16.8139V10.8676H42.2988V16.36C42.2988 17.2041 42.2988 18.6243 43.4036 19.4685C44.1113 20.0127 45.2458 20.1029 46.6586 20.1029C48.0092 20.1029 49.2383 20.0127 50.3431 19.8906V10.865H53.4765V30.9973H50.3431V22.7283Z" fill="#161616"/>
<path d="M70 13.7638H61.8287V18.8659H69.7542V21.7647H61.8287V28.1012H70V31H58.6953V10.8676H70V13.7638Z" fill="#161616"/>
<path d="M35.2098 0L29.8224 6.82193L30.3153 7.19789L35.7027 0.375958L35.2098 0Z" fill="#161616"/>
</svg>
