<svg xmlns="http://www.w3.org/2000/svg" xmlns:xlink="http://www.w3.org/1999/xlink"><symbol id="icon-account" viewBox="0 0 23 22"><g fill="none">
<path fill-rule="evenodd" clip-rule="evenodd" d="M10.6 10.8C13.251 10.8 15.4 8.65097 15.4 6C15.4 3.34903 13.251 1.2 10.6 1.2C7.94903 1.2 5.8 3.34903 5.8 6C5.8 8.65097 7.94903 10.8 10.6 10.8ZM10.6 12C13.9137 12 16.6 9.31371 16.6 6C16.6 2.68629 13.9137 0 10.6 0C7.28629 0 4.6 2.68629 4.6 6C4.6 9.31371 7.28629 12 10.6 12Z" fill="#292929"/>
<path fill-rule="evenodd" clip-rule="evenodd" d="M11.1 12.6C5.60446 12.6 1.2 16.8358 1.2 22H0C0 16.1185 4.99756 11.4 11.1 11.4C17.2024 11.4 22.2 16.1185 22.2 22H21C21 16.8358 16.5955 12.6 11.1 12.6Z" fill="#292929"/>
</g></symbol><symbol id="icon-basket" viewBox="0 0 23 23"><g fill="none">
<path d="M7.22972 7C7.22972 7 6.55098 0.999994 11.7022 1C16.8135 1.00001 16.1746 7 16.1746 7M5.2002 22H18.2002C20.4093 22 22.2002 20.2091 22.2002 18V8C22.2002 5.79086 20.4093 4 18.2002 4H5.2002C2.99106 4 1.2002 5.79086 1.2002 8V18C1.2002 20.2091 2.99106 22 5.2002 22Z" stroke="#292929" stroke-linecap="round" stroke-linejoin="round"/>
</g></symbol><symbol id="icon-chevron-down" viewBox="0 0 11 6"><g fill="none">
<path d="M1 1L5.5 5.5L10 1" stroke="#292929" stroke-linejoin="round"/>
</g></symbol><symbol id="icon-search" viewBox="0 0 14 15"><g fill="none">
<path d="M10.2324 11.182L13 14M12.3333 6.76979C12.3333 9.95636 9.79628 12.5396 6.66667 12.5396C3.53705 12.5396 1 9.95636 1 6.76979C1 3.58322 3.53705 1 6.66667 1C9.79628 1 12.3333 3.58322 12.3333 6.76979Z" stroke="#292929" stroke-width="1.2" stroke-linecap="round" stroke-linejoin="round"/>
</g></symbol><symbol id="logo" viewBox="0 0 70 31"><g fill="none">
<path d="M15.0513 10.8676V31H11.9179V13.7638H3.13344V31H0V10.8676H15.0513Z" fill="#161616"/>
<path d="M32.3123 26.1395H23.5576L21.3155 31H17.9363L28.1335 9.68901L37.839 31H34.4598L32.3123 26.1395ZM31.0535 23.2433L28.0119 16.421L24.8488 23.2433H31.0535Z" fill="#161616"/>
<path d="M50.3431 22.7283C49.1464 22.8186 47.1178 22.9407 46.1669 22.9407C44.7839 22.9407 42.604 22.8212 41.1615 21.7036C39.2572 20.225 39.1653 17.7802 39.1653 16.8139V10.8676H42.2988V16.36C42.2988 17.2041 42.2988 18.6243 43.4036 19.4685C44.1113 20.0127 45.2458 20.1029 46.6586 20.1029C48.0092 20.1029 49.2383 20.0127 50.3431 19.8906V10.865H53.4765V30.9973H50.3431V22.7283Z" fill="#161616"/>
<path d="M70 13.7638H61.8287V18.8659H69.7542V21.7647H61.8287V28.1012H70V31H58.6953V10.8676H70V13.7638Z" fill="#161616"/>
<path d="M35.2098 0L29.8224 6.82193L30.3153 7.19789L35.7027 0.375958L35.2098 0Z" fill="#161616"/>
</g></symbol></svg>