<svg xmlns="http://www.w3.org/2000/svg" xmlns:xlink="http://www.w3.org/1999/xlink"><symbol id="icon-account" viewBox="0 0 23 22"><g fill="none">
<path fill-rule="evenodd" clip-rule="evenodd" d="M10.6 10.8C13.251 10.8 15.4 8.65097 15.4 6C15.4 3.34903 13.251 1.2 10.6 1.2C7.94903 1.2 5.8 3.34903 5.8 6C5.8 8.65097 7.94903 10.8 10.6 10.8ZM10.6 12C13.9137 12 16.6 9.31371 16.6 6C16.6 2.68629 13.9137 0 10.6 0C7.28629 0 4.6 2.68629 4.6 6C4.6 9.31371 7.28629 12 10.6 12Z" fill="#292929"/>
<path fill-rule="evenodd" clip-rule="evenodd" d="M11.1 12.6C5.60446 12.6 1.2 16.8358 1.2 22H0C0 16.1185 4.99756 11.4 11.1 11.4C17.2024 11.4 22.2 16.1185 22.2 22H21C21 16.8358 16.5955 12.6 11.1 12.6Z" fill="#292929"/>
</g></symbol><symbol id="icon-arrow-back" viewBox="0 0 32 29"><g fill="none">
<rect width="32" height="29" fill="white"/>
<path d="M32 14.5H1M1 14.5L8.91304 22M1 14.5L8.91304 7" stroke="#292929" stroke-linejoin="round"/>
</g></symbol><symbol id="icon-arrow" viewBox="0 0 12 12"><g fill="none">
<path d="M1 11L11 1M11 1H1M11 1V11" stroke="currentColor" stroke-linecap="round" stroke-linejoin="round"/>
</g></symbol><symbol id="icon-basket" viewBox="0 0 23 23"><g fill="none">
<path d="M7.22972 7C7.22972 7 6.55098 0.999994 11.7022 1C16.8135 1.00001 16.1746 7 16.1746 7M5.2002 22H18.2002C20.4093 22 22.2002 20.2091 22.2002 18V8C22.2002 5.79086 20.4093 4 18.2002 4H5.2002C2.99106 4 1.2002 5.79086 1.2002 8V18C1.2002 20.2091 2.99106 22 5.2002 22Z" stroke="#292929" stroke-linecap="round" stroke-linejoin="round"/>
</g></symbol><symbol id="icon-chevron-down" viewBox="0 0 11 6"><g fill="none">
<path d="M1 1L5.5 5.5L10 1" stroke="#292929" stroke-linejoin="round"/>
</g></symbol><symbol id="icon-master-card" viewBox="0 0 35 27"><g fill="none">
<path d="M34.3194 26.5947V26.664H34.3834C34.3954 26.6642 34.4072 26.6612 34.4177 26.6552C34.4261 26.6491 34.431 26.639 34.4305 26.6286C34.431 26.6184 34.4261 26.6085 34.4177 26.6028C34.4074 26.5966 34.3954 26.5935 34.3834 26.594H34.3194V26.5947ZM34.384 26.5457C34.4115 26.5439 34.4386 26.5519 34.4609 26.5682C34.4791 26.5831 34.489 26.606 34.4878 26.6295C34.4887 26.6498 34.4808 26.6694 34.4662 26.6834C34.4491 26.6985 34.4274 26.7075 34.4048 26.7092L34.4906 26.808H34.4245L34.3456 26.7099H34.32V26.808H34.2648V26.5458H34.384V26.5457ZM34.3669 26.8982C34.3959 26.8986 34.4245 26.8927 34.4511 26.8809C34.4767 26.8698 34.5 26.8539 34.5197 26.834C34.5395 26.814 34.5553 26.7907 34.5662 26.7647C34.5887 26.7097 34.5887 26.6481 34.5662 26.5931C34.5551 26.5673 34.5393 26.5437 34.5197 26.5238C34.5 26.5039 34.4767 26.488 34.4511 26.4769C34.4244 26.4658 34.3957 26.4602 34.3669 26.4606C34.3375 26.4602 34.3084 26.4658 34.2811 26.4769C34.2549 26.4878 34.2312 26.5037 34.2109 26.5238C34.1488 26.5881 34.1308 26.6836 34.1651 26.7664C34.1756 26.7924 34.1912 26.8159 34.2109 26.8357C34.2312 26.8558 34.2549 26.8717 34.2811 26.8827C34.3082 26.8943 34.3374 26.9003 34.3669 26.9M34.3669 26.3975C34.4422 26.3975 34.5148 26.4273 34.5685 26.4807C34.5944 26.5063 34.615 26.5368 34.6292 26.5706C34.6589 26.6406 34.6589 26.7198 34.6292 26.7898C34.6148 26.8234 34.594 26.8539 34.5685 26.8797C34.5422 26.9052 34.5115 26.9258 34.4781 26.9404C34.4429 26.9554 34.4051 26.963 34.3669 26.9629C34.3283 26.9632 34.29 26.9554 34.2543 26.9404C34.2205 26.9261 34.1897 26.9055 34.1632 26.8797C34.1377 26.8529 34.1173 26.8213 34.1034 26.7868C34.0737 26.7168 34.0737 26.6377 34.1034 26.5677C34.1176 26.5339 34.1382 26.5034 34.1641 26.4777C34.19 26.4516 34.2211 26.4308 34.2552 26.4171C34.2909 26.402 34.3291 26.3942 34.3677 26.3946M8.0976 25.3851C8.0976 24.8853 8.42185 24.4746 8.9518 24.4746C9.48175 24.4746 9.79999 24.8676 9.79999 25.3851C9.79999 25.9027 9.45824 26.2956 8.9518 26.2956C8.44535 26.2956 8.0976 25.885 8.0976 25.3851ZM10.3773 25.3851V23.9626H9.76499V24.3091C9.57078 24.0531 9.27622 23.8924 8.87562 23.8924C8.08645 23.8924 7.46711 24.5176 7.46711 25.3858C7.46711 26.254 8.0861 26.8792 8.87562 26.8792C9.27604 26.8792 9.57078 26.7184 9.76499 26.4625V26.8078H10.3766V25.3851H10.3773ZM31.0661 25.3851C31.0661 24.8853 31.3903 24.4746 31.9204 24.4746C32.4506 24.4746 32.7686 24.8676 32.7686 25.3851C32.7686 25.9027 32.4274 26.2956 31.9204 26.2956C31.4135 26.2956 31.0661 25.885 31.0661 25.3851ZM33.3464 25.3851V22.8208H32.7336V24.3091C32.5394 24.0531 32.2449 23.8924 31.8443 23.8924C31.0551 23.8924 30.4358 24.5176 30.4358 25.3858C30.4358 26.254 31.0547 26.8792 31.8443 26.8792C32.2449 26.8792 32.5394 26.7184 32.7336 26.4625V26.8078H33.3464V25.3851ZM17.9767 24.4453C18.3713 24.4453 18.6247 24.6952 18.6894 25.1351H17.2284C17.2937 24.7245 17.5406 24.4453 17.9769 24.4453M17.9891 23.8909C17.1639 23.8909 16.5866 24.4973 16.5866 25.3843C16.5866 26.2712 17.187 26.8776 18.0301 26.8776C18.4542 26.8776 18.8426 26.7707 19.1843 26.4791L18.8843 26.0208C18.6482 26.2114 18.3476 26.3183 18.0651 26.3183C17.6705 26.3183 17.3112 26.1338 17.2229 25.6218H19.3137C19.3197 25.5449 19.3259 25.4673 19.3259 25.3841C19.3197 24.4975 18.7769 23.8907 17.9887 23.8907M25.3813 25.3841C25.3813 24.8842 25.7055 24.4736 26.2354 24.4736C26.7654 24.4736 27.0836 24.8665 27.0836 25.3841C27.0836 25.9016 26.7419 26.2946 26.2354 26.2946C25.729 26.2946 25.3811 25.884 25.3811 25.3841M27.6608 25.3841V23.9626H27.0488V24.3091C26.8539 24.0531 26.56 23.8924 26.1594 23.8924C25.3703 23.8924 24.7509 24.5176 24.7509 25.3858C24.7509 26.254 25.3699 26.8792 26.1594 26.8792C26.56 26.8792 26.8539 26.7184 27.0488 26.4625V26.8078H27.6609V25.3841H27.6608ZM21.9233 25.3841C21.9233 26.2468 22.5179 26.8775 23.4255 26.8775C23.8496 26.8775 24.1321 26.7822 24.4377 26.5384L24.1436 26.0385C23.9137 26.2054 23.6723 26.2946 23.4059 26.2946C22.9171 26.2885 22.5577 25.9316 22.5577 25.3841C22.5577 24.8366 22.9171 24.4798 23.4059 24.4736C23.6717 24.4736 23.913 24.5628 24.1436 24.7297L24.4377 24.2298C24.1316 23.986 23.849 23.8907 23.4255 23.8907C22.5179 23.8907 21.9233 24.5212 21.9233 25.3841ZM29.8168 23.8907C29.4635 23.8907 29.2335 24.0576 29.0744 24.3074V23.9626H28.4676V26.8062H29.0806V25.2122C29.0806 24.7416 29.2808 24.4802 29.6811 24.4802C29.8121 24.4783 29.9423 24.5025 30.064 24.5517L30.2527 23.9689C30.1172 23.915 29.9405 23.8912 29.8164 23.8912M13.4043 24.1887C13.1097 23.9926 12.7038 23.8912 12.256 23.8912C11.5427 23.8912 11.0834 24.2366 11.0834 24.8016C11.0834 25.2652 11.4254 25.5513 12.055 25.6405L12.3442 25.6821C12.68 25.7297 12.8385 25.819 12.8385 25.9796C12.8385 26.1995 12.6155 26.3249 12.1967 26.3249C11.7779 26.3249 11.4665 26.188 11.2601 26.0274L10.9724 26.5096C11.3082 26.7595 11.7323 26.8787 12.1915 26.8787C13.0047 26.8787 13.476 26.4919 13.476 25.9505C13.476 25.4506 13.1051 25.1892 12.4923 25.0999L12.2037 25.0577C11.9387 25.023 11.7263 24.9691 11.7263 24.7785C11.7263 24.5706 11.9265 24.4455 12.2624 24.4455C12.6218 24.4455 12.9697 24.5824 13.1403 24.6893L13.4053 24.1894L13.4043 24.1887ZM21.3048 23.8918C20.9516 23.8918 20.7215 24.0586 20.5632 24.3085V23.9626H19.9563V26.8062H20.5686V25.2122C20.5686 24.7416 20.7689 24.4802 21.1691 24.4802C21.3002 24.4783 21.4304 24.5025 21.552 24.5517L21.7407 23.9689C21.6052 23.915 21.4285 23.8912 21.3045 23.8912M16.0798 23.9626H15.0786V23.0999H14.4596V23.9626H13.8884V24.5278H14.4596V25.825C14.4596 26.4848 14.7131 26.8778 15.4375 26.8778C15.7032 26.8778 16.0093 26.7946 16.2035 26.6579L16.0266 26.1284C15.8439 26.2353 15.6437 26.2892 15.4845 26.2892C15.1784 26.2892 15.0786 26.0986 15.0786 25.8133V24.5283H16.0798V23.9626ZM6.9255 26.8069V25.0223C6.9255 24.3502 6.5014 23.898 5.81774 23.8919C5.45832 23.8859 5.08758 23.9988 4.82801 24.3979C4.6338 24.0825 4.32774 23.8919 3.89746 23.8919C3.59672 23.8919 3.30284 23.9812 3.07277 24.3142V23.9626H2.45996V26.8062H3.07758V25.2295C3.07758 24.7359 3.34864 24.4736 3.76725 24.4736C4.18586 24.4736 4.37955 24.7413 4.37955 25.2233V26.8059H4.99854V25.2292C4.99854 24.7356 5.2811 24.4732 5.68752 24.4732C6.09395 24.4732 6.30514 24.7409 6.30514 25.2229V26.8056L6.9255 26.8069Z" fill="white"/>
<path opacity="0.56" d="M34.6681 17.348V16.9321H34.5608L34.4368 17.2175L34.3135 16.9321H34.2059V17.348H34.2821V17.0347L34.398 17.305H34.477L34.5929 17.034V17.348H34.6681ZM33.9878 17.348V17.0033H34.1251V16.9332H33.7744V17.0033H33.9117V17.348H33.9878Z" fill="white"/>
<path opacity="0.75" d="M21.8924 10.7106C21.8924 7.29414 20.3086 4.25108 17.8415 2.2899C17.8415 2.2899 17.8419 2.28972 17.8421 2.28955H17.8407C17.8407 2.28955 17.841 2.28972 17.8412 2.2899C15.3749 4.25108 13.791 7.29431 13.791 10.7106C13.791 14.1268 15.375 17.1701 17.841 19.1309H17.8422C20.3091 17.1697 21.8928 14.1268 21.8928 10.7106H21.8924Z" fill="white"/>
<path d="M17.8406 19.1311C15.3746 17.1702 13.7906 14.127 13.7906 10.7107C13.7906 7.29447 15.3745 4.25124 17.8408 2.29006C17.8408 2.29006 17.8405 2.28988 17.8403 2.28971C15.9737 0.803268 13.6649 -0.00345418 11.2876 1.11175e-05C5.43101 1.11175e-05 0.683594 4.7953 0.683594 10.7107C0.683594 16.6262 5.43101 21.4215 11.2876 21.4215C13.665 21.4251 15.9742 20.6182 17.8412 19.1314C17.8412 19.1314 17.8408 19.1312 17.8408 19.1311H17.8406Z" fill="white"/>
<path opacity="0.5" d="M35 10.7107C35 4.7953 30.2526 1.11175e-05 24.3961 1.11175e-05C22.0186 -0.00345418 19.7094 0.803268 17.8423 2.28971C17.8423 2.28971 17.842 2.28988 17.8418 2.29006C20.3088 4.25124 21.8927 7.2943 21.8927 10.7107C21.8927 14.1272 20.309 17.1699 17.8421 19.1311C17.8421 19.1311 17.8418 19.1312 17.8418 19.1314C19.7091 20.618 22.0184 21.4249 24.3963 21.4215C30.2528 21.4215 35.0002 16.6262 35.0002 10.7107H35Z" fill="white"/>
</g></symbol><symbol id="icon-mir" viewBox="0 0 43 13"><g fill="none">
<path d="M15.2031 12.0738H11.413V5.35174H11.1619C10.4571 7.59294 9.75259 9.83152 9.04698 12.0753H6.17236C5.46865 9.83713 4.76304 7.59331 4.05592 5.34501H3.81353C3.8003 5.90447 3.80937 6.46094 3.80748 7.01741C3.80597 7.5765 3.80748 8.13558 3.80748 8.69467C3.80748 9.25375 3.80748 9.81284 3.80748 10.3719C3.80748 10.9306 3.80748 11.4893 3.80748 12.0432C3.66606 12.0944 0.231043 12.1064 0 12.0582V0.643985C0.081678 0.638753 0.160331 0.629784 0.238984 0.62941C1.41122 0.628663 2.58345 0.628663 3.7553 0.628663C3.91866 0.628663 4.08239 0.623804 4.24537 0.62941C4.99144 0.655571 5.47886 1.05284 5.76662 1.70087C5.89746 1.99498 5.98443 2.30891 6.07556 2.61872C6.52479 4.14462 6.96835 5.67202 7.41455 7.19867C7.43157 7.25734 7.45463 7.31452 7.47694 7.37805H7.74542C7.76735 7.31115 7.79193 7.24276 7.81235 7.17325C8.31528 5.47544 8.81631 3.77688 9.32113 2.07982C9.4323 1.70572 9.60625 1.36414 9.89779 1.08946C10.1878 0.81627 10.5368 0.671267 10.9316 0.640622C11.1695 0.621936 11.4092 0.629784 11.6482 0.62941C12.7573 0.628663 13.8664 0.629036 14.9754 0.629036H15.1929C15.2371 0.786746 15.2447 11.8623 15.2031 12.0742V12.0738Z" fill="white"/>
<path d="M28.8084 12.0749H24.9457V5.3509H24.6383C24.611 5.40547 24.5785 5.46489 24.5505 5.52655C23.7481 7.28752 22.9442 9.04812 22.1444 10.8102C21.84 11.4807 21.333 11.9026 20.6043 12.0611C20.5313 12.0767 20.4549 12.0838 20.3801 12.0838C19.2585 12.0853 18.1369 12.085 17.0154 12.0842C16.9541 12.0842 16.8929 12.0779 16.8184 12.0734V0.667816C16.9484 0.621101 20.3536 0.602415 20.6852 0.64913C20.6905 0.727611 20.7011 0.810951 20.7011 0.894664C20.7018 2.96919 20.7018 5.04371 20.7018 7.11823V7.36675H20.9843C21.0138 7.30995 21.0501 7.24567 21.0811 7.17952C21.8945 5.43013 22.7098 3.68187 23.5182 1.93024C23.7508 1.42609 24.0809 1.02173 24.6001 0.785164C24.8258 0.682017 25.0584 0.625585 25.3114 0.62708C26.4015 0.632686 27.4913 0.629323 28.5815 0.629323C28.656 0.629323 28.7301 0.629323 28.7986 0.629323C28.8455 0.788154 28.853 11.8656 28.8088 12.0753L28.8084 12.0749Z" fill="white"/>
<path d="M42.5021 5.35708C42.4235 5.36082 42.3554 5.36643 42.2874 5.36643C40.0007 5.36605 37.7138 5.37091 35.4272 5.35895C34.945 5.35634 34.458 5.36605 33.9819 5.24273C33.2547 5.05474 32.6127 4.71055 32.0504 4.22508C31.2854 3.56509 30.7326 2.76122 30.4157 1.80599C30.2943 1.43975 30.2088 1.06528 30.1865 0.650823C30.2603 0.647834 30.3317 0.642602 30.4032 0.642602C32.1041 0.640733 33.8049 0.639612 35.5058 0.638117C36.4572 0.63737 37.4082 0.638117 38.3596 0.636248C39.097 0.63438 39.8003 0.778636 40.4507 1.12582C41.612 1.74545 42.2953 2.70965 42.5316 3.98553C42.6103 4.41045 42.6107 4.83649 42.5297 5.26179C42.5252 5.2857 42.5161 5.30887 42.5021 5.35671V5.35708Z" fill="white" fill-opacity="0.5"/>
<path d="M42.247 6.09331C42.1392 6.4106 41.9831 6.68565 41.7902 6.93941C41.1466 7.78514 40.2792 8.29004 39.2495 8.54267C38.8683 8.6361 38.4807 8.66787 38.0886 8.66712C36.8287 8.6645 35.5687 8.66637 34.3087 8.66637C34.2346 8.66637 34.1601 8.66637 34.0664 8.66637V12.0429C33.9151 12.0945 30.5905 12.1053 30.3647 12.059V6.11274C30.3719 6.10415 30.3757 6.09891 30.3802 6.0948C30.3848 6.09069 30.3897 6.08621 30.3954 6.08509C30.42 6.08023 30.4445 6.07275 30.4691 6.07275C34.3689 6.07275 38.2686 6.07275 42.1684 6.0735C42.1861 6.0735 42.2039 6.0821 42.2478 6.09331H42.247Z" fill="white"/>
</g></symbol><symbol id="icon-search" viewBox="0 0 14 15"><g fill="none">
<path d="M10.2324 11.182L13 14M12.3333 6.76979C12.3333 9.95636 9.79628 12.5396 6.66667 12.5396C3.53705 12.5396 1 9.95636 1 6.76979C1 3.58322 3.53705 1 6.66667 1C9.79628 1 12.3333 3.58322 12.3333 6.76979Z" stroke="#292929" stroke-width="1.2" stroke-linecap="round" stroke-linejoin="round"/>
</g></symbol><symbol id="icon-telegram" viewBox="0 0 600 600"><path d="" stroke="none" fill="#080404" fill-rule="evenodd"/><path d="M 529.500 72.805 C 527.300 73.833, 522.350 75.707, 518.500 76.970 C 514.650 78.233, 511.050 79.599, 510.500 80.006 C 509.950 80.413, 505.675 82.129, 501 83.820 C 496.325 85.511, 488.225 88.539, 483 90.548 C 477.775 92.558, 469.900 95.523, 465.500 97.136 C 461.100 98.750, 456.150 100.676, 454.500 101.417 C 452.850 102.158, 449.700 103.329, 447.500 104.019 C 445.300 104.710, 441.700 106.105, 439.500 107.121 C 437.300 108.136, 432.350 110.073, 428.500 111.425 C 424.650 112.778, 417.225 115.534, 412 117.550 C 406.775 119.566, 398.450 122.712, 393.500 124.540 C 388.550 126.369, 379.775 129.723, 374 131.993 C 368.225 134.264, 360.125 137.290, 356 138.717 C 351.875 140.144, 348.275 141.579, 348 141.906 C 347.725 142.233, 344.125 143.693, 340 145.152 C 326.876 149.793, 315.564 154.003, 313.500 155.015 C 312.400 155.555, 307.900 157.321, 303.500 158.940 C 299.100 160.559, 291.225 163.503, 286 165.482 C 280.775 167.460, 272.675 170.477, 268 172.185 C 263.325 173.892, 259.050 175.615, 258.500 176.012 C 257.950 176.409, 254.350 177.753, 250.500 178.998 C 246.650 180.244, 242.375 181.870, 241 182.611 C 239.625 183.353, 235.350 185.067, 231.500 186.420 C 227.650 187.774, 220.225 190.531, 215 192.548 C 209.775 194.565, 201.450 197.722, 196.500 199.563 C 191.550 201.404, 183.225 204.551, 178 206.556 C 172.775 208.562, 164.900 211.515, 160.500 213.118 C 156.100 214.722, 151.600 216.466, 150.500 216.994 C 148.469 217.969, 140.943 220.835, 126.500 226.135 C 122.100 227.749, 117.082 229.729, 115.349 230.535 C 113.616 231.341, 111.872 232, 111.473 232 C 111.074 232, 106.867 233.536, 102.124 235.414 C 97.381 237.292, 87.200 241.169, 79.500 244.030 C 71.800 246.891, 64.150 249.835, 62.500 250.573 C 60.850 251.310, 57.025 252.844, 54 253.983 C 47.353 256.484, 44.173 259.058, 40.387 265 C 37.890 268.920, 37.519 270.467, 37.510 277 C 37.501 283.847, 37.792 284.940, 40.855 289.552 C 46.239 297.661, 46.461 297.774, 77.500 308.067 C 87.400 311.350, 96.400 314.439, 97.500 314.931 C 98.600 315.422, 108.050 318.584, 118.500 321.957 C 128.950 325.330, 138.400 328.513, 139.500 329.031 C 140.600 329.549, 144.836 330.998, 148.913 332.252 L 156.327 334.532 158.109 340.516 C 159.089 343.807, 162.205 353.025, 165.034 361 C 172.763 382.793, 175.799 391.585, 179.019 401.500 C 180.627 406.450, 182.368 411.222, 182.889 412.104 C 183.409 412.986, 184.971 417.261, 186.359 421.604 C 187.748 425.947, 190.732 434.675, 192.992 441 C 195.251 447.325, 198.405 456.325, 200.001 461 C 201.597 465.675, 204.440 474, 206.319 479.500 C 211.641 495.078, 214.279 500.265, 218.608 503.659 C 224.922 508.610, 227.096 509.397, 234.533 509.421 C 243.310 509.450, 245.889 508.014, 262.596 493.795 C 269.248 488.133, 276.876 481.700, 279.547 479.500 C 284.297 475.587, 296.870 464.942, 304.164 458.657 C 306.179 456.921, 309.554 454.077, 311.664 452.338 C 313.774 450.598, 318.476 446.661, 322.113 443.588 C 325.750 440.514, 329.030 438, 329.402 438 C 329.773 438, 334.731 441.713, 340.419 446.250 C 346.107 450.788, 357.367 459.675, 365.442 466 C 373.518 472.325, 381.163 478.400, 382.432 479.500 C 383.701 480.600, 387.104 483.300, 389.995 485.500 C 392.885 487.700, 399.189 492.650, 404.002 496.500 C 408.816 500.350, 414.470 504.850, 416.567 506.500 C 418.664 508.150, 422.042 510.850, 424.072 512.500 C 440.456 525.812, 446.142 529, 453.500 529 C 460.176 529, 468.280 524.864, 472.609 519.248 C 476.596 514.075, 479.065 504.080, 489.094 452.500 C 490.698 444.250, 492.426 436.375, 492.933 435 C 493.440 433.625, 494.819 426.875, 495.996 420 C 497.174 413.125, 498.547 406.600, 499.048 405.500 C 499.548 404.400, 501.137 396.975, 502.578 389 C 504.019 381.025, 505.395 374.179, 505.635 373.786 C 506.036 373.133, 509.647 355.783, 514.957 329 C 516.102 323.225, 518.134 313.550, 519.474 307.500 C 521.824 296.884, 524.155 285.630, 529.932 257 C 531.430 249.575, 532.944 242.825, 533.296 242 C 533.648 241.175, 535.272 233.525, 536.905 225 C 538.537 216.475, 541.438 202.075, 543.350 193 C 550.881 157.265, 554.269 140.904, 557.017 127 C 558.593 119.025, 560.631 109.605, 561.546 106.067 C 565.119 92.250, 561.527 81.053, 551.500 74.752 C 545.084 70.721, 535.733 69.893, 529.500 72.805 M 530.935 94.004 C 512.460 100.763, 490.107 109.225, 486 111.014 C 480.940 113.219, 470.938 116.966, 460.500 120.567 C 456.650 121.896, 452.684 123.458, 451.687 124.039 C 450.689 124.621, 446.189 126.446, 441.687 128.096 C 430.211 132.300, 417.128 137.225, 406 141.528 C 400.775 143.549, 392.675 146.551, 388 148.199 C 383.325 149.847, 379.050 151.542, 378.500 151.965 C 377.950 152.388, 374.350 153.754, 370.500 155 C 366.650 156.246, 363.050 157.597, 362.500 158 C 361.950 158.404, 357.675 160.110, 353 161.792 C 348.325 163.474, 340.225 166.487, 335 168.489 C 329.775 170.491, 322.125 173.397, 318 174.946 C 313.875 176.495, 305.550 179.672, 299.500 182.005 C 293.450 184.338, 285.125 187.455, 281 188.931 C 276.875 190.407, 272.600 192.091, 271.500 192.673 C 270.400 193.256, 266.350 194.752, 262.500 195.999 C 258.650 197.246, 255.050 198.618, 254.500 199.048 C 253.950 199.478, 250.575 200.792, 247 201.968 C 243.425 203.144, 239.673 204.561, 238.663 205.116 C 237.652 205.672, 232.702 207.624, 227.663 209.455 C 222.623 211.286, 214.225 214.435, 209 216.452 C 203.775 218.469, 195.733 221.432, 191.130 223.037 C 186.526 224.641, 182.251 226.355, 181.630 226.844 C 181.008 227.333, 177.350 228.754, 173.500 230 C 169.650 231.246, 166.050 232.597, 165.500 233.001 C 164.950 233.405, 160.675 234.996, 156 236.537 C 151.325 238.078, 147.029 239.691, 146.453 240.123 C 145.878 240.554, 141.603 242.299, 136.953 243.999 C 124.562 248.531, 111.769 253.321, 101 257.461 C 95.775 259.469, 87.689 262.472, 83.030 264.133 C 78.372 265.794, 74.098 267.457, 73.534 267.827 C 72.969 268.197, 69.396 269.625, 65.594 271 C 58.047 273.729, 55.816 275.894, 57.608 278.750 C 58.268 279.800, 65.262 282.729, 75.103 286.076 C 84.122 289.143, 92.175 291.922, 93 292.251 C 93.825 292.580, 98.775 294.251, 104 295.964 C 112.841 298.864, 119.016 300.872, 139.500 307.513 C 143.900 308.939, 149.750 310.975, 152.500 312.036 C 162.596 315.933, 161.716 316.145, 183.533 304.557 C 194.515 298.723, 204.625 293.303, 206 292.511 C 207.375 291.720, 210.975 289.766, 214 288.169 C 217.025 286.572, 222.650 283.564, 226.500 281.485 C 230.350 279.405, 236.425 276.198, 240 274.357 C 243.575 272.516, 247.175 270.582, 248 270.059 C 248.825 269.536, 262.325 262.308, 278 253.998 C 293.675 245.687, 307.625 238.212, 309 237.385 C 310.375 236.558, 313.750 234.753, 316.500 233.374 C 319.250 231.994, 324.650 229.116, 328.500 226.977 C 332.350 224.839, 338.200 221.745, 341.500 220.102 C 344.800 218.459, 359.200 210.759, 373.500 202.991 C 387.800 195.223, 402.200 187.499, 405.500 185.828 C 408.800 184.157, 414.650 181.056, 418.500 178.938 C 431.748 171.649, 435.510 170.020, 439.115 170.010 C 445.959 169.991, 450.664 176.791, 448.110 183.010 C 447.548 184.380, 444.481 188.263, 441.294 191.641 C 431.671 201.840, 409.133 225.636, 398.426 236.901 C 392.885 242.730, 384.088 252, 378.877 257.500 C 357.586 279.970, 349.475 288.526, 349 289.017 C 345.615 292.517, 327.088 312.081, 314.480 325.468 C 305.691 334.801, 296.925 344.065, 295 346.054 C 284.348 357.063, 275 367.278, 275 367.907 C 275 368.630, 281.610 374.002, 312 397.979 C 321.075 405.139, 331.875 413.713, 336 417.034 C 340.125 420.354, 346.425 425.335, 350 428.102 C 353.575 430.870, 358.010 434.341, 359.856 435.817 C 361.701 437.293, 364.916 439.850, 367 441.500 C 369.084 443.150, 372.299 445.696, 374.144 447.158 C 375.990 448.620, 380.425 452.123, 384 454.942 C 387.575 457.762, 391.689 461.066, 393.142 462.284 C 394.595 463.503, 398.130 466.300, 400.998 468.500 C 403.867 470.700, 409.909 475.425, 414.426 479 C 418.942 482.575, 424.367 486.850, 426.480 488.500 C 428.594 490.150, 432.266 493.075, 434.640 495 C 449.053 506.683, 451.294 508.250, 453.596 508.250 C 454.964 508.250, 456.351 507.982, 456.679 507.654 C 457.293 507.040, 459.435 497.157, 465.442 467.228 C 467.349 457.729, 469.110 449.629, 469.356 449.228 C 469.601 448.828, 470.981 441.975, 472.422 434 C 473.863 426.025, 475.453 418.600, 475.956 417.500 C 476.459 416.400, 478.041 408.750, 479.472 400.500 C 480.903 392.250, 482.468 384.600, 482.949 383.500 C 483.431 382.400, 484.549 377.450, 485.434 372.500 C 486.319 367.550, 488.149 358.550, 489.502 352.500 C 490.854 346.450, 492.897 336.775, 494.043 331 C 499.413 303.917, 502.966 286.864, 503.375 286.202 C 503.622 285.803, 504.794 280.082, 505.979 273.488 C 507.165 266.895, 509.224 256.775, 510.555 251 C 512.965 240.547, 514.409 233.600, 519.914 206 C 521.504 198.025, 523.086 190.806, 523.430 189.958 C 523.773 189.110, 525.357 181.685, 526.949 173.458 C 531.174 151.621, 536.753 124.730, 537.416 123 C 538.659 119.762, 542.861 94.801, 542.376 93.538 C 541.449 91.122, 538.483 91.242, 530.935 94.004 M 375 225.052 C 368.125 228.848, 361.938 231.964, 361.250 231.977 C 360.563 231.989, 360 232.383, 360 232.852 C 360 233.321, 356.962 235.147, 353.250 236.912 C 349.538 238.676, 344.925 241.049, 343 242.185 C 341.075 243.320, 335.450 246.375, 330.500 248.972 C 306.016 261.819, 298.187 265.983, 282.500 274.506 C 273.150 279.586, 263.700 284.655, 261.500 285.771 C 259.300 286.887, 254.575 289.411, 251 291.379 C 247.425 293.348, 241.800 296.360, 238.500 298.074 C 235.200 299.787, 229.350 302.870, 225.500 304.925 C 221.650 306.980, 216.925 309.486, 215 310.494 C 208.029 314.145, 176.493 331.195, 176.213 331.464 C 176.056 331.616, 176.883 334.161, 178.051 337.120 C 180.132 342.389, 181.289 345.718, 188.438 367 C 190.378 372.775, 192.414 378.400, 192.962 379.500 C 193.511 380.600, 195.050 384.875, 196.382 389 C 197.714 393.125, 201.954 405.500, 205.805 416.500 C 209.655 427.500, 215.699 444.780, 219.236 454.901 L 225.666 473.301 227.387 464.401 C 228.333 459.505, 229.731 453.475, 230.494 451 C 231.256 448.525, 232.835 441.550, 234.001 435.500 C 235.167 429.450, 236.562 423.089, 237.101 421.364 C 237.639 419.639, 239.364 412.214, 240.935 404.864 C 246.424 379.167, 249.064 367.709, 249.779 366.475 C 250.420 365.369, 263.479 350.960, 271.500 342.507 C 277.338 336.356, 312.684 298.626, 316.500 294.472 C 319.858 290.818, 331.903 278.024, 341.450 267.971 C 346.428 262.730, 356.350 252.163, 363.500 244.489 C 370.650 236.816, 377.658 229.404, 379.073 228.018 C 382.113 225.043, 388.362 217.967, 387.854 218.075 C 387.659 218.116, 381.875 221.256, 375 225.052 M 263.200 397.293 C 262.029 402.907, 259.479 414.475, 257.534 423 C 255.589 431.525, 252.659 444.800, 251.025 452.500 C 249.390 460.200, 247.140 470.062, 246.025 474.415 C 244.910 478.769, 244.110 482.426, 244.249 482.543 C 244.387 482.660, 250.639 477.523, 258.141 471.128 C 265.644 464.732, 273.937 457.700, 276.570 455.500 C 287.407 446.445, 290.649 443.716, 293.594 441.173 C 295.296 439.703, 298.614 436.925, 300.967 435 C 303.320 433.075, 307.010 429.925, 309.167 428 L 313.090 424.500 305.925 419 C 301.985 415.975, 297.100 412.150, 295.070 410.500 C 293.041 408.850, 289.658 406.150, 287.554 404.500 C 285.449 402.850, 280.076 398.554, 275.614 394.953 C 271.151 391.352, 267.012 388.109, 266.415 387.746 C 265.707 387.316, 264.588 390.639, 263.200 397.293" stroke="none" fill="currentColor" fill-rule="evenodd"/></symbol><symbol id="icon-visa" viewBox="0 0 42 13"><g fill="none">
<path d="M41.1127 12.6663V12.7376H38.0435C37.9101 12.1377 37.7795 11.5502 37.6481 10.9592H33.3854C33.1541 11.5509 32.9226 12.1437 32.6929 12.7312H29.2183C29.2364 12.6858 29.2498 12.6492 29.2659 12.6136C30.5618 9.74305 31.8577 6.87253 33.1541 4.00225C33.493 3.25201 33.8313 2.5013 34.1742 1.75249C34.3092 1.45791 34.5136 1.21369 34.8186 1.05191C35.1198 0.892265 35.4507 0.840238 35.7908 0.838337C36.6444 0.834061 37.4982 0.836199 38.3519 0.836437C38.3805 0.836437 38.4092 0.841663 38.4397 0.844514C38.7255 2.11431 39.0098 3.37887 39.2943 4.64344C39.5894 5.95457 39.8847 7.2657 40.1794 8.57707C40.4481 9.77227 40.716 10.9677 40.9857 12.1627C41.0238 12.3313 41.0699 12.4983 41.1124 12.6661L41.1127 12.6663ZM34.3468 8.51839H37.0997C36.7699 7.03526 36.4421 5.55997 36.1094 4.06449C35.519 5.55593 34.9364 7.02885 34.3468 8.51839Z" fill="white"/>
<path d="M27.4878 0.621826C27.6079 0.636793 27.7275 0.654848 27.8481 0.666251C28.5427 0.730869 29.2165 0.876973 29.8698 1.10504C29.8857 1.1105 29.9003 1.11882 29.9326 1.13378C29.7838 1.98142 29.6344 2.83405 29.4844 3.68976C29.247 3.59996 29.0211 3.50802 28.7903 3.42868C27.9598 3.14288 27.101 3.05879 26.2236 3.14455C25.8517 3.18089 25.4965 3.27735 25.1917 3.49329C25.014 3.61944 24.8842 3.77671 24.8258 3.98007C24.7517 4.23878 24.8363 4.46494 25.0312 4.64312C25.2028 4.79991 25.3918 4.94934 25.5984 5.06218C26.02 5.29262 26.4556 5.50097 26.8903 5.70979C27.5108 6.00794 28.0965 6.34956 28.5816 6.82374C29.0403 7.27227 29.3433 7.79586 29.4262 8.41283C29.5179 9.09464 29.4073 9.75389 29.1038 10.3813C28.6933 11.2301 27.9982 11.8214 27.1177 12.2388C26.4938 12.5346 25.8302 12.7182 25.1385 12.8088C24.7886 12.8546 24.4349 12.8753 24.083 12.9073C23.8431 12.9073 23.6031 12.9076 23.3631 12.9078C22.4058 12.8691 21.4631 12.7449 20.5467 12.4771C20.3572 12.4218 20.172 12.3531 19.981 12.2892C20.1374 11.3902 20.2911 10.5065 20.4463 9.61444C20.6691 9.70732 20.8776 9.7957 21.0873 9.88146C21.6667 10.1178 22.2626 10.305 22.8942 10.3732C23.4968 10.4383 24.1007 10.4813 24.7026 10.3637C24.9799 10.3096 25.2442 10.2221 25.4796 10.0732C25.8202 9.85794 26.0167 9.57072 25.98 9.17328C25.9626 8.98465 25.874 8.82572 25.7439 8.68412C25.5503 8.4734 25.3111 8.31305 25.0534 8.18048C24.6513 7.9738 24.24 7.7828 23.8351 7.58063C23.2166 7.27155 22.6342 6.91663 22.1574 6.42914C21.5368 5.79484 21.2797 5.05506 21.3834 4.20172C21.5122 3.14312 22.0716 2.32304 22.979 1.69539C23.6851 1.20695 24.4874 0.919735 25.3469 0.76793C25.6643 0.711864 25.988 0.685732 26.3086 0.64487C26.3268 0.642494 26.3435 0.630141 26.3609 0.622539C26.7366 0.622539 27.112 0.621826 27.4878 0.621826Z" fill="white"/>
<path d="M0.161133 1.02577C0.181109 0.966375 0.20083 0.906983 0.224648 0.836426C0.265881 0.836426 0.312237 0.836426 0.358336 0.836426C2.06146 0.836426 3.76458 0.836426 5.46744 0.836426C5.72073 0.836426 5.97044 0.862321 6.21118 0.935966C6.68012 1.07922 6.94954 1.39257 7.04943 1.8304C7.17646 2.38679 7.28991 2.94578 7.40849 3.50382C7.57496 4.28661 7.74041 5.06963 7.90688 5.85241C7.99498 6.26696 8.08436 6.68151 8.1722 7.09607C8.17963 7.13075 8.17835 7.16686 8.18117 7.20226C8.16452 7.17066 8.14531 7.14002 8.13148 7.10723C7.88741 6.52805 7.57726 5.98046 7.20744 5.46232C6.413 4.34909 5.39957 3.44063 4.20201 2.70608C4.0253 2.59774 3.83859 2.50343 3.6565 2.4027C3.45392 2.29532 3.25518 2.18058 3.04799 2.08151C2.16288 1.65817 1.23371 1.34221 0.272796 1.10535C0.237197 1.09656 0.198525 1.09965 0.161133 1.09704C0.161133 1.07328 0.161133 1.04952 0.161133 1.02577Z" fill="white" fill-opacity="0.5"/>
<path d="M3.65553 2.40236C3.83762 2.50309 4.02433 2.5974 4.20104 2.70573C5.39886 3.44029 6.41228 4.34874 7.20647 5.46198C7.57629 5.98035 7.88644 6.5277 8.13051 7.10689C8.14434 7.13968 8.16355 7.17032 8.1802 7.20192C8.28162 7.65424 8.38304 8.10681 8.48445 8.55914C8.51135 8.67887 8.53747 8.79884 8.57051 8.94874C9.65897 6.23003 10.7372 3.53769 11.8167 0.841309H15.3225C15.2593 0.98765 15.1986 1.13019 15.1364 1.27202C13.4819 5.04315 11.8277 8.81452 10.1722 12.5854C10.0997 12.7503 10.1425 12.7223 9.95605 12.7225C8.88911 12.7237 7.8219 12.723 6.75495 12.723H6.60513C6.53982 12.4982 6.47503 12.2782 6.41202 12.058C5.56174 9.08392 4.71172 6.11006 3.86195 3.13596C3.79204 2.89151 3.72417 2.64682 3.65527 2.40212L3.65553 2.40236Z" fill="white"/>
<path d="M17.9077 12.7323H14.5903C15.2818 8.76658 15.972 4.80777 16.6633 0.843018H19.9806C19.2897 4.8061 18.5989 8.76729 17.9077 12.7323Z" fill="white"/>
</g></symbol><symbol id="icon-whatsapp" viewBox="0 0 600 600"><path d="" stroke="none" fill="#080404" fill-rule="evenodd"/><path d="M 264.500 1.564 C 252.436 2.913, 247.313 3.785, 239 5.908 C 236.525 6.540, 230.225 8.142, 225 9.468 C 192.767 17.647, 157.773 34.587, 131.154 54.895 C 127.114 57.978, 122.723 61.216, 121.397 62.091 C 113.998 66.971, 81.516 100.090, 75.046 109.350 C 74.220 110.532, 73.001 112.175, 72.337 113 C 59.029 129.544, 39.905 163.585, 34.978 179.500 C 34.297 181.700, 33.336 184.010, 32.843 184.634 C 32.350 185.258, 30.826 189.758, 29.456 194.634 C 28.086 199.510, 26.549 204.239, 26.041 205.143 C 24.825 207.305, 18.435 238.038, 16.819 249.500 C 15.133 261.456, 15.136 307.582, 16.824 319.500 C 18.514 331.433, 23.644 356.480, 25.427 361.500 C 26.208 363.700, 28.051 369.550, 29.523 374.500 C 30.994 379.450, 32.545 383.950, 32.969 384.500 C 33.393 385.050, 34.316 387.300, 35.021 389.500 C 39.310 402.888, 59.175 439.264, 67.352 448.703 C 69.200 450.836, 69.205 451.076, 67.509 456.203 C 66.546 459.116, 64.475 466.450, 62.908 472.500 C 61.341 478.550, 58.731 488.450, 57.107 494.500 C 55.483 500.550, 52.294 512.475, 50.020 521 C 47.746 529.525, 44.313 542.350, 42.391 549.500 C 40.469 556.650, 37.784 567, 36.424 572.500 C 35.063 578, 33.511 583.281, 32.975 584.236 C 32.439 585.191, 32 587.867, 32 590.182 C 32 593.387, 32.641 595.059, 34.687 597.195 C 38.995 601.692, 40.196 601.533, 77.500 591.528 C 85.200 589.463, 97.125 586.298, 104 584.494 C 134.819 576.409, 140.592 574.858, 142 574.289 C 142.825 573.955, 148.225 572.443, 154 570.929 C 159.775 569.416, 170.800 566.502, 178.500 564.455 C 186.200 562.409, 196.856 559.600, 202.181 558.214 L 211.862 555.694 221.681 558.397 C 236.890 562.584, 242.145 563.654, 261.500 566.507 C 306.114 573.082, 356.470 567.630, 399.500 551.568 C 406.216 549.061, 418.862 543.731, 422 542.085 C 422.825 541.652, 428.900 538.491, 435.500 535.060 C 442.100 531.629, 448.400 528.069, 449.500 527.148 C 450.600 526.227, 453.075 524.602, 455 523.536 C 473.020 513.558, 509.396 480.149, 525.185 459.076 C 527.008 456.642, 529.706 453.042, 531.180 451.076 C 532.654 449.109, 535.090 445.475, 536.594 443 C 538.097 440.525, 539.624 438.275, 539.988 438 C 542.842 435.841, 562.136 398.390, 564.975 389.500 C 565.677 387.300, 567.047 383.700, 568.020 381.500 C 568.992 379.300, 570.545 374.575, 571.470 371 C 572.396 367.425, 573.624 363.630, 574.200 362.566 C 575.536 360.097, 580.678 335.677, 582.741 322 C 584.771 308.548, 585.052 262.679, 583.186 249.500 C 581.584 238.179, 575.184 207.334, 573.983 205.143 C 573.488 204.239, 571.970 199.900, 570.611 195.500 C 567.550 185.592, 562.423 171.613, 560.568 168.120 C 559.803 166.679, 557.063 161.225, 554.478 156 C 547.954 142.812, 539.345 128.513, 532.204 119 C 530.346 116.525, 527.852 113.190, 526.663 111.588 C 520.237 102.938, 514.129 96.134, 501.446 83.500 C 482.712 64.838, 473.983 57.541, 458 47.184 C 453.325 44.154, 448.295 40.859, 446.821 39.861 C 442.699 37.067, 419.341 25.116, 411.500 21.787 C 407.650 20.153, 400.488 17.484, 395.585 15.855 C 390.682 14.227, 385.927 12.496, 385.019 12.010 C 383.504 11.199, 362.684 6.057, 352 3.854 C 333.709 0.084, 288.359 -1.103, 264.500 1.564 M 283 20.038 C 271.080 20.724, 238.849 25.864, 232.500 28.093 C 230.850 28.672, 225.225 30.430, 220 31.999 C 176.242 45.142, 131.833 74.337, 100.483 110.571 C 89.870 122.836, 89.466 123.348, 82.758 133.020 C 74.547 144.859, 70.477 151.875, 63.047 167 C 59.670 173.875, 56.481 180.276, 55.961 181.225 C 55.440 182.173, 54.057 185.773, 52.887 189.225 C 51.717 192.676, 50.155 196.850, 49.416 198.500 C 48.676 200.150, 46.689 206.450, 45 212.500 C 37.221 240.355, 33.442 278.347, 35.951 303.470 C 37.597 319.943, 40.924 342.679, 42.156 345.870 C 42.715 347.316, 44.307 353, 45.694 358.500 C 47.081 364, 48.554 368.950, 48.968 369.500 C 49.382 370.050, 50.649 373.200, 51.785 376.500 C 58.350 395.574, 70.530 418.205, 86.692 441.359 C 89.740 445.725, 89.554 451.254, 85.897 465 C 84.214 471.325, 81.526 481.450, 79.923 487.500 C 78.321 493.550, 75.440 504.350, 73.521 511.500 C 64.325 545.766, 62.587 552.316, 59.774 563.293 C 58.112 569.779, 56.932 575.265, 57.151 575.484 C 57.570 575.904, 66.531 573.672, 89 567.552 C 96.425 565.530, 107.450 562.562, 113.500 560.958 C 125.266 557.837, 142.791 553.137, 163 547.683 C 169.875 545.828, 180.225 543.084, 186 541.585 C 191.775 540.087, 199.360 537.992, 202.855 536.930 C 210.607 534.576, 214.908 534.497, 219.782 536.618 C 223.742 538.342, 243.535 543.185, 256.059 545.495 C 275.917 549.157, 310.420 549.789, 334.293 546.927 C 351.320 544.885, 393.793 533.747, 398.428 530.108 C 399.017 529.645, 401.975 528.345, 405 527.218 C 418.463 522.207, 446.841 505.689, 460.311 495.024 C 474.280 483.963, 491.706 467.444, 501.483 455.994 C 507.853 448.533, 512.798 442.245, 513.869 440.245 C 514.484 439.096, 515.552 437.558, 516.243 436.828 C 517.715 435.272, 524.181 425.477, 527.231 420.183 C 536.915 403.372, 543.326 389.857, 547.717 377 C 549.125 372.875, 550.631 369.045, 551.063 368.489 C 551.987 367.299, 557.531 346.539, 559.605 336.500 C 561.969 325.053, 565 295.362, 565 283.642 C 565 277.639, 564.512 268.626, 563.915 263.613 C 561.630 244.416, 558.836 225.699, 558.021 224.133 C 557.553 223.235, 555.952 217.550, 554.463 211.500 C 552.974 205.450, 551.436 200.050, 551.047 199.500 C 550.657 198.950, 549.321 195.575, 548.078 192 C 544.518 181.759, 534.118 160.071, 527.152 148.360 C 505.539 112.026, 473.592 80.001, 436.433 57.423 C 426.953 51.662, 405.108 40.762, 399.500 38.994 C 397.300 38.300, 394.150 37.048, 392.500 36.210 C 389.844 34.863, 378.304 31.207, 364.979 27.492 C 362.493 26.799, 352.143 24.866, 341.979 23.196 C 321.534 19.837, 303.392 18.865, 283 20.038 M 197.500 130.759 C 194.750 131.762, 188.450 135.211, 183.500 138.424 C 178.550 141.637, 172.250 145.702, 169.500 147.456 C 153.344 157.765, 148.957 160.963, 144 166.045 C 134.579 175.704, 128.974 190.116, 129.013 204.582 C 129.020 207.287, 129.897 213.722, 130.962 218.882 C 132.875 228.152, 140.524 253.564, 141.985 255.500 C 142.400 256.050, 143.305 258.300, 143.996 260.500 C 146.450 268.311, 158.469 293.478, 165.726 306 C 171.626 316.181, 181.637 331.654, 183.726 333.821 C 184.427 334.548, 185 335.453, 185 335.832 C 185 336.210, 186.012 337.641, 187.250 339.010 C 188.487 340.380, 191.346 343.975, 193.602 347 C 205.043 362.339, 227.346 385.202, 245.405 400.103 C 260.380 412.460, 259.053 411.413, 264.623 415.269 C 267.189 417.046, 271.811 420.248, 274.894 422.384 C 277.977 424.521, 284.325 428.481, 289 431.186 C 293.675 433.891, 298.175 436.534, 299 437.060 C 304.047 440.276, 333.933 454.255, 339.500 456.004 C 341.700 456.695, 343.950 457.607, 344.500 458.031 C 345.050 458.455, 349.550 459.997, 354.500 461.459 C 359.450 462.920, 364.400 464.536, 365.500 465.049 C 369.537 466.934, 384.721 470.070, 392.500 470.626 C 413.764 472.146, 432.171 462.368, 444.506 443 C 449.187 435.650, 456.075 424.972, 458.051 422 C 468.648 406.066, 470.455 401.849, 470.479 393 C 470.521 377.880, 463.840 369.929, 445.695 363.507 C 441.738 362.106, 437.600 360.518, 436.500 359.977 C 435.400 359.437, 431.350 357.893, 427.500 356.547 C 420.632 354.145, 407.869 349.417, 389 342.285 C 372.172 335.924, 364.766 336.700, 350.524 346.318 C 328.834 360.964, 328.538 361.056, 320.477 355.681 C 307.350 346.928, 304.605 344.851, 293.186 335.031 C 272.745 317.453, 250.533 291.766, 242.991 276.983 C 239.765 270.659, 239.866 270.365, 251.432 252.532 C 255.367 246.464, 259.396 239.648, 260.384 237.384 C 263.016 231.360, 262.141 222.710, 257.715 211 C 250.040 190.696, 245.790 179.204, 243.291 172 C 241.859 167.875, 240.409 164.275, 240.067 164 C 239.725 163.725, 238.620 160.800, 237.611 157.500 C 233.471 143.960, 226.898 134.728, 219 131.359 C 213.294 128.924, 203.294 128.646, 197.500 130.759 M 200.988 151.379 C 199.070 152.687, 195.025 155.313, 192 157.214 C 160.008 177.315, 157.903 178.967, 152.834 187.948 C 150.291 192.454, 149.676 194.811, 149.308 201.453 C 149.012 206.799, 149.355 211.178, 150.328 214.500 C 151.134 217.250, 152.977 223.775, 154.424 229 C 155.871 234.225, 157.664 239.850, 158.407 241.500 C 159.151 243.150, 160.780 247.650, 162.028 251.500 C 163.276 255.350, 164.619 258.725, 165.014 259 C 165.408 259.275, 166.074 260.625, 166.495 262 C 168.096 267.235, 181.173 293.143, 186.432 301.500 C 191.529 309.600, 198.130 319.647, 199.163 320.879 C 199.799 321.637, 202.946 325.800, 206.157 330.130 C 222.577 352.277, 254.668 383.903, 274 396.991 C 275.925 398.294, 278.175 399.957, 279 400.687 C 280.310 401.844, 289.142 407.679, 298.500 413.568 C 306.390 418.534, 334.863 433, 336.746 433 C 337.177 433, 339.098 433.833, 341.015 434.851 C 342.932 435.869, 346.975 437.498, 350 438.471 C 353.025 439.444, 356.850 440.848, 358.500 441.592 C 360.150 442.336, 365.775 444.129, 371 445.576 C 376.225 447.023, 382.750 448.863, 385.500 449.666 C 393.359 451.960, 404.294 451.015, 411.393 447.427 C 419.386 443.388, 424.412 437.690, 434.707 421 C 437.252 416.875, 441.955 409.450, 445.159 404.500 C 451.896 394.091, 452.577 390.386, 448.365 387.073 C 446.916 385.933, 445.228 384.997, 444.615 384.994 C 444.002 384.990, 442.197 384.308, 440.605 383.478 C 439.013 382.648, 434.738 380.882, 431.105 379.555 C 427.472 378.227, 419.550 375.286, 413.500 373.019 C 407.450 370.753, 398.900 367.597, 394.500 366.007 C 390.100 364.417, 383.371 361.939, 379.547 360.501 C 375.722 359.062, 371.621 358.129, 370.433 358.427 C 369.246 358.725, 365.625 360.694, 362.387 362.802 C 338.633 378.265, 336.782 379.145, 328.057 379.118 C 321.776 379.098, 320.250 378.679, 314.248 375.331 C 283.146 357.980, 241.998 316.815, 224.621 285.666 C 221.263 279.648, 220.803 278.013, 220.765 271.981 C 220.711 263.362, 221.598 261.505, 237.189 237.613 C 239.302 234.375, 241.278 230.742, 241.579 229.539 C 242.063 227.613, 236.158 209.871, 230.084 195 C 229.073 192.525, 227.457 188.025, 226.492 185 C 225.528 181.975, 224.132 178.375, 223.390 177 C 222.649 175.625, 221.162 171.800, 220.086 168.500 C 213.888 149.492, 209.510 145.567, 200.988 151.379" stroke="none" fill="currentColor" fill-rule="evenodd"/></symbol><symbol id="logo" viewBox="0 0 70 31"><g fill="none">
<path d="M15.0513 10.8676V31H11.9179V13.7638H3.13344V31H0V10.8676H15.0513Z" fill="#161616"/>
<path d="M32.3123 26.1395H23.5576L21.3155 31H17.9363L28.1335 9.68901L37.839 31H34.4598L32.3123 26.1395ZM31.0535 23.2433L28.0119 16.421L24.8488 23.2433H31.0535Z" fill="#161616"/>
<path d="M50.3431 22.7283C49.1464 22.8186 47.1178 22.9407 46.1669 22.9407C44.7839 22.9407 42.604 22.8212 41.1615 21.7036C39.2572 20.225 39.1653 17.7802 39.1653 16.8139V10.8676H42.2988V16.36C42.2988 17.2041 42.2988 18.6243 43.4036 19.4685C44.1113 20.0127 45.2458 20.1029 46.6586 20.1029C48.0092 20.1029 49.2383 20.0127 50.3431 19.8906V10.865H53.4765V30.9973H50.3431V22.7283Z" fill="#161616"/>
<path d="M70 13.7638H61.8287V18.8659H69.7542V21.7647H61.8287V28.1012H70V31H58.6953V10.8676H70V13.7638Z" fill="#161616"/>
<path d="M35.2098 0L29.8224 6.82193L30.3153 7.19789L35.7027 0.375958L35.2098 0Z" fill="#161616"/>
</g></symbol></svg>